<svg width="1024" height="1024" viewBox="0 0 1024 1024" fill="none" xmlns="http://www.w3.org/2000/svg">
<g clip-path="url(#clip0_1291_166984)">
<path d="M512.005 107.195C512.005 87.7543 527.79 71.8482 547.169 73.4018C604.437 77.9931 660.371 93.7666 711.763 119.952C763.156 146.138 808.794 182.118 846.17 225.75C858.817 240.515 855.227 262.635 839.499 274.061L686.431 385.272C678.567 390.985 667.617 389.182 661.228 381.856C644.627 362.82 624.498 347.095 601.896 335.578C555.982 312.184 512.005 272.223 512.005 220.692V107.195Z" fill="#29BF86"/>
<path d="M869.434 321.955C886.599 312.828 908.054 319.298 915.78 337.137C924.77 357.895 932.145 379.316 937.841 401.209C942.736 420.023 929.813 438.33 910.668 441.706L724.34 474.56C714.767 476.248 705.716 469.827 703.185 460.442C700.84 451.748 697.905 443.224 694.4 434.929C690.617 425.976 693.796 415.343 702.379 410.78L869.434 321.955Z" fill="#29BF86"/>
<path d="M360.355 887.329C353.073 905.354 332.478 914.189 315.093 905.489C263.715 879.779 217.762 844.201 179.922 800.67C142.081 757.139 113.244 706.683 94.935 652.226C88.7394 633.799 100.354 614.635 119.217 609.932L302.8 564.16C312.231 561.808 321.708 567.582 324.888 576.768C333.15 600.637 345.922 622.758 362.564 641.902C379.205 661.046 399.334 676.772 421.82 688.276C430.474 692.703 434.873 702.891 431.232 711.904L360.355 887.329Z" fill="#181F25"/>
<path d="M916.556 497.871C935.985 497.193 952.432 512.413 951.556 531.834C948.966 589.227 935.154 645.678 910.778 697.953C886.402 750.227 852.036 797.094 809.735 835.969C795.421 849.124 773.189 846.308 761.221 830.989L691.345 741.552C659.619 700.945 669.671 642.381 691.449 595.678C702.169 572.688 708.349 547.903 709.712 522.682C710.236 512.976 717.755 504.813 727.469 504.474L916.556 497.871Z" fill="#29BF86"/>
<path d="M540.246 915.817C541.602 935.211 526.966 952.179 507.526 951.981C484.906 951.751 462.337 949.776 440.021 946.075C420.842 942.895 409.374 923.642 414.077 904.779L459.85 721.197C462.201 711.765 471.749 706.108 481.352 707.613C490.248 709.008 499.229 709.793 508.232 709.965C517.95 710.15 526.37 717.379 527.048 727.076L540.246 915.817Z" fill="#181F25"/>
<path d="M230.809 220.81C217.304 206.825 217.609 184.418 232.628 172.075C250.104 157.711 268.662 144.717 288.136 133.207C304.873 123.316 326.032 130.693 334.555 148.166L417.496 318.22C421.757 326.956 418.079 337.427 409.755 342.447C402.044 347.097 394.66 352.268 387.652 357.923C380.088 364.028 368.992 363.903 362.239 356.91L230.809 220.81Z" fill="#181F25"/>
<path d="M386.911 127.007C380.903 108.518 391 88.5126 409.91 84.0019C412.764 83.3212 415.624 82.6691 418.491 82.0456C437.487 77.914 455.257 91.5659 457.858 110.832L481.281 284.38C483.621 301.72 471.342 317.428 454.596 322.501C452.503 323.135 450.268 322.002 449.593 319.922L386.911 127.007Z" fill="#181F25"/>
<path d="M131.615 373.547C113.347 366.898 103.799 346.625 111.887 328.947C121.298 308.376 132.281 288.561 144.739 269.68C155.445 253.453 177.698 250.807 193.017 262.776L342.11 379.26C349.77 385.245 351.055 396.268 345.774 404.428C340.882 411.988 336.511 419.873 332.692 428.028C328.57 436.831 318.541 441.583 309.407 438.258L131.615 373.547Z" fill="#181F25"/>
<path d="M109.418 554.313C90.0838 556.346 72.6149 542.31 72.1344 522.875C71.5753 500.261 72.761 477.637 75.6809 455.205C78.1902 435.927 97.0306 423.794 116.046 427.836L301.114 467.173C310.622 469.194 316.609 478.539 315.44 488.188C314.357 497.128 313.885 506.131 314.028 515.134C314.182 524.853 307.251 533.52 297.584 534.536L109.418 554.313Z" fill="#181F25"/>
<path d="M714.405 862.569C724.125 879.405 718.409 901.072 700.85 909.416C680.418 919.125 659.267 927.244 637.587 933.701C618.955 939.249 600.208 926.972 596.166 907.957L554.607 712.434C553.813 708.7 556.21 705.04 559.913 704.116C589.543 696.727 623.381 704.912 638.65 731.358L714.405 862.569Z" fill="#181F25"/>
</g>
<defs>
<clipPath id="clip0_1291_166984">
<rect width="1024" height="1024" fill="white"/>
</clipPath>
</defs>
</svg>
