<svg width="38" height="38" viewBox="0 0 38 38" fill="none" xmlns="http://www.w3.org/2000/svg">
<path d="M18.9336 1.05556C18.9336 0.852288 19.0984 0.687118 19.3016 0.691154C20.2153 0.709299 21.1264 0.794992 22.0274 0.947525C22.2281 0.981499 22.3592 1.17492 22.3209 1.37481L20.7311 9.66868C20.6929 9.86808 20.5005 9.9981 20.2997 9.96817C19.9689 9.91888 19.6357 9.88752 19.3015 9.87424C19.0984 9.86617 18.9336 9.70214 18.9336 9.49887V1.05556Z" fill="#3E776D"/>
<path d="M23.6127 1.66761C23.6655 1.47166 23.867 1.35502 24.062 1.41119C26.4316 2.09365 28.6396 3.24218 30.5554 4.78875C30.7141 4.91687 30.7334 5.15037 30.6014 5.30584L25.1243 11.7559C24.9931 11.9104 24.7623 11.9291 24.6022 11.805C23.7266 11.1262 22.7351 10.6102 21.6754 10.2819C21.4809 10.2216 21.3639 10.0201 21.4168 9.82345L23.6127 1.66761Z" fill="#3E776D"/>
<path d="M31.7184 6.32307C31.862 6.18017 32.0944 6.17992 32.2351 6.32565C33.9443 8.09573 35.2795 10.189 36.1616 12.4816C36.2347 12.6717 36.1349 12.8833 35.9431 12.9521L27.9575 15.8132C27.7666 15.8816 27.557 15.7823 27.4804 15.5945C27.0634 14.572 26.4646 13.6326 25.7127 12.8216C25.574 12.672 25.5734 12.4385 25.718 12.2946L31.7184 6.32307Z" fill="#3E776D"/>
<path d="M37.0132 19.0464C37.2165 19.0464 37.3817 19.2112 37.3776 19.4144C37.3281 21.8688 36.7845 24.2885 35.779 26.5301C35.696 26.7151 35.4771 26.7937 35.2935 26.7077L27.6141 23.1115C27.4295 23.025 27.3511 22.8053 27.4307 22.6177C27.8619 21.6016 28.1056 20.5164 28.15 19.4143C28.1582 19.2112 28.3222 19.0464 28.5255 19.0464H37.0132Z" fill="#181F25"/>
<path d="M27.9719 34.6259C28.0743 34.8023 28.0139 35.0285 27.8351 35.1265C25.6745 36.3111 23.297 37.0524 20.8434 37.3066C20.6413 37.3275 20.4634 37.1768 20.4463 36.9744L19.7364 28.5607C19.7193 28.358 19.8699 28.1806 20.0718 28.1556C21.1734 28.0193 22.2414 27.6862 23.2241 27.1722C23.4037 27.0783 23.6277 27.1377 23.7294 27.313L27.9719 34.6259Z" fill="#181F25"/>
<path d="M6.14868 31.7697C6.00509 31.9126 5.77271 31.9128 5.63199 31.7671C3.92277 29.997 2.58761 27.9037 1.70555 25.6111C1.6324 25.421 1.73224 25.2094 1.92402 25.1407L9.90958 22.2796C10.1005 22.2111 10.3101 22.3104 10.3867 22.4982C10.8037 23.5208 11.4025 24.4601 12.1545 25.2711C12.2931 25.4207 12.2937 25.6542 12.1492 25.7981L6.14868 31.7697Z" fill="#181F25"/>
<path d="M6.1512 6.32558C6.00663 6.1817 6.00638 5.94738 6.15382 5.80644C7.9328 4.10578 10.0365 2.77743 12.3404 1.90005C12.53 1.82786 12.7404 1.92717 12.8094 2.11791L15.6835 10.0624C15.7528 10.254 15.653 10.4647 15.4641 10.541C14.4359 10.9564 13.4913 11.5531 12.676 12.3024C12.5268 12.4395 12.2953 12.44 12.1517 12.2971L6.1512 6.32558Z" fill="#181F25"/>
<path d="M14.2549 1.66933C14.2019 1.47271 14.3186 1.27009 14.5164 1.22156C15.4037 1.00378 16.306 0.85193 17.2159 0.767249C17.4182 0.748422 17.5946 0.900987 17.6096 1.10361L18.2309 9.52426C18.2459 9.72709 18.0934 9.90285 17.8913 9.92572C17.559 9.96333 17.229 10.0189 16.9028 10.0922C16.7048 10.1366 16.5035 10.0211 16.4508 9.82516L14.2549 1.66933Z" fill="#181F25"/>
<path d="M0.853905 19.0464C0.650629 19.0464 0.485453 18.8815 0.489547 18.6783C0.538997 16.2239 1.08259 13.8043 2.08813 11.5626C2.17111 11.3776 2.39005 11.2991 2.57365 11.3851L10.253 14.9813C10.4376 15.0677 10.516 15.2874 10.4364 15.475C10.0052 16.4911 9.76154 17.5763 9.71711 18.6784C9.70893 18.8815 9.54491 19.0464 9.34163 19.0464L0.853905 19.0464Z" fill="#181F25"/>
<path d="M36.3979 14.3894C36.594 14.3371 36.7958 14.4533 36.8446 14.6502C37.0633 15.5326 37.2158 16.4299 37.3009 17.3348C37.32 17.5373 37.1672 17.7138 36.9644 17.7286L28.4995 18.3473C28.2968 18.3621 28.1213 18.2098 28.0982 18.0079C28.0605 17.6788 28.005 17.3519 27.9318 17.0287C27.8869 16.8301 28.0029 16.628 28.1996 16.5755L36.3979 14.3894Z" fill="#3E776D"/>
<path d="M31.7159 31.7672C31.8605 31.911 31.8608 32.1453 31.7133 32.2863C31.0544 32.9161 30.3494 33.4964 29.6042 34.0224C29.4386 34.1392 29.2104 34.0954 29.0961 33.928L24.3266 26.9438C24.2116 26.7754 24.256 26.5462 24.4202 26.4253C24.6885 26.2277 24.9459 26.0157 25.1911 25.7904C25.3403 25.6533 25.5719 25.6527 25.7154 25.7956L31.7159 31.7672Z" fill="#181F25"/>
<path d="M9.89363 34.6286C9.79192 34.8039 9.56742 34.8643 9.39372 34.7599C8.6117 34.2897 7.86587 33.7623 7.16237 33.1821C7.00502 33.0523 6.98812 32.8186 7.12176 32.6646L12.6665 26.2719C12.7992 26.1188 13.0302 26.1025 13.189 26.2283C13.4503 26.4352 13.7227 26.6279 14.0049 26.8055C14.1775 26.9141 14.2385 27.1393 14.1362 27.3157L9.89363 34.6286Z" fill="#181F25"/>
<path d="M3.27784 10.0511C3.10106 9.9495 3.04021 9.72337 3.14605 9.54912C3.61858 8.77117 4.14851 8.02923 4.73148 7.3294C4.86115 7.17374 5.09292 7.15699 5.24659 7.289L11.6706 12.8074C11.8253 12.9403 11.8418 13.1732 11.7145 13.3325C11.507 13.5922 11.3138 13.8629 11.1357 14.1434C11.027 14.3145 10.8034 14.375 10.6277 14.274L3.27784 10.0511Z" fill="#181F25"/>
<path d="M1.46921 23.7034C1.27313 23.7557 1.07135 23.6395 1.02253 23.4425C0.803861 22.5601 0.651326 21.6628 0.566187 20.758C0.547135 20.5555 0.699889 20.3789 0.902727 20.3641L9.36764 19.7455C9.57028 19.7306 9.74582 19.883 9.76891 20.0848C9.80657 20.414 9.86211 20.7409 9.93528 21.0641C9.98025 21.2627 9.86425 21.4648 9.6675 21.5172L1.46921 23.7034Z" fill="#181F25"/>
<path d="M14.2544 36.4251C14.2016 36.6211 14.0001 36.7377 13.8051 36.6816C12.9273 36.4287 12.0696 36.1114 11.239 35.732C11.0536 35.6474 10.9769 35.4262 11.066 35.2429L14.7588 27.6406C14.8474 27.4582 15.0665 27.3826 15.2525 27.4632C15.559 27.5959 15.8726 27.712 16.1917 27.8109C16.3862 27.8711 16.5033 28.0727 16.4503 28.2693L14.2544 36.4251Z" fill="#181F25"/>
<path d="M18.9336 37.0372C18.9336 37.2404 18.7688 37.4056 18.5655 37.4016C17.6518 37.3834 16.7407 37.2977 15.8397 37.1452C15.639 37.1112 15.5079 36.9178 15.5462 36.7179L17.136 28.424C17.1742 28.2247 17.3666 28.0946 17.5674 28.1246C17.8982 28.1739 18.2314 28.2052 18.5656 28.2185C18.7687 28.2266 18.9336 28.3906 18.9336 28.5939V37.0372Z" fill="#181F25"/>
<path d="M34.5893 28.0417C34.7661 28.1432 34.8269 28.3694 34.7211 28.5436C34.2485 29.3216 33.7186 30.0635 33.1356 30.7633C33.006 30.919 32.7742 30.9357 32.6205 30.8037L26.1965 25.2854C26.0418 25.1525 26.0253 24.9195 26.1526 24.7602C26.3601 24.5005 26.5534 24.2299 26.7314 23.9494C26.8401 23.7783 27.0637 23.7177 27.2395 23.8187L34.5893 28.0417Z" fill="#181F25"/>
</svg>
