<svg width="512" height="512" viewBox="0 0 512 512" fill="none" xmlns="http://www.w3.org/2000/svg">
<path d="M255.998 44.3217C255.998 41.9358 257.932 39.9972 260.318 40.0449C271.012 40.2588 281.676 41.2669 292.221 43.0607C294.573 43.4608 296.11 45.7275 295.663 48.0711L277.045 145.671C276.598 148.015 274.336 149.543 271.977 149.19C268.113 148.612 264.221 148.244 260.317 148.088C257.933 147.993 255.998 146.068 255.998 143.682L255.998 44.3217Z" fill="#3E776D"/>
<path d="M310.785 51.5345C311.402 49.23 313.773 47.8581 316.065 48.5216C343.808 56.5535 369.66 70.0685 392.089 88.2664C393.942 89.7696 394.169 92.4991 392.629 94.3214L328.496 170.212C326.956 172.034 324.235 172.256 322.353 170.79C312.105 162.81 300.501 156.744 288.1 152.883C285.822 152.174 284.451 149.813 285.069 147.509L310.785 51.5345Z" fill="#3E776D"/>
<path d="M405.678 106.321C407.365 104.634 410.104 104.631 411.757 106.352C431.768 127.18 447.399 151.81 457.724 178.784C458.577 181.013 457.409 183.489 455.164 184.298L361.678 217.955C359.433 218.763 356.966 217.594 356.069 215.384C351.184 203.349 344.168 192.293 335.358 182.749C333.74 180.996 333.733 178.267 335.42 176.579L405.678 106.321Z" fill="#3E776D"/>
<path d="M467.678 256.002C470.064 256.002 472.003 257.936 471.955 260.322C471.377 289.199 465.014 317.668 453.241 344.043C452.268 346.222 449.691 347.147 447.532 346.131L357.628 303.825C355.469 302.809 354.551 300.239 355.48 298.041C360.536 286.077 363.392 273.299 363.912 260.321C364.007 257.937 365.932 256.002 368.318 256.002H467.678Z" fill="#4375B0"/>
<path d="M361.838 439.322C363.031 441.388 362.325 444.034 360.235 445.186C334.938 459.124 307.101 467.848 278.374 470.84C276.001 471.087 273.911 469.317 273.711 466.939L265.397 367.928C265.197 365.55 266.964 363.47 269.332 363.175C282.221 361.572 294.716 357.656 306.215 351.617C308.327 350.508 310.965 351.207 312.158 353.274L361.838 439.322Z" fill="#A87AB0"/>
<path d="M106.318 405.682C104.631 407.369 101.892 407.372 100.239 405.652C80.228 384.824 64.5971 360.193 54.2718 333.219C53.4189 330.991 54.5876 328.514 56.8324 327.706L150.318 294.049C152.563 293.241 155.03 294.409 155.927 296.62C160.812 308.655 167.828 319.71 176.638 329.254C178.256 331.007 178.263 333.737 176.576 335.424L106.318 405.682Z" fill="#F75606"/>
<path d="M106.318 106.321C104.631 104.634 104.628 101.895 106.348 100.242C127.176 80.2316 151.806 64.6007 178.781 54.2754C181.009 53.4225 183.486 54.5912 184.294 56.836L217.951 150.322C218.759 152.567 217.591 155.034 215.38 155.931C203.345 160.816 192.29 167.832 182.746 176.641C180.992 178.26 178.263 178.267 176.576 176.579L106.318 106.321Z" fill="#FFBB00"/>
<path d="M201.211 51.5345C200.594 49.23 201.96 46.8567 204.277 46.2854C214.662 43.7241 225.224 41.9378 235.874 40.9412C238.249 40.7189 240.32 42.5107 240.495 44.8902L247.772 143.983C247.947 146.363 246.158 148.424 243.787 148.694C239.906 149.136 236.051 149.788 232.24 150.647C229.912 151.172 227.545 149.813 226.927 147.509L201.211 51.5345Z" fill="#FFBB00"/>
<path d="M44.318 256.002C41.9322 256.002 39.9935 254.067 40.0412 251.682C40.6189 222.804 46.9824 194.335 58.7551 167.961C59.7276 165.782 62.3055 164.857 64.4643 165.873L154.368 208.178C156.527 209.194 157.445 211.764 156.516 213.962C151.46 225.926 148.604 238.705 148.084 251.683C147.989 254.067 146.064 256.002 143.678 256.002L44.318 256.002Z" fill="#F75606"/>
<path d="M460.465 201.215C462.77 200.597 465.143 201.964 465.714 204.281C468.276 214.666 470.062 225.227 471.059 235.877C471.281 238.253 469.489 240.324 467.11 240.499L368.016 247.776C365.637 247.95 363.575 246.162 363.306 243.791C362.864 239.909 362.212 236.054 361.352 232.243C360.828 229.916 362.186 227.549 364.491 226.931L460.465 201.215Z" fill="#3E776D"/>
<path d="M405.678 405.682C407.365 407.369 407.369 410.108 405.648 411.761C397.935 419.172 389.681 425.999 380.957 432.187C379.01 433.568 376.321 433.051 374.98 431.078L319.131 348.899C317.79 346.926 318.308 344.246 320.227 342.827C323.367 340.504 326.38 338.012 329.251 335.362C331.004 333.744 333.733 333.737 335.42 335.424L405.678 405.682Z" fill="#4375B0"/>
<path d="M150.158 439.322C148.965 441.388 146.321 442.1 144.279 440.866C135.124 435.333 126.393 429.129 118.157 422.303C116.321 420.78 116.123 418.048 117.682 416.242L182.606 341.027C184.165 339.221 186.887 339.028 188.754 340.514C191.812 342.946 194.998 345.211 198.301 347.298C200.318 348.573 201.031 351.207 199.838 353.274L150.158 439.322Z" fill="#A87AB0"/>
<path d="M72.6778 150.162C70.6116 148.969 69.8998 146.324 71.1338 144.282C76.6663 135.128 82.8712 126.397 89.6972 118.161C91.2198 116.324 93.9513 116.127 95.7573 117.686L170.972 182.61C172.778 184.168 172.971 186.891 171.486 188.758C169.053 191.815 166.789 195.002 164.702 198.305C163.427 200.322 160.792 201.035 158.726 199.842L72.6778 150.162Z" fill="#FFBB00"/>
<path d="M51.5309 310.789C49.2263 311.406 46.8531 310.039 46.2818 307.723C43.7205 297.338 41.9342 286.776 40.9376 276.126C40.7153 273.751 42.5071 271.68 44.8865 271.505L143.98 264.228C146.359 264.053 148.421 265.842 148.691 268.212C149.132 272.094 149.784 275.949 150.644 279.76C151.169 282.088 149.81 284.455 147.505 285.072L51.5309 310.789Z" fill="#F75606"/>
<path d="M201.211 460.469C200.594 462.773 198.224 464.145 195.932 463.482C185.657 460.507 175.618 456.774 165.896 452.312C163.728 451.316 162.83 448.729 163.868 446.581L207.113 357.126C208.151 354.977 210.731 354.086 212.919 355.038C216.502 356.596 220.166 357.959 223.896 359.12C226.174 359.83 227.545 362.19 226.927 364.494L201.211 460.469Z" fill="#A87AB0"/>
<path d="M255.998 467.682C255.998 470.068 254.064 472.006 251.678 471.959C240.984 471.745 230.32 470.737 219.775 468.943C217.423 468.543 215.886 466.276 216.333 463.932L234.951 366.332C235.398 363.989 237.66 362.46 240.019 362.813C243.883 363.391 247.776 363.759 251.679 363.915C254.063 364.011 255.998 365.936 255.998 368.322L255.998 467.682Z" fill="#A87AB0"/>
<path d="M439.318 361.842C441.385 363.035 442.096 365.679 440.862 367.721C435.33 376.876 429.125 385.607 422.299 393.842C420.776 395.679 418.045 395.877 416.239 394.318L341.024 329.394C339.218 327.835 339.025 325.112 340.51 323.245C342.943 320.188 345.207 317.001 347.295 313.699C348.569 311.682 351.204 310.969 353.27 312.162L439.318 361.842Z" fill="#4375B0"/>
</svg>
