<svg width="38" height="38" viewBox="0 0 38 38" fill="none" xmlns="http://www.w3.org/2000/svg">
<path d="M18.9333 1.05556C18.9333 0.852288 19.0981 0.687118 19.3014 0.691154C20.2151 0.709299 21.1262 0.794992 22.0272 0.947525C22.2278 0.981499 22.359 1.17492 22.3207 1.37481L20.7309 9.66868C20.6926 9.86808 20.5003 9.9981 20.2995 9.96817C19.9687 9.91888 19.6355 9.88752 19.3013 9.87424C19.0982 9.86617 18.9333 9.70214 18.9333 9.49887V1.05556Z" fill="#3E776D"/>
<path d="M23.6125 1.66761C23.6652 1.47166 23.8668 1.35502 24.0618 1.41119C26.4314 2.09365 28.6394 3.24218 30.5551 4.78875C30.7138 4.91687 30.7332 5.15037 30.6012 5.30584L25.124 11.7559C24.9929 11.9104 24.7621 11.9291 24.602 11.805C23.7264 11.1262 22.7349 10.6102 21.6751 10.2819C21.4806 10.2216 21.3636 10.0201 21.4165 9.82345L23.6125 1.66761Z" fill="#3E776D"/>
<path d="M31.7182 6.32307C31.8618 6.18017 32.0942 6.17992 32.2349 6.32565C33.9441 8.09573 35.2793 10.189 36.1613 12.4816C36.2345 12.6717 36.1346 12.8833 35.9429 12.9521L27.9573 15.8132C27.7663 15.8816 27.5567 15.7823 27.4802 15.5945C27.0632 14.572 26.4643 13.6326 25.7124 12.8216C25.5737 12.672 25.5731 12.4385 25.7177 12.2946L31.7182 6.32307Z" fill="#3E776D"/>
<path d="M37.013 19.0464C37.2162 19.0464 37.3814 19.2112 37.3773 19.4144C37.3279 21.8688 36.7843 24.2885 35.7787 26.5301C35.6958 26.7151 35.4768 26.7937 35.2932 26.7077L27.6139 23.1115C27.4293 23.025 27.3508 22.8053 27.4305 22.6177C27.8617 21.6016 28.1053 20.5164 28.1498 19.4143C28.1579 19.2112 28.322 19.0464 28.5252 19.0464H37.013Z" fill="#181F25"/>
<path d="M27.9717 34.6259C28.074 34.8023 28.0136 35.0285 27.8349 35.1265C25.6742 36.3111 23.2967 37.0524 20.8432 37.3066C20.6411 37.3275 20.4631 37.1768 20.4461 36.9744L19.7361 28.5607C19.719 28.358 19.8697 28.1806 20.0715 28.1556C21.1732 28.0193 22.2411 27.6862 23.2239 27.1722C23.4035 27.0783 23.6275 27.1377 23.7292 27.313L27.9717 34.6259Z" fill="#181F25"/>
<path d="M6.14844 31.7697C6.00485 31.9126 5.77247 31.9128 5.63175 31.7671C3.92253 29.997 2.58737 27.9037 1.70531 25.6111C1.63216 25.421 1.73199 25.2094 1.92377 25.1407L9.90933 22.2796C10.1003 22.2111 10.3099 22.3104 10.3865 22.4982C10.8034 23.5208 11.4023 24.4601 12.1542 25.2711C12.2929 25.4207 12.2935 25.6542 12.1489 25.7981L6.14844 31.7697Z" fill="#181F25"/>
<path d="M6.15096 6.32558C6.00638 6.1817 6.00614 5.94738 6.15358 5.80644C7.93256 4.10578 10.0363 2.77743 12.3402 1.90005C12.5297 1.82786 12.7402 1.92717 12.8092 2.11791L15.6832 10.0624C15.7526 10.254 15.6527 10.4647 15.4639 10.541C14.4356 10.9564 13.4911 11.5531 12.6758 12.3024C12.5266 12.4395 12.295 12.44 12.1514 12.2971L6.15096 6.32558Z" fill="#181F25"/>
<path d="M14.2546 1.66933C14.2017 1.47271 14.3184 1.27009 14.5161 1.22156C15.4034 1.00378 16.3058 0.85193 17.2157 0.767249C17.418 0.748422 17.5944 0.900987 17.6093 1.10361L18.2307 9.52426C18.2456 9.72709 18.0931 9.90285 17.8911 9.92572C17.5588 9.96333 17.2288 10.0189 16.9026 10.0922C16.7046 10.1366 16.5033 10.0211 16.4505 9.82516L14.2546 1.66933Z" fill="#181F25"/>
<path d="M0.853661 19.0464C0.650385 19.0464 0.485208 18.8815 0.489303 18.6783C0.538753 16.2239 1.08234 13.8043 2.08789 11.5626C2.17087 11.3776 2.3898 11.2991 2.57341 11.3851L10.2528 14.9813C10.4373 15.0677 10.5158 15.2874 10.4362 15.475C10.005 16.4911 9.7613 17.5763 9.71687 18.6784C9.70868 18.8815 9.54467 19.0464 9.34139 19.0464L0.853661 19.0464Z" fill="#181F25"/>
<path d="M36.3977 14.3894C36.5937 14.3371 36.7955 14.4533 36.8443 14.6502C37.063 15.5326 37.2155 16.4299 37.3007 17.3348C37.3197 17.5373 37.167 17.7138 36.9641 17.7286L28.4992 18.3473C28.2966 18.3621 28.1211 18.2098 28.098 18.0079C28.0603 17.6788 28.0048 17.3519 27.9316 17.0287C27.8866 16.8301 28.0026 16.628 28.1994 16.5755L36.3977 14.3894Z" fill="#3E776D"/>
<path d="M31.7157 31.7672C31.8602 31.911 31.8605 32.1453 31.7131 32.2863C31.0542 32.9161 30.3492 33.4964 29.6039 34.0224C29.4384 34.1392 29.2101 34.0954 29.0958 33.928L24.3264 26.9438C24.2114 26.7754 24.2557 26.5462 24.4199 26.4253C24.6883 26.2277 24.9456 26.0157 25.1909 25.7904C25.34 25.6533 25.5716 25.6527 25.7152 25.7956L31.7157 31.7672Z" fill="#181F25"/>
<path d="M9.89338 34.6286C9.79168 34.8039 9.56717 34.8643 9.39348 34.7599C8.61146 34.2897 7.86562 33.7623 7.16213 33.1821C7.00477 33.0523 6.98787 32.8186 7.12151 32.6646L12.6662 26.2719C12.799 26.1188 13.03 26.1025 13.1888 26.2283C13.4501 26.4352 13.7224 26.6279 14.0047 26.8055C14.1772 26.9141 14.2382 27.1393 14.1359 27.3157L9.89338 34.6286Z" fill="#181F25"/>
<path d="M3.2776 10.0511C3.10082 9.9495 3.03996 9.72337 3.1458 9.54912C3.61833 8.77117 4.14827 8.02923 4.73124 7.3294C4.8609 7.17374 5.09267 7.15699 5.24635 7.289L11.6704 12.8074C11.8251 12.9403 11.8416 13.1732 11.7143 13.3325C11.5067 13.5922 11.3135 13.8629 11.1354 14.1434C11.0268 14.3145 10.8031 14.375 10.6274 14.274L3.2776 10.0511Z" fill="#181F25"/>
<path d="M1.46897 23.7034C1.27289 23.7557 1.07111 23.6395 1.02229 23.4425C0.803617 22.5601 0.651082 21.6628 0.565943 20.758C0.546891 20.5555 0.699645 20.3789 0.902482 20.3641L9.3674 19.7455C9.57003 19.7306 9.74557 19.883 9.76867 20.0848C9.80633 20.414 9.86187 20.7409 9.93504 21.0641C9.98 21.2627 9.864 21.4648 9.66725 21.5172L1.46897 23.7034Z" fill="#181F25"/>
<path d="M14.2542 36.4251C14.2014 36.6211 13.9999 36.7377 13.8049 36.6816C12.9271 36.4287 12.0693 36.1114 11.2388 35.732C11.0534 35.6474 10.9767 35.4262 11.0657 35.2429L14.7586 27.6406C14.8472 27.4582 15.0663 27.3826 15.2523 27.4632C15.5588 27.5959 15.8723 27.712 16.1915 27.8109C16.386 27.8711 16.503 28.0727 16.4501 28.2693L14.2542 36.4251Z" fill="#181F25"/>
<path d="M18.9333 37.0372C18.9333 37.2404 18.7685 37.4056 18.5653 37.4016C17.6515 37.3834 16.7404 37.2977 15.8395 37.1452C15.6388 37.1112 15.5077 36.9178 15.546 36.7179L17.1358 28.424C17.174 28.2247 17.3664 28.0946 17.5672 28.1246C17.8979 28.1739 18.2312 28.2052 18.5653 28.2185C18.7685 28.2266 18.9333 28.3906 18.9333 28.5939V37.0372Z" fill="#181F25"/>
<path d="M34.589 28.0417C34.7658 28.1432 34.8267 28.3694 34.7208 28.5436C34.2483 29.3216 33.7184 30.0635 33.1354 30.7633C33.0057 30.919 32.774 30.9357 32.6203 30.8037L26.1963 25.2854C26.0415 25.1525 26.025 24.9195 26.1524 24.7602C26.3599 24.5005 26.5531 24.2299 26.7312 23.9494C26.8398 23.7783 27.0635 23.7177 27.2392 23.8187L34.589 28.0417Z" fill="#181F25"/>
</svg>
