<svg width="24" height="25" viewBox="0 0 24 25" fill="none" xmlns="http://www.w3.org/2000/svg">
<path d="M24 6.5H21.6V2.9H18V0.5H24V6.5ZM24 24.5V18.5H21.6V22.1H18V24.5H24ZM0 24.5H6V22.1H2.4V18.5H0V24.5ZM0 0.5V6.5H2.4V2.9H6V0.5H0Z" fill="#FFFFFF"/>
<path d="M18.4615 13.4231H5.53846C4.52308 13.4231 3.69231 14.2538 3.69231 15.2692V18.9615C3.69231 19.9769 4.52308 20.8077 5.53846 20.8077H18.4615C19.4769 20.8077 20.3077 19.9769 20.3077 18.9615V15.2692C20.3077 14.2538 19.4769 13.4231 18.4615 13.4231ZM7.38462 18.9615C6.36923 18.9615 5.53846 18.1308 5.53846 17.1154C5.53846 16.1 6.36923 15.2692 7.38462 15.2692C8.4 15.2692 9.23077 16.1 9.23077 17.1154C9.23077 18.1308 8.4 18.9615 7.38462 18.9615ZM18.4615 4.19231H5.53846C4.52308 4.19231 3.69231 5.02308 3.69231 6.03846V9.73077C3.69231 10.7462 4.52308 11.5769 5.53846 11.5769H18.4615C19.4769 11.5769 20.3077 10.7462 20.3077 9.73077V6.03846C20.3077 5.02308 19.4769 4.19231 18.4615 4.19231ZM7.38462 9.73077C6.36923 9.73077 5.53846 8.9 5.53846 7.88462C5.53846 6.86923 6.36923 6.03846 7.38462 6.03846C8.4 6.03846 9.23077 6.86923 9.23077 7.88462C9.23077 8.9 8.4 9.73077 7.38462 9.73077Z" fill="#FFFFFF"/>
</svg>
