<svg width="24" height="24" viewBox="0 0 24 24" fill="none" xmlns="http://www.w3.org/2000/svg">
	<path fill-rule="evenodd" clip-rule="evenodd" d="M9.5 16H8V18H9.8135C9.60996 17.3699 9.5 16.6978 9.5 16ZM9.8135 14H8V12H10.8762C10.4128 12.5928 10.05 13.268 9.8135 14ZM18 9.8135V9H13V4H6V20H10.8762C11.5585 20.8728 12.459 21.5668 13.4956 22H5.99C4.89 22 4 21.1 4 20V4C4 2.9 4.9 2 6 2H14L20 8V10.8762C19.4072 10.4128 18.732 10.05 18 9.8135Z" fill="#181F25"/>
	<path d="M16 11C13.24 11 11 13.24 11 16C11 18.76 13.24 21 16 21C18.76 21 21 18.76 21 16C21 13.24 18.76 11 16 11ZM18.5 16.5H16.5V18.5H15.5V16.5H13.5V15.5H15.5V13.5H16.5V15.5H18.5V16.5Z" fill="#181F25"/>
</svg>
