<svg width="24" height="24" viewBox="0 0 24 24" fill="none" xmlns="http://www.w3.org/2000/svg">
	<path fill-rule="evenodd" clip-rule="evenodd" d="M12 2L21 7V11.8464C20.4495 11.1844 19.7699 10.6335 19 10.2322V9.26L18.0027 9.81439C17.3719 9.61028 16.6988 9.5 16 9.5C14.9041 9.5 13.8715 9.77123 12.9657 10.2502C12.679 10.0909 12.3496 10 12 10C10.9 10 10 10.9 10 12C10 12.3496 10.0909 12.679 10.2502 12.9657C9.895 13.6374 9.65405 14.3789 9.55324 15.1642C8.60695 14.4331 8 13.2858 8 12C8 11.65 8.04 11.31 8.13 11L5 9.26V15.83L10.057 18.6366C10.6102 19.8816 11.5431 20.9205 12.7087 21.6063L12 22L3 17V7L12 2ZM17.91 7.57L12 4.29L6.09 7.57L9.1 9.24C9.83 8.48 10.86 8 12 8C13.14 8 14.17 8.48 14.9 9.24L17.91 7.57Z" fill="white" fill-opacity="0.9"/>
	<path d="M16 11C13.24 11 11 13.24 11 16C11 18.76 13.24 21 16 21C18.76 21 21 18.76 21 16C21 13.24 18.76 11 16 11ZM18.5 16.5H16.5V18.5H15.5V16.5H13.5V15.5H15.5V13.5H16.5V15.5H18.5V16.5Z" fill="white" fill-opacity="0.9"/>
</svg>
