<svg width="20" height="20" viewBox="0 0 20 20" fill="none" xmlns="http://www.w3.org/2000/svg">
	<path d="M13.3337 7.7784C13.3337 9.61933 11.8413 11.1117 10.0003 11.1117C8.15939 11.1117 6.66699 9.61933 6.66699 7.7784C6.66699 5.93747 8.15939 4.44507 10.0003 4.44507C11.8413 4.44507 13.3337 5.93747 13.3337 7.7784Z" fill="#181F25"/>
	<path d="M5.56966 11.1116C5.08072 11.7487 4.72508 12.5041 4.56221 13.3338C4.31502 14.4767 5.22688 15.556 6.38447 15.556H13.6141C14.7373 15.556 15.6518 14.4303 15.4362 13.3335C15.2732 12.5039 14.9177 11.7485 14.4287 11.1116C13.4215 12.4596 11.8066 13.3338 9.99912 13.3338C8.19167 13.3338 6.57681 12.4596 5.56949 11.1116H5.56966Z" fill="#181F25"/>
	<path d="M18.8886 0H14.4441C13.8307 0 13.333 0.497693 13.333 1.11111C13.333 1.72453 13.8307 2.22222 14.4441 2.22222H17.7775V5.55556C17.7775 6.16897 18.2751 6.66667 18.8886 6.66667C19.502 6.66667 19.9997 6.16897 19.9997 5.55556V1.11111C19.9997 0.497693 19.502 0 18.8886 0Z" fill="#181F25"/>
	<path d="M18.8886 13.3333C18.2751 13.3333 17.7775 13.8309 17.7775 14.4444V17.7777H14.4441C13.8307 17.7777 13.333 18.2754 13.333 18.8888C13.333 19.5022 13.8307 19.9999 14.4441 19.9999H18.8886C19.502 19.9999 19.9997 19.5022 19.9997 18.8888V14.4444C19.9997 13.8309 19.502 13.3333 18.8886 13.3333Z" fill="#181F25"/>
	<path d="M5.55556 17.7777H2.22222V14.4444C2.22222 13.8309 1.72453 13.3333 1.11111 13.3333C0.497693 13.3333 0 13.8309 0 14.4444V18.8888C0 19.5022 0.497693 19.9999 1.11111 19.9999H5.55556C6.16897 19.9999 6.66667 19.5022 6.66667 18.8888C6.66667 18.2754 6.16897 17.7777 5.55556 17.7777Z" fill="#181F25"/>
	<path d="M1.11111 6.66667C1.72453 6.66667 2.22222 6.16897 2.22222 5.55556V2.22222H5.55556C6.16897 2.22222 6.66667 1.72453 6.66667 1.11111C6.66667 0.497693 6.16897 0 5.55556 0H1.11111C0.497693 0 0 0.497693 0 1.11111V5.55556C0 6.16897 0.497693 6.66667 1.11111 6.66667Z" fill="#181F25"/>
</svg>
