<svg width="18" height="20" viewBox="0 0 18 20" fill="none" xmlns="http://www.w3.org/2000/svg">
	<path d="M14.8151 2.47C14.7351 2.47 14.6551 2.45 14.5851 2.41C12.6651 1.42 11.0051 1 9.01511 1C7.03511 1 5.15511 1.47 3.44511 2.41C3.20511 2.54 2.90511 2.45 2.76511 2.21C2.63511 1.97 2.72511 1.66 2.96511 1.53C4.82511 0.52 6.86511 0 9.01511 0C11.1451 0 13.0051 0.47 15.0451 1.52C15.2951 1.65 15.3851 1.95 15.2551 2.19C15.1651 2.37 14.9951 2.47 14.8151 2.47ZM0.505112 7.72C0.405112 7.72 0.305112 7.69 0.215112 7.63C-0.014888 7.47 -0.0648881 7.16 0.0951119 6.93C1.08511 5.53 2.34511 4.43 3.84511 3.66C6.98511 2.04 11.0051 2.03 14.1551 3.65C15.6551 4.42 16.9151 5.51 17.9051 6.9C18.0651 7.12 18.0151 7.44 17.7851 7.6C17.5551 7.76 17.2451 7.71 17.0851 7.48C16.1851 6.22 15.0451 5.23 13.6951 4.54C10.8251 3.07 7.15511 3.07 4.29511 4.55C2.93511 5.25 1.79511 6.25 0.895112 7.51C0.815112 7.65 0.665112 7.72 0.505112 7.72ZM6.75511 19.79C6.62511 19.79 6.49511 19.74 6.40511 19.64C5.53511 18.77 5.06511 18.21 4.39511 17C3.70511 15.77 3.34511 14.27 3.34511 12.66C3.34511 9.69 5.88511 7.27 9.00511 7.27C12.1251 7.27 14.6651 9.69 14.6651 12.66C14.6651 12.94 14.4451 13.16 14.1651 13.16C13.8851 13.16 13.6651 12.94 13.6651 12.66C13.6651 10.24 11.5751 8.27 9.00511 8.27C6.43511 8.27 4.34511 10.24 4.34511 12.66C4.34511 14.1 4.66511 15.43 5.27511 16.51C5.91511 17.66 6.35511 18.15 7.12511 18.93C7.31511 19.13 7.31511 19.44 7.12511 19.64C7.01511 19.74 6.88511 19.79 6.75511 19.79ZM13.9251 17.94C12.7351 17.94 11.6851 17.64 10.8251 17.05C9.33511 16.04 8.44511 14.4 8.44511 12.66C8.44511 12.38 8.66511 12.16 8.94511 12.16C9.22511 12.16 9.44511 12.38 9.44511 12.66C9.44511 14.07 10.1651 15.4 11.3851 16.22C12.0951 16.7 12.9251 16.93 13.9251 16.93C14.1651 16.93 14.5651 16.9 14.9651 16.83C15.2351 16.78 15.4951 16.96 15.5451 17.24C15.5951 17.51 15.4151 17.77 15.1351 17.82C14.5651 17.93 14.0651 17.94 13.9251 17.94ZM11.9151 20C11.8751 20 11.8251 19.99 11.7851 19.98C10.1951 19.54 9.15511 18.95 8.06511 17.88C6.66511 16.49 5.89511 14.64 5.89511 12.66C5.89511 11.04 7.27511 9.72 8.97511 9.72C10.6751 9.72 12.0551 11.04 12.0551 12.66C12.0551 13.73 12.9851 14.6 14.1351 14.6C15.2851 14.6 16.2151 13.73 16.2151 12.66C16.2151 8.89 12.9651 5.83 8.96511 5.83C6.12511 5.83 3.52511 7.41 2.35511 9.86C1.96511 10.67 1.76511 11.62 1.76511 12.66C1.76511 13.44 1.83511 14.67 2.43511 16.27C2.53511 16.53 2.40511 16.82 2.14511 16.91C1.88511 17.01 1.59511 16.87 1.50511 16.62C1.01511 15.31 0.775112 14.01 0.775112 12.66C0.775112 11.46 1.00511 10.37 1.45511 9.42C2.78511 6.63 5.73511 4.82 8.96511 4.82C13.5151 4.82 17.2151 8.33 17.2151 12.65C17.2151 14.27 15.8351 15.59 14.1351 15.59C12.4351 15.59 11.0551 14.27 11.0551 12.65C11.0551 11.58 10.1251 10.71 8.97511 10.71C7.82511 10.71 6.89511 11.58 6.89511 12.65C6.89511 14.36 7.55511 15.96 8.76511 17.16C9.71511 18.1 10.6251 18.62 12.0351 19.01C12.3051 19.08 12.4551 19.36 12.3851 19.62C12.3351 19.85 12.1251 20 11.9151 20Z" fill="white" fill-opacity="0.9"/>
</svg>
