<svg width="500" height="500" viewBox="0 0 500 500" fill="none" xmlns="http://www.w3.org/2000/svg">
<path d="M250 20C250 8.95429 258.969 -0.0831552 269.979 0.799556C302.517 3.40819 334.298 12.3703 363.498 27.2483C392.697 42.1262 418.628 62.5692 439.864 87.3598C447.05 95.7485 445.01 108.317 436.074 114.809L349.105 177.996C344.636 181.242 338.415 180.217 334.785 176.055C325.352 165.239 313.916 156.304 301.074 149.761C274.986 136.469 250 113.764 250 84.4856V20Z" fill="#29BF86"/>
<path d="M453.078 142.021C462.831 136.836 475.021 140.511 479.411 150.647C484.519 162.442 488.709 174.612 491.946 187.051C494.727 197.741 487.384 208.142 476.506 210.06L370.639 228.727C365.2 229.687 360.058 226.038 358.62 220.706C357.287 215.766 355.62 210.923 353.628 206.21C351.479 201.123 353.285 195.082 358.162 192.489L453.078 142.021Z" fill="#29BF86"/>
<path d="M163.84 463.25C159.702 473.492 148.001 478.511 138.123 473.568C108.931 458.96 82.8225 438.746 61.3223 414.013C39.8222 389.28 23.4379 360.612 13.035 329.671C9.51484 319.201 16.1141 308.313 26.8317 305.641L131.139 279.634C136.497 278.298 141.882 281.579 143.688 286.798C148.383 300.359 155.639 312.928 165.095 323.805C174.55 334.682 185.987 343.618 198.763 350.154C203.68 352.669 206.179 358.458 204.11 363.578L163.84 463.25Z" fill="#181F25"/>
<path d="M479.86 241.972C490.899 241.587 500.244 250.235 499.746 261.269C498.274 293.879 490.427 325.952 476.577 355.653C462.727 385.355 443.201 411.983 419.167 434.071C411.034 441.545 398.402 439.945 391.602 431.241L351.9 380.425C333.875 357.354 339.586 324.079 351.959 297.544C358.05 284.481 361.562 270.399 362.336 256.069C362.634 250.555 366.906 245.917 372.425 245.724L479.86 241.972Z" fill="#29BF86"/>
<path d="M266.044 479.44C266.814 490.459 258.498 500.1 247.453 499.987C234.601 499.856 221.778 498.735 209.098 496.632C198.201 494.825 191.686 483.886 194.358 473.168L220.365 368.862C221.701 363.503 227.125 360.289 232.581 361.144C237.636 361.936 242.739 362.383 247.854 362.48C253.376 362.586 258.16 366.693 258.545 372.202L266.044 479.44Z" fill="#181F25"/>
<path d="M90.2292 84.5519C82.5562 76.6063 82.7296 63.8753 91.263 56.8619C101.192 48.701 111.737 41.3179 122.801 34.7785C132.311 29.1585 144.333 33.3498 149.175 43.2775L196.3 139.898C198.721 144.861 196.632 150.81 191.902 153.663C187.521 156.305 183.325 159.243 179.344 162.456C175.046 165.925 168.741 165.853 164.905 161.881L90.2292 84.5519Z" fill="#181F25"/>
<path d="M178.926 31.2566C175.513 20.7516 181.25 9.38509 191.994 6.82222C193.615 6.43548 195.241 6.06496 196.869 5.71072C207.663 3.36326 217.759 11.1199 219.237 22.0663L232.545 120.672C233.875 130.524 226.898 139.449 217.384 142.331C216.194 142.691 214.925 142.047 214.541 140.865L178.926 31.2566Z" fill="#181F25"/>
<path d="M33.87 171.334C23.4905 167.557 18.0654 156.038 22.6607 145.994C28.0078 134.306 34.2483 123.048 41.3266 112.32C47.4097 103.1 60.0527 101.597 68.7568 108.397L153.468 174.581C157.82 177.981 158.55 184.244 155.55 188.88C152.77 193.176 150.287 197.656 148.117 202.289C145.775 207.291 140.077 209.99 134.887 208.102L33.87 171.334Z" fill="#181F25"/>
<path d="M21.2599 274.041C10.2748 275.195 0.349387 267.221 0.0763748 256.178C-0.241304 243.33 0.432369 230.475 2.09139 217.73C3.51714 206.777 14.2217 199.883 25.026 202.18L130.177 224.53C135.579 225.678 138.981 230.987 138.316 236.47C137.701 241.549 137.433 246.664 137.514 251.78C137.602 257.302 133.664 262.227 128.171 262.804L21.2599 274.041Z" fill="#181F25"/>
<path d="M365.001 449.184C370.523 458.75 367.275 471.061 357.299 475.802C345.69 481.318 333.673 485.931 321.354 489.599C310.768 492.752 300.117 485.777 297.82 474.972L274.207 363.882C273.756 361.76 275.118 359.681 277.222 359.156C294.057 354.958 313.283 359.608 321.958 374.634L365.001 449.184Z" fill="#181F25"/>
</svg>
