<svg width="501" height="501" viewBox="0 0 501 501" fill="none" xmlns="http://www.w3.org/2000/svg">
<path d="M250.5 5.5C250.5 2.73858 252.739 0.494774 255.5 0.549999C267.878 0.797589 280.22 1.96429 292.425 4.04046C295.147 4.50354 296.926 7.12712 296.408 9.83963L274.86 122.803C274.342 125.515 271.725 127.284 268.994 126.876C264.522 126.207 260.017 125.781 255.499 125.6C252.739 125.49 250.5 123.261 250.5 120.5L250.5 5.5Z" fill="#50998C"/>
<path d="M313.911 13.8482C314.625 11.1808 317.369 9.59302 320.021 10.3609C352.132 19.6571 382.054 35.2996 408.013 56.3619C410.158 58.1018 410.42 61.2608 408.637 63.37L334.41 151.207C332.627 153.316 329.478 153.572 327.3 151.875C315.439 142.639 302.008 135.618 287.655 131.15C285.018 130.329 283.432 127.597 284.146 124.93L313.911 13.8482Z" fill="#50998C"/>
<path d="M423.741 77.2588C425.694 75.3062 428.864 75.3029 430.777 77.2942C453.938 101.4 472.029 129.908 483.979 161.128C484.967 163.707 483.614 166.574 481.016 167.509L372.815 206.464C370.216 207.399 367.361 206.047 366.323 203.488C360.669 189.559 352.549 176.763 342.352 165.717C340.479 163.688 340.471 160.529 342.424 158.576L423.741 77.2588Z" fill="#50998C"/>
<path d="M495.5 250.5C498.261 250.5 500.505 252.739 500.45 255.5C499.781 288.923 492.416 321.873 478.79 352.399C477.665 354.921 474.681 355.992 472.183 354.816L368.128 305.851C365.629 304.676 364.566 301.7 365.641 299.157C371.493 285.31 374.799 270.52 375.4 255.499C375.51 252.74 377.739 250.5 380.5 250.5L495.5 250.5Z" fill="#5F8AB6"/>
<path d="M373 462.676C374.381 465.068 373.563 468.13 371.145 469.463C341.866 485.595 309.647 495.692 276.398 499.155C273.651 499.441 271.232 497.392 271.001 494.641L261.378 380.044C261.147 377.292 263.192 374.885 265.933 374.544C280.85 372.688 295.312 368.156 308.621 361.166C311.066 359.882 314.119 360.692 315.5 363.083L373 462.676Z" fill="#A87AB0"/>
<path d="M77.2588 423.741C75.3062 425.694 72.1363 425.697 70.2231 423.706C47.0624 399.6 28.9711 371.092 17.0205 339.872C16.0334 337.293 17.386 334.426 19.9842 333.491L128.185 294.536C130.784 293.601 133.639 294.953 134.677 297.512C140.331 311.441 148.451 324.237 158.648 335.283C160.521 337.312 160.529 340.471 158.576 342.424L77.2588 423.741Z" fill="#F75606"/>
<path d="M77.2588 77.2589C75.3062 75.3062 75.3029 72.1363 77.2942 70.2231C101.4 47.0624 129.908 28.9711 161.128 17.0205C163.707 16.0333 166.574 17.386 167.509 19.9842L206.464 128.185C207.4 130.784 206.047 133.639 203.488 134.677C189.559 140.331 176.763 148.451 165.717 158.648C163.688 160.521 160.529 160.529 158.576 158.576L77.2588 77.2589Z" fill="#FFBB00"/>
<path d="M187.089 13.8482C186.375 11.1808 187.956 8.43404 190.638 7.77282C202.658 4.80836 214.881 2.74086 227.208 1.58741C229.957 1.33013 232.354 3.40394 232.557 6.15795L240.979 120.849C241.181 123.603 239.111 125.989 236.367 126.302C231.875 126.813 227.413 127.567 223.002 128.562C220.308 129.17 217.568 127.597 216.854 124.93L187.089 13.8482Z" fill="#FFBB00"/>
<path d="M5.5 250.5C2.73858 250.5 0.494776 248.261 0.55 245.5C1.21853 212.077 8.58379 179.127 22.2096 148.601C23.3352 146.079 26.3188 145.008 28.8174 146.184L132.872 195.149C135.371 196.324 136.434 199.3 135.359 201.843C129.507 215.69 126.201 230.48 125.6 245.501C125.49 248.26 123.261 250.5 120.5 250.5L5.5 250.5Z" fill="#F75606"/>
<path d="M487.152 187.089C489.819 186.375 492.566 187.956 493.227 190.638C496.192 202.658 498.259 214.881 499.413 227.208C499.67 229.957 497.596 232.354 494.842 232.557L380.151 240.979C377.397 241.181 375.011 239.111 374.699 236.367C374.187 231.875 373.433 227.413 372.438 223.002C371.83 220.308 373.403 217.568 376.07 216.854L487.152 187.089Z" fill="#50998C"/>
<path d="M423.741 423.741C425.694 425.694 425.697 428.863 423.706 430.777C414.779 439.354 405.226 447.256 395.128 454.419C392.875 456.016 389.763 455.419 388.21 453.135L323.571 358.02C322.019 355.737 322.618 352.635 324.839 350.993C328.474 348.304 331.96 345.419 335.283 342.352C337.312 340.479 340.471 340.471 342.424 342.424L423.741 423.741Z" fill="#5F8AB6"/>
<path d="M128 462.676C126.619 465.068 123.558 465.891 121.195 464.463C110.599 458.06 100.494 450.878 90.9622 442.978C88.8362 441.216 88.6076 438.054 90.4119 435.964L165.555 348.909C167.36 346.819 170.511 346.596 172.672 348.315C176.21 351.13 179.899 353.752 183.721 356.167C186.055 357.642 186.881 360.692 185.5 363.083L128 462.676Z" fill="#A87AB0"/>
<path d="M38.3238 128C35.9323 126.619 35.1085 123.559 36.5368 121.195C42.9401 110.599 50.1217 100.494 58.0222 90.9623C59.7844 88.8362 62.9458 88.6076 65.0362 90.4119L152.091 165.555C154.181 167.36 154.404 170.511 152.685 172.672C149.87 176.21 147.248 179.899 144.833 183.721C143.358 186.055 140.308 186.881 137.917 185.5L38.3238 128Z" fill="#FFBB00"/>
<path d="M13.8482 313.911C11.1809 314.625 8.43405 313.044 7.77283 310.363C4.80836 298.342 2.74087 286.119 1.58741 273.792C1.33014 271.043 3.40395 268.646 6.15795 268.443L120.849 260.021C123.603 259.819 125.989 261.889 126.302 264.633C126.813 269.125 127.567 273.587 128.562 277.998C129.17 280.692 127.597 283.432 124.93 284.146L13.8482 313.911Z" fill="#F75606"/>
<path d="M187.089 487.152C186.375 489.819 183.631 491.407 180.979 490.639C169.087 487.196 157.467 482.875 146.215 477.711C143.706 476.559 142.666 473.564 143.868 471.078L193.92 367.541C195.122 365.055 198.108 364.024 200.64 365.125C204.786 366.929 209.028 368.506 213.345 369.85C215.982 370.671 217.568 373.403 216.854 376.07L187.089 487.152Z" fill="#A87AB0"/>
<path d="M250.5 495.5C250.5 498.261 248.261 500.505 245.5 500.45C233.122 500.202 220.78 499.036 208.575 496.96C205.853 496.496 204.074 493.873 204.592 491.16L226.14 378.197C226.658 375.485 229.275 373.716 232.006 374.124C236.478 374.793 240.983 375.219 245.501 375.4C248.261 375.51 250.5 377.739 250.5 380.5L250.5 495.5Z" fill="#A87AB0"/>
<path d="M462.676 373C465.068 374.381 465.891 377.441 464.463 379.805C458.06 390.401 450.878 400.506 442.978 410.038C441.216 412.164 438.054 412.392 435.964 410.588L348.909 335.445C346.819 333.64 346.596 330.489 348.315 328.328C351.13 324.79 353.752 321.101 356.167 317.279C357.642 314.945 360.692 314.119 363.083 315.5L462.676 373Z" fill="#5F8AB6"/>
</svg>
