<svg width="623" height="249" viewBox="0 0 623 249" fill="none" xmlns="http://www.w3.org/2000/svg">
<path d="M4 137.255C1.79086 137.255 0 135.464 0 133.255V4.00001C0 1.79087 1.79086 0 4 0H46.0247C47.8914 0 49.51 1.29121 49.9247 3.1113L76.1227 118.081C76.3263 118.974 77.1207 119.608 78.0369 119.608C79.1212 119.608 80.0001 118.729 80.0001 117.645V4.00001C80.0001 1.79087 81.791 0 84.0001 0H101.49C103.699 0 105.49 1.79086 105.49 4V133.255C105.49 135.464 103.699 137.255 101.49 137.255H59.4657C57.5989 137.255 55.9804 135.964 55.5656 134.144L29.3676 19.1741C29.1641 18.2808 28.3697 17.6471 27.4535 17.6471C26.3692 17.6471 25.4902 18.5261 25.4902 19.6103V133.255C25.4902 135.464 23.6994 137.255 21.4902 137.255H4Z" fill="#F5F6F7"/>
<path d="M176.456 140C166.782 140 158.22 137.974 150.769 133.922C143.449 129.739 137.697 123.922 133.514 116.471C129.462 108.889 127.436 100 127.436 89.8041V87.4511C127.436 77.255 129.462 68.4315 133.514 60.9805C137.567 53.3988 143.253 47.5818 150.573 43.5295C157.893 39.3465 166.39 37.255 176.063 37.255C185.606 37.255 193.907 39.4118 200.965 43.7256C208.024 47.9086 213.514 53.7909 217.436 61.3726C221.358 68.8236 223.318 77.5165 223.318 87.4511V91.8825C223.318 94.0916 221.527 95.8825 219.318 95.8825H156.694C154.423 95.8825 152.569 97.7839 153.011 100.011C153.966 104.825 156.291 108.874 159.985 112.157C164.691 116.34 170.442 118.432 177.24 118.432C184.168 118.432 189.266 116.928 192.534 113.922C194.676 111.951 196.481 109.84 197.949 107.589C199.197 105.675 201.679 104.81 203.703 105.871L216.599 112.632C218.571 113.666 219.325 116.117 218.097 117.974C216.494 120.398 214.509 122.969 212.142 125.686C208.743 129.608 204.168 133.007 198.416 135.883C192.665 138.628 185.344 140 176.456 140ZM153.885 72.8977C153.058 75.2204 154.968 77.4511 157.434 77.4511H193.831C196.186 77.4511 198.075 75.4033 197.411 73.1433C196.334 69.4771 194.316 66.4032 191.358 63.9217C187.436 60.523 182.273 58.8236 175.867 58.8236C169.201 58.8236 163.906 60.523 159.985 63.9217C157.186 66.3476 155.153 69.3396 153.885 72.8977Z" fill="#F5F6F7"/>
<path d="M282.367 138.824C274.785 138.824 268.119 137.124 262.367 133.726C256.746 130.196 252.367 125.36 249.23 119.216C246.093 113.072 244.524 106.013 244.524 98.0394V44.0001C244.524 41.7909 246.315 40.0001 248.524 40.0001H265.23C267.439 40.0001 269.23 41.7909 269.23 44.0001V96.0786C269.23 103.399 270.995 108.889 274.524 112.549C278.184 116.209 283.348 118.039 290.014 118.039C297.596 118.039 303.478 115.556 307.661 110.588C311.844 105.49 313.936 98.4315 313.936 89.4119V44.0001C313.936 41.7909 315.727 40.0001 317.936 40.0001H334.642C336.851 40.0001 338.642 41.7909 338.642 44.0001V133.255C338.642 135.464 336.851 137.255 334.642 137.255H318.328C316.119 137.255 314.328 135.464 314.328 133.255V126.676C314.328 125.48 313.358 124.51 312.162 124.51C311.329 124.51 310.579 124.994 310.158 125.712C308.486 128.565 305.758 131.366 301.975 134.118C297.661 137.255 291.125 138.824 282.367 138.824Z" fill="#F5F6F7"/>
<path d="M370.134 137.255C367.925 137.255 366.134 135.464 366.134 133.255V44.0001C366.134 41.7909 367.925 40.0001 370.134 40.0001H386.448C388.657 40.0001 390.448 41.7909 390.448 44.0001V48.9024C390.448 50.0501 391.378 50.9805 392.526 50.9805C393.398 50.9805 394.167 50.4312 394.524 49.6362C395.983 46.3949 398.154 43.9672 401.036 42.353C404.435 40.5229 408.356 39.6079 412.801 39.6079H420.566C422.775 39.6079 424.566 41.3988 424.566 43.6079V57.5687C424.566 59.7779 422.775 61.5687 420.566 61.5687H412.409C406.134 61.5687 400.971 63.2681 396.918 66.6668C392.866 69.9348 390.84 75.0328 390.84 81.9609V133.255C390.84 135.464 389.049 137.255 386.84 137.255H370.134Z" fill="#F5F6F7"/>
<path d="M479.566 44.0002C479.566 41.7911 481.359 39.9836 483.561 40.1601C490.069 40.6819 496.425 42.4743 502.265 45.4499C508.105 48.4255 513.291 52.5141 517.538 57.4723C518.976 59.15 518.568 61.6636 516.78 62.9621L499.387 75.5995C498.493 76.2487 497.249 76.0438 496.523 75.2113C494.636 73.0482 492.349 71.2612 489.78 69.9526C484.563 67.2941 479.566 62.7532 479.566 56.8974V44.0002Z" fill="#29BF86"/>
<path d="M520.181 68.4045C522.132 67.3674 524.57 68.1026 525.448 70.1298C526.469 72.4886 527.307 74.9228 527.955 77.4105C528.511 79.5485 527.042 81.6288 524.867 82.0124L503.693 85.7458C502.606 85.9376 501.577 85.208 501.289 84.1415C501.023 83.1536 500.689 82.1849 500.291 81.2424C499.861 80.2249 500.223 79.0167 501.198 78.4982L520.181 68.4045Z" fill="#29BF86"/>
<path d="M462.334 132.651C461.506 134.699 459.166 135.703 457.19 134.714C451.352 131.793 446.13 127.75 441.83 122.803C437.53 117.857 434.253 112.123 432.173 105.935C431.469 103.841 432.788 101.663 434.932 101.129L455.793 95.9273C456.865 95.6601 457.942 96.3162 458.303 97.36C459.242 100.072 460.694 102.586 462.585 104.762C464.476 106.937 466.763 108.724 469.318 110.031C470.302 110.534 470.802 111.692 470.388 112.716L462.334 132.651Z" fill="#F5F6F7"/>
<path d="M525.538 88.3949C527.745 88.3178 529.614 90.0473 529.515 92.2542C529.22 98.7761 527.651 105.191 524.881 111.131C522.111 117.071 518.206 122.397 513.399 126.815C511.772 128.31 509.246 127.99 507.886 126.249L499.946 116.086C496.341 111.471 497.483 104.816 499.958 99.5091C501.176 96.8967 501.878 94.0803 502.033 91.2143C502.092 90.1113 502.947 89.1837 504.051 89.1452L525.538 88.3949Z" fill="#29BF86"/>
<path d="M482.774 135.888C482.928 138.092 481.265 140.02 479.056 139.998C476.486 139.971 473.921 139.747 471.385 139.326C469.206 138.965 467.903 136.777 468.437 134.634L473.638 113.772C473.906 112.701 474.991 112.058 476.082 112.229C477.093 112.387 478.113 112.477 479.136 112.496C480.241 112.517 481.198 113.339 481.275 114.441L482.774 135.888Z" fill="#F5F6F7"/>
<path d="M447.611 56.9106C446.077 55.3215 446.111 52.7753 447.818 51.3726C449.804 49.7404 451.913 48.2638 454.126 46.9559C456.028 45.8319 458.432 46.6701 459.401 48.6557L468.825 67.9798C469.31 68.9725 468.892 70.1623 467.946 70.7328C467.07 71.2612 466.231 71.8488 465.434 72.4915C464.575 73.1852 463.314 73.171 462.546 72.3764L447.611 56.9106Z" fill="#F5F6F7"/>
<path d="M465.351 46.2516C464.668 44.1506 465.815 41.8773 467.964 41.3647C468.289 41.2874 468.614 41.2133 468.939 41.1424C471.098 40.6729 473.117 42.2243 473.413 44.4136L476.075 64.1347C476.34 66.1051 474.945 67.8902 473.042 68.4666C472.804 68.5387 472.55 68.4098 472.474 68.1735L465.351 46.2516Z" fill="#F5F6F7"/>
<path d="M436.34 74.2673C434.264 73.5117 433.179 71.208 434.098 69.1991C435.167 66.8616 436.415 64.6099 437.831 62.4643C439.048 60.6203 441.576 60.3197 443.317 61.6798L460.259 74.9165C461.13 75.5965 461.276 76.8491 460.676 77.7765C460.12 78.6355 459.623 79.5315 459.189 80.4582C458.721 81.4585 457.581 81.9985 456.543 81.6207L436.34 74.2673Z" fill="#F5F6F7"/>
<path d="M433.818 94.8085C431.621 95.0394 429.635 93.4445 429.581 91.2361C429.517 88.6663 429.652 86.0954 429.984 83.5463C430.269 81.3557 432.41 79.977 434.571 80.4363L455.601 84.9064C456.681 85.136 457.362 86.1978 457.229 87.2944C457.106 88.3102 457.052 89.3333 457.068 90.3564C457.086 91.4608 456.298 92.4457 455.2 92.5612L433.818 94.8085Z" fill="#F5F6F7"/>
<path d="M502.566 129.837C503.67 131.751 503.021 134.213 501.025 135.161C498.703 136.264 496.3 137.187 493.836 137.92C491.719 138.551 489.589 137.156 489.13 134.995L484.407 112.777C484.317 112.352 484.589 111.937 485.01 111.832C488.377 110.992 492.222 111.922 493.957 114.927L502.566 129.837Z" fill="#F5F6F7"/>
<path d="M182.73 247L208.73 156H233.43L259.3 247H244.87L238.89 225.55H203.27L197.29 247H182.73ZM206.78 212.55H235.38L222.12 164.71H220.04L206.78 212.55Z" fill="#F5F6F7"/>
<path d="M301.789 248.82C295.635 248.82 290.045 247.52 285.019 244.92C280.079 242.32 276.135 238.55 273.189 233.61C270.329 228.67 268.899 222.734 268.899 215.8V214.11C268.899 207.177 270.329 201.284 273.189 196.43C276.135 191.49 280.079 187.72 285.019 185.12C290.045 182.434 295.635 181.09 301.789 181.09C307.942 181.09 313.185 182.217 317.519 184.47C321.852 186.724 325.319 189.714 327.919 193.44C330.605 197.167 332.339 201.284 333.119 205.79L320.119 208.52C319.685 205.66 318.775 203.06 317.389 200.72C316.002 198.38 314.052 196.517 311.539 195.13C309.025 193.744 305.862 193.05 302.049 193.05C298.322 193.05 294.942 193.917 291.909 195.65C288.962 197.297 286.622 199.724 284.889 202.93C283.155 206.05 282.289 209.864 282.289 214.37V215.54C282.289 220.047 283.155 223.904 284.889 227.11C286.622 230.317 288.962 232.744 291.909 234.39C294.942 236.037 298.322 236.86 302.049 236.86C307.682 236.86 311.972 235.43 314.919 232.57C317.865 229.624 319.729 225.897 320.509 221.39L333.509 224.38C332.469 228.8 330.605 232.874 327.919 236.6C325.319 240.327 321.852 243.317 317.519 245.57C313.185 247.737 307.942 248.82 301.789 248.82Z" fill="#F5F6F7"/>
<path d="M378.722 248.82C372.569 248.82 366.979 247.52 361.952 244.92C357.012 242.32 353.069 238.55 350.122 233.61C347.262 228.67 345.832 222.734 345.832 215.8V214.11C345.832 207.177 347.262 201.284 350.122 196.43C353.069 191.49 357.012 187.72 361.952 185.12C366.979 182.434 372.569 181.09 378.722 181.09C384.876 181.09 390.119 182.217 394.452 184.47C398.786 186.724 402.252 189.714 404.852 193.44C407.539 197.167 409.272 201.284 410.052 205.79L397.052 208.52C396.619 205.66 395.709 203.06 394.322 200.72C392.936 198.38 390.986 196.517 388.472 195.13C385.959 193.744 382.796 193.05 378.982 193.05C375.256 193.05 371.876 193.917 368.842 195.65C365.896 197.297 363.556 199.724 361.822 202.93C360.089 206.05 359.222 209.864 359.222 214.37V215.54C359.222 220.047 360.089 223.904 361.822 227.11C363.556 230.317 365.896 232.744 368.842 234.39C371.876 236.037 375.256 236.86 378.982 236.86C384.616 236.86 388.906 235.43 391.852 232.57C394.799 229.624 396.662 225.897 397.442 221.39L410.442 224.38C409.402 228.8 407.539 232.874 404.852 236.6C402.252 240.327 398.786 243.317 394.452 245.57C390.119 247.737 384.876 248.82 378.722 248.82Z" fill="#F5F6F7"/>
<path d="M455.266 248.82C448.766 248.82 443.089 247.477 438.236 244.79C433.383 242.017 429.569 238.16 426.796 233.22C424.109 228.194 422.766 222.387 422.766 215.8V214.24C422.766 207.567 424.109 201.76 426.796 196.82C429.483 191.794 433.209 187.937 437.976 185.25C442.829 182.477 448.419 181.09 454.746 181.09C460.899 181.09 466.273 182.477 470.866 185.25C475.546 187.937 479.186 191.707 481.786 196.56C484.386 201.414 485.686 207.09 485.686 213.59V218.66H436.416C436.589 224.294 438.453 228.8 442.006 232.18C445.646 235.474 450.153 237.12 455.526 237.12C460.553 237.12 464.323 235.994 466.836 233.74C469.436 231.487 471.429 228.887 472.816 225.94L483.866 231.66C482.653 234.087 480.876 236.644 478.536 239.33C476.283 242.017 473.293 244.27 469.566 246.09C465.839 247.91 461.073 248.82 455.266 248.82ZM436.546 208.39H472.036C471.689 203.537 469.956 199.767 466.836 197.08C463.716 194.307 459.643 192.92 454.616 192.92C449.589 192.92 445.473 194.307 442.266 197.08C439.146 199.767 437.239 203.537 436.546 208.39Z" fill="#F5F6F7"/>
<path d="M528.064 248.82C519.917 248.82 513.157 247 507.784 243.36C502.411 239.72 499.117 234.217 497.904 226.85L510.384 223.86C511.077 227.414 512.247 230.23 513.894 232.31C515.541 234.39 517.577 235.864 520.004 236.73C522.517 237.597 525.204 238.03 528.064 238.03C532.31 238.03 535.56 237.207 537.814 235.56C540.154 233.914 541.324 231.79 541.324 229.19C541.324 226.59 540.241 224.684 538.074 223.47C535.907 222.257 532.701 221.26 528.454 220.48L524.034 219.7C519.701 218.92 515.757 217.794 512.204 216.32C508.651 214.847 505.834 212.81 503.754 210.21C501.674 207.61 500.634 204.274 500.634 200.2C500.634 194.134 502.887 189.454 507.394 186.16C511.9 182.78 517.88 181.09 525.334 181.09C532.527 181.09 538.421 182.737 543.014 186.03C547.694 189.237 550.727 193.614 552.114 199.16L539.634 202.67C538.854 198.77 537.207 196.04 534.694 194.48C532.181 192.834 529.06 192.01 525.334 192.01C521.694 192.01 518.834 192.704 516.754 194.09C514.674 195.39 513.634 197.254 513.634 199.68C513.634 202.28 514.63 204.187 516.624 205.4C518.704 206.614 521.477 207.524 524.944 208.13L529.494 208.91C534.087 209.69 538.29 210.774 542.104 212.16C545.917 213.547 548.907 215.54 551.074 218.14C553.327 220.74 554.454 224.207 554.454 228.54C554.454 234.954 552.07 239.937 547.304 243.49C542.537 247.044 536.124 248.82 528.064 248.82Z" fill="#F5F6F7"/>
<path d="M596.365 248.82C588.218 248.82 581.458 247 576.085 243.36C570.711 239.72 567.418 234.217 566.205 226.85L578.685 223.86C579.378 227.414 580.548 230.23 582.195 232.31C583.841 234.39 585.878 235.864 588.305 236.73C590.818 237.597 593.505 238.03 596.365 238.03C600.611 238.03 603.861 237.207 606.115 235.56C608.455 233.914 609.625 231.79 609.625 229.19C609.625 226.59 608.541 224.684 606.375 223.47C604.208 222.257 601.001 221.26 596.755 220.48L592.335 219.7C588.001 218.92 584.058 217.794 580.505 216.32C576.951 214.847 574.135 212.81 572.055 210.21C569.975 207.61 568.935 204.274 568.935 200.2C568.935 194.134 571.188 189.454 575.695 186.16C580.201 182.78 586.181 181.09 593.635 181.09C600.828 181.09 606.721 182.737 611.315 186.03C615.995 189.237 619.028 193.614 620.415 199.16L607.935 202.67C607.155 198.77 605.508 196.04 602.995 194.48C600.481 192.834 597.361 192.01 593.635 192.01C589.995 192.01 587.135 192.704 585.055 194.09C582.975 195.39 581.935 197.254 581.935 199.68C581.935 202.28 582.931 204.187 584.925 205.4C587.005 206.614 589.778 207.524 593.245 208.13L597.795 208.91C602.388 209.69 606.591 210.774 610.405 212.16C614.218 213.547 617.208 215.54 619.375 218.14C621.628 220.74 622.755 224.207 622.755 228.54C622.755 234.954 620.371 239.937 615.605 243.49C610.838 247.044 604.425 248.82 596.365 248.82Z" fill="#F5F6F7"/>
</svg>
