<svg width="233" height="110" viewBox="0 0 233 110" fill="none" xmlns="http://www.w3.org/2000/svg">
<path d="M0 50.397V0H18.1584L28.2142 43.9174H29.5164V0H38.9211V50.397H20.7628L10.7069 6.47961H9.40473V50.397H0Z" fill="#181F25"/>
<path d="M65.104 51.4049C61.5351 51.4049 58.376 50.6609 55.627 49.173C52.9261 47.6371 50.804 45.5013 49.2607 42.7654C47.7656 39.9816 47.018 36.7178 47.018 32.974V32.1101C47.018 28.3663 47.7656 25.1265 49.2607 22.3906C50.7558 19.6068 52.8538 17.4709 55.5546 15.983C58.2555 14.4471 61.3904 13.6792 64.9594 13.6792C68.4801 13.6792 71.5427 14.4711 74.1471 16.055C76.7514 17.5909 78.7771 19.7508 80.224 22.5346C81.6708 25.2705 82.3943 28.4623 82.3943 32.1101V35.2059H56.2781C56.3745 37.6537 57.2909 39.6456 59.0271 41.1815C60.7634 42.7174 62.8855 43.4854 65.3934 43.4854C67.9496 43.4854 69.8305 42.9334 71.0363 41.8295C72.242 40.7255 73.1583 39.5016 73.7853 38.1577L81.2368 42.0455C80.5616 43.2934 79.5729 44.6613 78.2707 46.1492C77.0167 47.5891 75.3287 48.8371 73.2066 49.893C71.0845 50.9009 68.3836 51.4049 65.104 51.4049ZM56.3504 28.4383H73.1342C72.9413 26.3744 72.0973 24.7185 70.6022 23.4706C69.1553 22.2227 67.2503 21.5987 64.887 21.5987C62.4273 21.5987 60.474 22.2227 59.0271 23.4706C57.5803 24.7185 56.688 26.3744 56.3504 28.4383Z" fill="#181F25"/>
<path d="M104.181 50.9729C101.383 50.9729 98.9236 50.349 96.8015 49.101C94.7276 47.8051 93.1119 46.0292 91.9544 43.7734C90.7969 41.5175 90.2182 38.9257 90.2182 35.9978V14.6871H99.3335V35.2779C99.3335 37.9657 99.9846 39.9816 101.287 41.3255C102.637 42.6694 104.542 43.3414 107.002 43.3414C109.799 43.3414 111.97 42.4294 113.513 40.6056C115.056 38.7337 115.828 36.1418 115.828 32.83V14.6871H124.943V50.397H115.973V45.7172H114.67C114.092 46.9172 113.007 48.0931 111.415 49.245C109.823 50.397 107.412 50.9729 104.181 50.9729Z" fill="#181F25"/>
<path d="M135.087 50.397V14.6871H144.057V18.7189H145.36C145.89 17.279 146.758 16.223 147.964 15.5511C149.218 14.8791 150.665 14.5431 152.305 14.5431H156.645V22.6066H152.16C149.845 22.6066 147.94 23.2306 146.445 24.4785C144.95 25.6785 144.202 27.5503 144.202 30.0942V50.397H135.087Z" fill="#181F25"/>
<path d="M176.933 15.0556C176.933 14.8523 177.098 14.6871 177.301 14.6912C178.215 14.7093 179.126 14.795 180.027 14.9475C180.228 14.9815 180.359 15.1749 180.321 15.3748L178.731 23.6687C178.693 23.8681 178.5 23.9981 178.299 23.9682C177.969 23.9189 177.635 23.8875 177.301 23.8742C177.098 23.8662 176.933 23.7021 176.933 23.4989V15.0556Z" fill="#3E776D"/>
<path d="M181.612 15.6676C181.665 15.4717 181.867 15.355 182.062 15.4112C184.431 16.0937 186.639 17.2422 188.555 18.7887C188.714 18.9169 188.733 19.1504 188.601 19.3058L183.124 25.7559C182.993 25.9104 182.762 25.9291 182.602 25.805C181.726 25.1262 180.735 24.6102 179.675 24.2819C179.481 24.2216 179.364 24.0201 179.417 23.8234L181.612 15.6676Z" fill="#3E776D"/>
<path d="M189.718 20.3231C189.862 20.1802 190.094 20.1799 190.235 20.3257C191.944 22.0957 193.279 24.189 194.161 26.4816C194.234 26.6717 194.135 26.8833 193.943 26.9521L185.957 29.8132C185.766 29.8816 185.557 29.7823 185.48 29.5945C185.063 28.572 184.464 27.6326 183.712 26.8216C183.574 26.672 183.573 26.4385 183.718 26.2946L189.718 20.3231Z" fill="#3E776D"/>
<path d="M195.013 33.0464C195.216 33.0464 195.381 33.2112 195.377 33.4144C195.328 35.8688 194.784 38.2885 193.779 40.5301C193.696 40.7151 193.477 40.7937 193.293 40.7077L185.614 37.1115C185.429 37.025 185.351 36.8053 185.43 36.6177C185.862 35.6016 186.105 34.5164 186.15 33.4143C186.158 33.2112 186.322 33.0464 186.525 33.0464H195.013Z" fill="#181F25"/>
<path d="M185.972 48.6259C186.074 48.8023 186.014 49.0285 185.835 49.1265C183.674 50.3111 181.297 51.0524 178.843 51.3066C178.641 51.3275 178.463 51.1768 178.446 50.9744L177.736 42.5607C177.719 42.358 177.87 42.1806 178.072 42.1556C179.173 42.0193 180.241 41.6862 181.224 41.1722C181.403 41.0783 181.627 41.1377 181.729 41.313L185.972 48.6259Z" fill="#181F25"/>
<path d="M164.148 45.7697C164.005 45.9126 163.772 45.9128 163.632 45.7671C161.923 43.997 160.587 41.9037 159.705 39.6111C159.632 39.421 159.732 39.2094 159.924 39.1407L167.909 36.2796C168.1 36.2111 168.31 36.3104 168.386 36.4982C168.803 37.5208 169.402 38.4601 170.154 39.2711C170.293 39.4207 170.293 39.6542 170.149 39.7981L164.148 45.7697Z" fill="#181F25"/>
<path d="M164.151 20.3256C164.006 20.1817 164.006 19.9474 164.154 19.8064C165.933 18.1058 168.036 16.7774 170.34 15.9C170.53 15.8279 170.74 15.9272 170.809 16.1179L173.683 24.0624C173.753 24.254 173.653 24.4647 173.464 24.541C172.436 24.9564 171.491 25.5531 170.676 26.3024C170.527 26.4395 170.295 26.44 170.151 26.2971L164.151 20.3256Z" fill="#181F25"/>
<path d="M172.255 15.6693C172.202 15.4727 172.318 15.2701 172.516 15.2216C173.403 15.0038 174.306 14.8519 175.216 14.7672C175.418 14.7484 175.594 14.901 175.609 15.1036L176.231 23.5243C176.246 23.7271 176.093 23.9029 175.891 23.9257C175.559 23.9633 175.229 24.0189 174.903 24.0922C174.705 24.1366 174.503 24.0211 174.451 23.8252L172.255 15.6693Z" fill="#181F25"/>
<path d="M158.854 33.0464C158.65 33.0464 158.485 32.8815 158.489 32.6783C158.539 30.2239 159.082 27.8043 160.088 25.5626C160.171 25.3776 160.39 25.2991 160.573 25.3851L168.253 28.9813C168.437 29.0677 168.516 29.2874 168.436 29.475C168.005 30.4911 167.761 31.5763 167.717 32.6784C167.709 32.8815 167.545 33.0464 167.341 33.0464L158.854 33.0464Z" fill="#181F25"/>
<path d="M194.398 28.3894C194.594 28.3371 194.796 28.4533 194.844 28.6502C195.063 29.5326 195.216 30.4299 195.301 31.3348C195.32 31.5373 195.167 31.7138 194.964 31.7286L186.499 32.3473C186.297 32.3621 186.121 32.2098 186.098 32.0079C186.06 31.6788 186.005 31.3519 185.932 31.0287C185.887 30.8301 186.003 30.628 186.199 30.5755L194.398 28.3894Z" fill="#3E776D"/>
<path d="M189.716 45.7672C189.86 45.911 189.861 46.1453 189.713 46.2863C189.054 46.9161 188.349 47.4964 187.604 48.0224C187.438 48.1392 187.21 48.0954 187.096 47.928L182.326 40.9438C182.211 40.7754 182.256 40.5462 182.42 40.4253C182.688 40.2277 182.946 40.0157 183.191 39.7904C183.34 39.6533 183.572 39.6527 183.715 39.7956L189.716 45.7672Z" fill="#181F25"/>
<path d="M167.893 48.6286C167.792 48.8039 167.567 48.8643 167.393 48.7599C166.611 48.2897 165.866 47.7623 165.162 47.1821C165.005 47.0523 164.988 46.8186 165.122 46.6646L170.666 40.2719C170.799 40.1188 171.03 40.1025 171.189 40.2283C171.45 40.4352 171.722 40.6279 172.005 40.8055C172.177 40.9141 172.238 41.1393 172.136 41.3157L167.893 48.6286Z" fill="#181F25"/>
<path d="M161.278 24.0511C161.101 23.9495 161.04 23.7234 161.146 23.5491C161.618 22.7712 162.148 22.0292 162.731 21.3294C162.861 21.1737 163.093 21.157 163.246 21.289L169.67 26.8074C169.825 26.9403 169.842 27.1732 169.714 27.3325C169.507 27.5922 169.314 27.8629 169.135 28.1434C169.027 28.3145 168.803 28.375 168.627 28.274L161.278 24.0511Z" fill="#181F25"/>
<path d="M159.469 37.7034C159.273 37.7557 159.071 37.6395 159.022 37.4425C158.804 36.5601 158.651 35.6628 158.566 34.758C158.547 34.5555 158.7 34.3789 158.902 34.3641L167.367 33.7455C167.57 33.7306 167.746 33.883 167.769 34.0848C167.806 34.414 167.862 34.7409 167.935 35.0641C167.98 35.2627 167.864 35.4648 167.667 35.5172L159.469 37.7034Z" fill="#181F25"/>
<path d="M172.254 50.4251C172.201 50.6211 172 50.7377 171.805 50.6816C170.927 50.4287 170.069 50.1114 169.239 49.732C169.053 49.6474 168.977 49.4262 169.066 49.2429L172.759 41.6406C172.847 41.4582 173.066 41.3826 173.252 41.4632C173.559 41.5959 173.872 41.712 174.191 41.8109C174.386 41.8711 174.503 42.0727 174.45 42.2693L172.254 50.4251Z" fill="#181F25"/>
<path d="M176.933 51.0372C176.933 51.2404 176.769 51.4056 176.565 51.4016C175.652 51.3834 174.74 51.2977 173.839 51.1452C173.639 51.1112 173.508 50.9178 173.546 50.7179L175.136 42.424C175.174 42.2247 175.366 42.0946 175.567 42.1246C175.898 42.1739 176.231 42.2052 176.565 42.2185C176.768 42.2266 176.933 42.3906 176.933 42.5939V51.0372Z" fill="#181F25"/>
<path d="M192.589 42.0417C192.766 42.1432 192.827 42.3694 192.721 42.5436C192.248 43.3216 191.718 44.0635 191.135 44.7633C191.006 44.919 190.774 44.9357 190.62 44.8037L184.196 39.2854C184.042 39.1525 184.025 38.9195 184.152 38.7602C184.36 38.5005 184.553 38.2299 184.731 37.9494C184.84 37.7783 185.063 37.7177 185.239 37.8187L192.589 42.0417Z" fill="#181F25"/>
<path d="M67.2565 98.4043L76.8262 64.9104H85.9174L95.4392 98.4043H90.1281L87.927 90.5093H74.8166L72.6155 98.4043H67.2565ZM76.1085 85.7245H86.6351L81.7546 68.1162H80.989L76.1085 85.7245ZM111.078 99.0742C108.813 99.0742 106.756 98.5957 104.905 97.6387C103.087 96.6818 101.636 95.2941 100.551 93.4759C99.4985 91.6577 98.9722 89.4726 98.9722 86.9207V86.2986C98.9722 83.7467 99.4985 81.5776 100.551 79.7913C101.636 77.973 103.087 76.5854 104.905 75.6284C106.756 74.6396 108.813 74.1451 111.078 74.1451C113.343 74.1451 115.273 74.5598 116.867 75.3892C118.462 76.2186 119.738 77.3191 120.695 78.6907C121.684 80.0624 122.322 81.5776 122.609 83.2363L117.824 84.2412C117.665 83.1885 117.33 82.2315 116.82 81.3703C116.309 80.509 115.592 79.8232 114.666 79.3128C113.741 78.8024 112.577 78.5472 111.174 78.5472C109.802 78.5472 108.558 78.8662 107.441 79.5042C106.357 80.1102 105.496 81.0034 104.858 82.1837C104.22 83.332 103.901 84.7356 103.901 86.3943V86.825C103.901 88.4837 104.22 89.9032 104.858 91.0835C105.496 92.2637 106.357 93.1569 107.441 93.763C108.558 94.3691 109.802 94.6721 111.174 94.6721C113.247 94.6721 114.826 94.1458 115.911 93.0931C116.995 92.0086 117.681 90.6369 117.968 88.9782L122.753 90.0787C122.37 91.7055 121.684 93.2048 120.695 94.5764C119.738 95.9481 118.462 97.0486 116.867 97.878C115.273 98.6754 113.343 99.0742 111.078 99.0742ZM139.394 99.0742C137.13 99.0742 135.072 98.5957 133.222 97.6387C131.404 96.6818 129.952 95.2941 128.868 93.4759C127.815 91.6577 127.289 89.4726 127.289 86.9207V86.2986C127.289 83.7467 127.815 81.5776 128.868 79.7913C129.952 77.973 131.404 76.5854 133.222 75.6284C135.072 74.6396 137.13 74.1451 139.394 74.1451C141.659 74.1451 143.589 74.5598 145.184 75.3892C146.779 76.2186 148.055 77.3191 149.012 78.6907C150.001 80.0624 150.639 81.5776 150.926 83.2363L146.141 84.2412C145.982 83.1885 145.647 82.2315 145.136 81.3703C144.626 80.509 143.908 79.8232 142.983 79.3128C142.058 78.8024 140.894 78.5472 139.49 78.5472C138.118 78.5472 136.874 78.8662 135.758 79.5042C134.673 80.1102 133.812 81.0034 133.174 82.1837C132.536 83.332 132.217 84.7356 132.217 86.3943V86.825C132.217 88.4837 132.536 89.9032 133.174 91.0835C133.812 92.2637 134.673 93.1569 135.758 93.763C136.874 94.3691 138.118 94.6721 139.49 94.6721C141.564 94.6721 143.143 94.1458 144.227 93.0931C145.312 92.0086 145.997 90.6369 146.285 88.9782L151.069 90.0787C150.687 91.7055 150.001 93.2048 149.012 94.5764C148.055 95.9481 146.779 97.0486 145.184 97.878C143.589 98.6754 141.659 99.0742 139.394 99.0742ZM167.567 99.0742C165.175 99.0742 163.086 98.5797 161.299 97.5909C159.513 96.5701 158.109 95.1506 157.089 93.3324C156.1 91.4822 155.605 89.345 155.605 86.9207V86.3465C155.605 83.8903 156.1 81.753 157.089 79.9348C158.077 78.0847 159.449 76.6652 161.204 75.6763C162.99 74.6555 165.047 74.1451 167.376 74.1451C169.641 74.1451 171.619 74.6555 173.309 75.6763C175.032 76.6652 176.371 78.0528 177.328 79.8391C178.285 81.6254 178.764 83.7148 178.764 86.1073V87.9733H160.629C160.693 90.0468 161.379 91.7055 162.687 92.9496C164.027 94.1617 165.685 94.7678 167.663 94.7678C169.513 94.7678 170.901 94.3531 171.826 93.5238C172.783 92.6944 173.517 91.7374 174.027 90.6529L178.094 92.7582C177.647 93.6514 176.994 94.5924 176.132 95.5812C175.303 96.5701 174.202 97.3995 172.831 98.0694C171.459 98.7392 169.705 99.0742 167.567 99.0742ZM160.677 84.1933H173.74C173.612 82.407 172.974 81.0194 171.826 80.0305C170.678 79.0097 169.178 78.4994 167.328 78.4994C165.478 78.4994 163.963 79.0097 162.783 80.0305C161.634 81.0194 160.932 82.407 160.677 84.1933ZM194.362 99.0742C191.363 99.0742 188.875 98.4043 186.897 97.0645C184.92 95.7248 183.708 93.6992 183.261 90.9878L187.854 89.8873C188.11 91.1951 188.54 92.2318 189.146 92.9974C189.752 93.763 190.502 94.3053 191.395 94.6243C192.32 94.9433 193.309 95.1028 194.362 95.1028C195.925 95.1028 197.121 94.7997 197.95 94.1936C198.812 93.5876 199.242 92.806 199.242 91.8491C199.242 90.8921 198.844 90.1903 198.046 89.7437C197.249 89.2971 196.068 88.9303 194.505 88.6432L192.878 88.3561C191.284 88.069 189.832 87.6544 188.524 87.1121C187.216 86.5698 186.18 85.8202 185.414 84.8632C184.649 83.9062 184.266 82.6781 184.266 81.1789C184.266 78.9459 185.095 77.2234 186.754 76.0112C188.413 74.7672 190.614 74.1451 193.357 74.1451C196.005 74.1451 198.174 74.7512 199.864 75.9634C201.587 77.1436 202.703 78.7545 203.214 80.7961L198.62 82.088C198.333 80.6525 197.727 79.6477 196.802 79.0735C195.877 78.4675 194.729 78.1644 193.357 78.1644C192.017 78.1644 190.965 78.4196 190.199 78.93C189.433 79.4085 189.051 80.0943 189.051 80.9875C189.051 81.9444 189.417 82.6462 190.151 83.0928C190.917 83.5394 191.937 83.8743 193.213 84.0976L194.888 84.3847C196.579 84.6718 198.126 85.0705 199.529 85.5809C200.933 86.0913 202.033 86.825 202.831 87.7819C203.66 88.7389 204.075 90.0149 204.075 91.6098C204.075 93.9703 203.198 95.8045 201.443 97.1124C199.689 98.4202 197.328 99.0742 194.362 99.0742ZM219.501 99.0742C216.502 99.0742 214.014 98.4043 212.037 97.0645C210.059 95.7248 208.847 93.6992 208.4 90.9878L212.993 89.8873C213.249 91.1951 213.679 92.2318 214.285 92.9974C214.891 93.763 215.641 94.3053 216.534 94.6243C217.459 94.9433 218.448 95.1028 219.501 95.1028C221.064 95.1028 222.26 94.7997 223.089 94.1936C223.951 93.5876 224.381 92.806 224.381 91.8491C224.381 90.8921 223.983 90.1903 223.185 89.7437C222.388 89.2971 221.207 88.9303 219.644 88.6432L218.018 88.3561C216.423 88.069 214.971 87.6544 213.663 87.1121C212.356 86.5698 211.319 85.8202 210.553 84.8632C209.788 83.9062 209.405 82.6781 209.405 81.1789C209.405 78.9459 210.234 77.2234 211.893 76.0112C213.552 74.7672 215.753 74.1451 218.496 74.1451C221.144 74.1451 223.313 74.7512 225.003 75.9634C226.726 77.1436 227.842 78.7545 228.353 80.7961L223.759 82.088C223.472 80.6525 222.866 79.6477 221.941 79.0735C221.016 78.4675 219.868 78.1644 218.496 78.1644C217.156 78.1644 216.104 78.4196 215.338 78.93C214.572 79.4085 214.19 80.0943 214.19 80.9875C214.19 81.9444 214.557 82.6462 215.29 83.0928C216.056 83.5394 217.077 83.8743 218.353 84.0976L220.027 84.3847C221.718 84.6718 223.265 85.0705 224.668 85.5809C226.072 86.0913 227.173 86.825 227.97 87.7819C228.799 88.7389 229.214 90.0149 229.214 91.6098C229.214 93.9703 228.337 95.8045 226.582 97.1124C224.828 98.4202 222.467 99.0742 219.501 99.0742Z" fill="#181F25"/>
</svg>
