<svg width="530" height="141" viewBox="0 0 530 141" fill="none" xmlns="http://www.w3.org/2000/svg">
<path d="M4 138.255C1.79087 138.255 0 136.464 0 134.255V5C0 2.79086 1.79086 1 4 1H46.0242C47.8909 1 49.5094 2.29122 49.9242 4.11131L76.1219 119.081C76.3255 119.974 77.1198 120.608 78.036 120.608C79.1203 120.608 79.9993 119.729 79.9993 118.645V5C79.9993 2.79086 81.7901 1 83.9993 1H101.489C103.698 1 105.489 2.79086 105.489 5V134.255C105.489 136.464 103.698 138.255 101.489 138.255H59.465C57.5983 138.255 55.9798 136.964 55.565 135.144L29.3673 20.1741C29.1637 19.2808 28.3694 18.6471 27.4532 18.6471C26.3689 18.6471 25.49 19.526 25.49 20.6103V134.255C25.49 136.464 23.6991 138.255 21.49 138.255H4Z" fill="#181F25"/>
<path d="M176.454 141C166.78 141 158.218 138.974 150.768 134.922C143.447 130.739 137.696 124.922 133.513 117.471C129.461 109.889 127.434 101 127.434 90.8039V88.451C127.434 78.2549 129.461 69.4314 133.513 61.9804C137.565 54.3987 143.251 48.5817 150.571 44.5294C157.892 40.3464 166.388 38.2549 176.061 38.2549C185.604 38.2549 193.904 40.4118 200.963 44.7255C208.022 48.9085 213.512 54.7908 217.434 62.3725C221.355 69.8235 223.316 78.5163 223.316 88.451V92.8823C223.316 95.0915 221.525 96.8823 219.316 96.8823H156.692C154.422 96.8823 152.567 98.7837 153.009 101.011C153.965 105.825 156.289 109.873 159.983 113.157C164.689 117.34 170.441 119.431 177.238 119.431C184.166 119.431 189.264 117.928 192.532 114.922C194.674 112.951 196.479 110.84 197.947 108.588C199.195 106.675 201.677 105.81 203.7 106.871L216.597 113.632C218.568 114.666 219.322 117.116 218.094 118.974C216.492 121.398 214.507 123.968 212.14 126.686C208.741 130.608 204.166 134.007 198.414 136.882C192.663 139.627 185.342 141 176.454 141ZM153.883 73.8975C153.056 76.2202 154.966 78.451 157.432 78.451H193.829C196.184 78.451 198.073 76.4032 197.409 74.1432C196.332 70.477 194.314 67.4031 191.355 64.9216C187.434 61.5229 182.271 59.8235 175.865 59.8235C169.199 59.8235 163.905 61.5229 159.983 64.9216C157.184 67.3475 155.151 70.3395 153.883 73.8975Z" fill="#181F25"/>
<path d="M282.364 139.824C274.782 139.824 268.116 138.124 262.364 134.725C256.743 131.196 252.364 126.359 249.227 120.216C246.09 114.072 244.521 107.013 244.521 99.0392V45C244.521 42.7909 246.312 41 248.521 41H265.227C267.436 41 269.227 42.7909 269.227 45V97.0784C269.227 104.399 270.992 109.889 274.521 113.549C278.181 117.209 283.344 119.039 290.011 119.039C297.593 119.039 303.475 116.556 307.658 111.588C311.841 106.49 313.932 99.4314 313.932 90.4118V45C313.932 42.7909 315.723 41 317.932 41H334.638C336.847 41 338.638 42.7909 338.638 45V134.255C338.638 136.464 336.847 138.255 334.638 138.255H318.325C316.115 138.255 314.325 136.464 314.325 134.255V127.676C314.325 126.48 313.355 125.51 312.158 125.51C311.325 125.51 310.576 125.994 310.154 126.712C308.483 129.564 305.755 132.366 301.972 135.118C297.658 138.255 291.122 139.824 282.364 139.824Z" fill="#181F25"/>
<path d="M370.13 138.255C367.921 138.255 366.13 136.464 366.13 134.255V45C366.13 42.7909 367.921 41 370.13 41H386.444C388.653 41 390.444 42.7909 390.444 45V49.9024C390.444 51.05 391.374 51.9804 392.522 51.9804C393.393 51.9804 394.162 51.4311 394.52 50.6361C395.979 47.3948 398.149 44.9671 401.032 43.3529C404.43 41.5229 408.352 40.6078 412.796 40.6078H420.561C422.77 40.6078 424.561 42.3987 424.561 44.6078V58.5686C424.561 60.7778 422.77 62.5686 420.561 62.5686H412.404C406.13 62.5686 400.966 64.268 396.914 67.6667C392.862 70.9346 390.836 76.0327 390.836 82.9608V134.255C390.836 136.464 389.045 138.255 386.836 138.255H370.13Z" fill="#181F25"/>
<path d="M479.561 45C479.561 42.7909 481.355 40.9834 483.557 41.1599C490.064 41.6816 496.42 43.4741 502.26 46.4497C508.1 49.4253 513.286 53.5139 517.534 58.472C518.971 60.1498 518.563 62.6634 516.776 63.9619L499.382 76.5993C498.488 77.2485 497.244 77.0436 496.518 76.2111C494.631 74.048 492.344 72.261 489.776 70.9524C484.558 68.2939 479.561 63.753 479.561 57.8972V45Z" fill="#29BF86"/>
<path d="M520.177 69.4043C522.127 68.3672 524.565 69.1023 525.443 71.1295C526.465 73.4884 527.303 75.9226 527.95 78.4103C528.506 80.5483 527.038 82.6286 524.862 83.0122L507.907 86.0019C504.489 86.6044 501.305 84.2566 499.784 81.1376C499.594 80.7478 499.738 80.2718 500.121 80.0682L520.177 69.4043Z" fill="#29BF86"/>
<path d="M462.329 133.65C461.501 135.699 459.161 136.703 457.186 135.714C451.347 132.793 446.125 128.75 441.825 123.803C437.525 118.856 434.249 113.123 432.168 106.935C431.464 104.841 432.784 102.663 434.927 102.128L447.441 99.0083C453.123 97.5917 458.738 101.342 462.58 105.761C464.471 107.937 466.758 109.724 469.314 111.031C470.297 111.534 470.797 112.692 470.383 113.716L462.329 133.65Z" fill="#8F40D4"/>
<path d="M525.533 89.3946C527.741 89.3175 529.61 91.0471 529.51 93.254C529.216 99.7759 527.646 106.191 524.876 112.131C522.106 118.071 518.201 123.397 513.394 127.814C511.768 129.309 509.241 128.989 507.881 127.248L494.645 110.306C493.965 109.436 494.126 108.185 494.933 107.431C497.029 105.47 498.735 103.121 499.953 100.509C502.428 95.2018 506.791 90.0491 512.644 89.8447L525.533 89.3946Z" fill="#4995F2"/>
<path d="M482.77 136.888C482.924 139.092 481.261 141.02 479.052 140.997C476.481 140.971 473.917 140.747 471.381 140.326C469.201 139.965 467.898 137.777 468.432 135.634L473.928 113.594C474.033 113.173 474.46 112.918 474.884 113.009C478.278 113.73 481.327 116.251 481.569 119.713L482.77 136.888Z" fill="#8F40D4"/>
<path d="M447.607 57.9104C446.072 56.3212 446.107 53.7751 447.813 52.3724C449.799 50.7402 451.908 49.2636 454.121 47.9557C456.023 46.8317 458.427 47.6699 459.396 49.6555L468.821 68.9795C469.305 69.9723 468.887 71.1621 467.941 71.7326C467.065 72.261 466.226 72.8486 465.43 73.4913C464.57 74.185 463.309 74.1707 462.542 73.3762L447.607 57.9104Z" fill="#FFBB00"/>
<path d="M465.346 47.2514C464.663 45.1504 465.811 42.8771 467.96 42.3645C468.284 42.2872 468.609 42.2131 468.935 42.1422C471.093 41.6727 473.113 43.2241 473.408 45.4133L476.07 65.1345C476.336 67.1049 474.94 68.89 473.038 69.4664C472.8 69.5385 472.546 69.4096 472.469 69.1732L465.346 47.2514Z" fill="#FFBB00"/>
<path d="M436.335 75.2671C434.259 74.5115 433.174 72.2078 434.093 70.1989C435.163 67.8613 436.411 65.6097 437.826 63.4641C439.043 61.6201 441.572 61.3195 443.312 62.6796L460.255 75.9163C461.125 76.5963 461.271 77.8489 460.671 78.7763C460.115 79.6353 459.618 80.5313 459.184 81.458C458.716 82.4583 457.576 82.9983 456.538 82.6205L436.335 75.2671Z" fill="#FFBB00"/>
<path d="M433.813 95.8083C431.616 96.0392 429.631 94.4443 429.576 92.2358C429.513 89.6661 429.647 87.0952 429.979 84.5461C430.264 82.3554 432.405 80.9768 434.566 81.4361L456.784 86.1587C457.209 86.2489 457.478 86.6668 457.403 87.094C456.8 90.5114 454.387 93.6459 450.935 94.0087L433.813 95.8083Z" fill="#FFBB00"/>
<path d="M502.561 130.837C503.665 132.75 503.016 135.213 501.021 136.161C498.699 137.264 496.295 138.187 493.832 138.92C491.714 139.551 489.584 138.156 489.125 135.995L485.545 119.154C484.824 115.76 487.059 112.496 490.123 110.867C490.506 110.663 490.987 110.79 491.204 111.166L502.561 130.837Z" fill="#4995F2"/>
</svg>
