<svg width="233" height="110" viewBox="0 0 233 110" fill="none" xmlns="http://www.w3.org/2000/svg">
<path d="M0.5 50.397V0H18.6584L28.7142 43.9174H30.0164V0H39.4211V50.397H21.2628L11.2069 6.47961H9.90473V50.397H0.5Z" fill="white" fill-opacity="0.9"/>
<path d="M65.604 51.4049C62.0351 51.4049 58.876 50.6609 56.127 49.173C53.4261 47.6371 51.304 45.5013 49.7607 42.7654C48.2656 39.9816 47.518 36.7178 47.518 32.974V32.1101C47.518 28.3663 48.2656 25.1265 49.7607 22.3906C51.2558 19.6068 53.3538 17.4709 56.0546 15.983C58.7555 14.4471 61.8904 13.6792 65.4593 13.6792C68.9801 13.6792 72.0427 14.4711 74.647 16.055C77.2514 17.5909 79.2771 19.7508 80.7239 22.5346C82.1708 25.2705 82.8943 28.4623 82.8943 32.1101V35.2059H56.778C56.8745 37.6537 57.7909 39.6456 59.5271 41.1815C61.2634 42.7174 63.3855 43.4854 65.8934 43.4854C68.4496 43.4854 70.3305 42.9334 71.5362 41.8295C72.742 40.7255 73.6583 39.5016 74.2853 38.1577L81.7368 42.0455C81.0615 43.2934 80.0729 44.6613 78.7707 46.1492C77.5167 47.5891 75.8287 48.8371 73.7066 49.893C71.5845 50.9009 68.8836 51.4049 65.604 51.4049ZM56.8504 28.4383H73.6342C73.4413 26.3744 72.5973 24.7185 71.1022 23.4706C69.6553 22.2227 67.7502 21.5987 65.387 21.5987C62.9273 21.5987 60.974 22.2227 59.5271 23.4706C58.0802 24.7185 57.188 26.3744 56.8504 28.4383Z" fill="white" fill-opacity="0.9"/>
<path d="M104.681 50.9729C101.883 50.9729 99.4236 50.349 97.3015 49.101C95.2276 47.8051 93.6119 46.0292 92.4544 43.7734C91.2969 41.5175 90.7182 38.9257 90.7182 35.9978V14.6871H99.8335V35.2779C99.8335 37.9657 100.485 39.9816 101.787 41.3255C103.137 42.6694 105.042 43.3414 107.502 43.3414C110.299 43.3414 112.47 42.4294 114.013 40.6056C115.556 38.7337 116.328 36.1418 116.328 32.83V14.6871H125.443V50.397H116.473V45.7172H115.17C114.592 46.9172 113.507 48.0931 111.915 49.245C110.323 50.397 107.912 50.9729 104.681 50.9729Z" fill="white" fill-opacity="0.9"/>
<path d="M135.587 50.397V14.6871H144.557V18.7189H145.86C146.39 17.279 147.258 16.223 148.464 15.5511C149.718 14.8791 151.165 14.5431 152.805 14.5431H157.145V22.6066H152.66C150.345 22.6066 148.44 23.2306 146.945 24.4785C145.45 25.6785 144.702 27.5503 144.702 30.0942V50.397H135.587Z" fill="white" fill-opacity="0.9"/>
<path d="M177.434 15.0556C177.434 14.8523 177.598 14.6871 177.802 14.6912C178.715 14.7093 179.626 14.795 180.527 14.9475C180.728 14.9815 180.859 15.1749 180.821 15.3748L179.231 23.6687C179.193 23.8681 179.001 23.9981 178.8 23.9682C178.469 23.9189 178.136 23.8875 177.802 23.8742C177.598 23.8662 177.434 23.7021 177.434 23.4989V15.0556Z" fill="#50998C"/>
<path d="M182.113 15.6676C182.165 15.4717 182.367 15.355 182.562 15.4112C184.932 16.0937 187.14 17.2422 189.055 18.7887C189.214 18.9169 189.233 19.1504 189.101 19.3058L183.624 25.7559C183.493 25.9104 183.262 25.9291 183.102 25.805C182.227 25.1262 181.235 24.6102 180.175 24.2819C179.981 24.2216 179.864 24.0201 179.917 23.8234L182.113 15.6676Z" fill="#50998C"/>
<path d="M190.218 20.3231C190.362 20.1802 190.594 20.1799 190.735 20.3257C192.444 22.0957 193.78 24.189 194.662 26.4816C194.735 26.6717 194.635 26.8833 194.443 26.9521L186.458 29.8132C186.267 29.8816 186.057 29.7823 185.98 29.5945C185.563 28.572 184.965 27.6326 184.213 26.8216C184.074 26.672 184.073 26.4385 184.218 26.2946L190.218 20.3231Z" fill="#50998C"/>
<path d="M195.513 33.0464C195.716 33.0464 195.882 33.2112 195.878 33.4144C195.828 35.8688 195.285 38.2885 194.279 40.5301C194.196 40.7151 193.977 40.7937 193.793 40.7077L186.114 37.1115C185.93 37.025 185.851 36.8053 185.931 36.6177C186.362 35.6016 186.606 34.5164 186.65 33.4143C186.658 33.2112 186.822 33.0464 187.025 33.0464H195.513Z" fill="white" fill-opacity="0.9"/>
<path d="M186.472 48.6259C186.574 48.8023 186.514 49.0285 186.335 49.1265C184.174 50.3111 181.797 51.0524 179.343 51.3066C179.141 51.3275 178.963 51.1768 178.946 50.9744L178.236 42.5607C178.219 42.358 178.37 42.1806 178.572 42.1556C179.673 42.0193 180.741 41.6862 181.724 41.1722C181.904 41.0783 182.128 41.1377 182.229 41.313L186.472 48.6259Z" fill="white" fill-opacity="0.9"/>
<path d="M164.649 45.7697C164.505 45.9126 164.273 45.9128 164.132 45.7671C162.423 43.997 161.088 41.9037 160.206 39.6111C160.132 39.421 160.232 39.2094 160.424 39.1407L168.41 36.2796C168.601 36.2111 168.81 36.3104 168.887 36.4982C169.304 37.5208 169.903 38.4601 170.654 39.2711C170.793 39.4207 170.794 39.6542 170.649 39.7981L164.649 45.7697Z" fill="white" fill-opacity="0.9"/>
<path d="M164.651 20.3256C164.507 20.1817 164.506 19.9474 164.654 19.8064C166.433 18.1058 168.537 16.7774 170.84 15.9C171.03 15.8279 171.24 15.9272 171.309 16.1179L174.183 24.0624C174.253 24.254 174.153 24.4647 173.964 24.541C172.936 24.9564 171.991 25.5531 171.176 26.3024C171.027 26.4395 170.795 26.44 170.652 26.2971L164.651 20.3256Z" fill="white" fill-opacity="0.9"/>
<path d="M172.755 15.6693C172.702 15.4727 172.819 15.2701 173.016 15.2216C173.904 15.0038 174.806 14.8519 175.716 14.7672C175.918 14.7484 176.095 14.901 176.11 15.1036L176.731 23.5243C176.746 23.7271 176.593 23.9029 176.391 23.9257C176.059 23.9633 175.729 24.0189 175.403 24.0922C175.205 24.1366 175.004 24.0211 174.951 23.8252L172.755 15.6693Z" fill="white" fill-opacity="0.9"/>
<path d="M159.354 33.0464C159.151 33.0464 158.985 32.8815 158.99 32.6783C159.039 30.2239 159.583 27.8043 160.588 25.5626C160.671 25.3776 160.89 25.2991 161.074 25.3851L168.753 28.9813C168.938 29.0677 169.016 29.2874 168.936 29.475C168.505 30.4911 168.262 31.5763 168.217 32.6784C168.209 32.8815 168.045 33.0464 167.842 33.0464L159.354 33.0464Z" fill="white" fill-opacity="0.9"/>
<path d="M194.898 28.3894C195.094 28.3371 195.296 28.4533 195.345 28.6502C195.563 29.5326 195.716 30.4299 195.801 31.3348C195.82 31.5373 195.667 31.7138 195.464 31.7286L186.999 32.3473C186.797 32.3621 186.621 32.2098 186.598 32.0079C186.561 31.6788 186.505 31.3519 186.432 31.0287C186.387 30.8301 186.503 30.628 186.7 30.5755L194.898 28.3894Z" fill="#50998C"/>
<path d="M190.216 45.7672C190.36 45.911 190.361 46.1453 190.213 46.2863C189.554 46.9161 188.849 47.4964 188.104 48.0224C187.939 48.1392 187.71 48.0954 187.596 47.928L182.827 40.9438C182.712 40.7754 182.756 40.5462 182.92 40.4253C183.188 40.2277 183.446 40.0157 183.691 39.7904C183.84 39.6533 184.072 39.6527 184.215 39.7956L190.216 45.7672Z" fill="white" fill-opacity="0.9"/>
<path d="M168.394 48.6286C168.292 48.8039 168.067 48.8643 167.894 48.7599C167.112 48.2897 166.366 47.7623 165.662 47.1821C165.505 47.0523 165.488 46.8186 165.622 46.6646L171.166 40.2719C171.299 40.1188 171.53 40.1025 171.689 40.2283C171.95 40.4352 172.223 40.6279 172.505 40.8055C172.677 40.9141 172.738 41.1393 172.636 41.3157L168.394 48.6286Z" fill="white" fill-opacity="0.9"/>
<path d="M161.778 24.0511C161.601 23.9495 161.54 23.7234 161.646 23.5491C162.119 22.7712 162.649 22.0292 163.231 21.3294C163.361 21.1737 163.593 21.157 163.747 21.289L170.171 26.8074C170.325 26.9403 170.342 27.1732 170.215 27.3325C170.007 27.5922 169.814 27.8629 169.636 28.1434C169.527 28.3145 169.303 28.375 169.128 28.274L161.778 24.0511Z" fill="white" fill-opacity="0.9"/>
<path d="M159.969 37.7034C159.773 37.7557 159.571 37.6395 159.523 37.4425C159.304 36.5601 159.151 35.6628 159.066 34.758C159.047 34.5555 159.2 34.3789 159.403 34.3641L167.868 33.7455C168.07 33.7306 168.246 33.883 168.269 34.0848C168.307 34.414 168.362 34.7409 168.435 35.0641C168.48 35.2627 168.364 35.4648 168.167 35.5172L159.969 37.7034Z" fill="white" fill-opacity="0.9"/>
<path d="M172.754 50.4251C172.702 50.6211 172.5 50.7377 172.305 50.6816C171.427 50.4287 170.57 50.1114 169.739 49.732C169.554 49.6474 169.477 49.4262 169.566 49.2429L173.259 41.6406C173.347 41.4582 173.567 41.3826 173.753 41.4632C174.059 41.5959 174.373 41.712 174.692 41.8109C174.886 41.8711 175.003 42.0727 174.95 42.2693L172.754 50.4251Z" fill="white" fill-opacity="0.9"/>
<path d="M177.434 51.0372C177.434 51.2404 177.269 51.4056 177.066 51.4016C176.152 51.3834 175.241 51.2977 174.34 51.1452C174.139 51.1112 174.008 50.9178 174.046 50.7179L175.636 42.424C175.674 42.2247 175.867 42.0946 176.067 42.1246C176.398 42.1739 176.731 42.2052 177.066 42.2185C177.269 42.2266 177.434 42.3906 177.434 42.5939V51.0372Z" fill="white" fill-opacity="0.9"/>
<path d="M193.089 42.0417C193.266 42.1432 193.327 42.3694 193.221 42.5436C192.749 43.3216 192.219 44.0635 191.636 44.7633C191.506 44.919 191.274 44.9357 191.121 44.8037L184.697 39.2854C184.542 39.1525 184.525 38.9195 184.653 38.7602C184.86 38.5005 185.053 38.2299 185.231 37.9494C185.34 37.7783 185.564 37.7177 185.739 37.8187L193.089 42.0417Z" fill="white" fill-opacity="0.9"/>
<path d="M67.7563 98.4043L77.326 64.9104H86.4172L95.939 98.4043H90.6278L88.4268 90.5093H75.3163L73.1153 98.4043H67.7563ZM76.6082 85.7245H87.1349L82.2544 68.1162H81.4888L76.6082 85.7245ZM111.578 99.0742C109.313 99.0742 107.255 98.5957 105.405 97.6387C103.587 96.6818 102.135 95.2941 101.051 93.4759C99.9983 91.6577 99.4719 89.4726 99.4719 86.9207V86.2986C99.4719 83.7467 99.9983 81.5776 101.051 79.7913C102.135 77.973 103.587 76.5854 105.405 75.6284C107.255 74.6396 109.313 74.1451 111.578 74.1451C113.842 74.1451 115.772 74.5598 117.367 75.3892C118.962 76.2186 120.238 77.3191 121.195 78.6907C122.184 80.0624 122.822 81.5776 123.109 83.2363L118.324 84.2412C118.165 83.1885 117.83 82.2315 117.319 81.3703C116.809 80.509 116.091 79.8232 115.166 79.3128C114.241 78.8024 113.077 78.5472 111.673 78.5472C110.302 78.5472 109.058 78.8662 107.941 79.5042C106.857 80.1103 105.995 81.0034 105.357 82.1837C104.719 83.332 104.4 84.7356 104.4 86.3943V86.825C104.4 88.4837 104.719 89.9032 105.357 91.0835C105.995 92.2637 106.857 93.1569 107.941 93.763C109.058 94.3691 110.302 94.6721 111.673 94.6721C113.747 94.6721 115.326 94.1458 116.41 93.0931C117.495 92.0086 118.181 90.6369 118.468 88.9782L123.253 90.0787C122.87 91.7055 122.184 93.2048 121.195 94.5764C120.238 95.9481 118.962 97.0486 117.367 97.878C115.772 98.6754 113.842 99.0742 111.578 99.0742ZM139.894 99.0742C137.629 99.0742 135.572 98.5957 133.722 97.6387C131.903 96.6818 130.452 95.2941 129.367 93.4759C128.315 91.6577 127.788 89.4726 127.788 86.9207V86.2986C127.788 83.7467 128.315 81.5776 129.367 79.7913C130.452 77.973 131.903 76.5854 133.722 75.6284C135.572 74.6396 137.629 74.1451 139.894 74.1451C142.159 74.1451 144.089 74.5598 145.684 75.3892C147.279 76.2186 148.555 77.3191 149.512 78.6907C150.501 80.0624 151.139 81.5776 151.426 83.2363L146.641 84.2412C146.481 83.1885 146.146 82.2315 145.636 81.3703C145.126 80.509 144.408 79.8232 143.483 79.3128C142.558 78.8024 141.393 78.5472 139.99 78.5472C138.618 78.5472 137.374 78.8662 136.258 79.5042C135.173 80.1103 134.312 81.0034 133.674 82.1837C133.036 83.332 132.717 84.7356 132.717 86.3943V86.825C132.717 88.4837 133.036 89.9032 133.674 91.0835C134.312 92.2637 135.173 93.1569 136.258 93.763C137.374 94.3691 138.618 94.6721 139.99 94.6721C142.063 94.6721 143.642 94.1458 144.727 93.0931C145.811 92.0086 146.497 90.6369 146.784 88.9782L151.569 90.0787C151.186 91.7055 150.501 93.2048 149.512 94.5764C148.555 95.9481 147.279 97.0486 145.684 97.878C144.089 98.6754 142.159 99.0742 139.894 99.0742ZM168.067 99.0742C165.675 99.0742 163.585 98.5797 161.799 97.5909C160.013 96.5701 158.609 95.1506 157.588 93.3324C156.599 91.4822 156.105 89.345 156.105 86.9207V86.3465C156.105 83.8903 156.599 81.753 157.588 79.9348C158.577 78.0847 159.949 76.6652 161.703 75.6763C163.49 74.6555 165.547 74.1451 167.876 74.1451C170.141 74.1451 172.118 74.6555 173.809 75.6763C175.531 76.6652 176.871 78.0528 177.828 79.8391C178.785 81.6255 179.264 83.7148 179.264 86.1073V87.9733H161.129C161.193 90.0468 161.879 91.7055 163.187 92.9496C164.526 94.1617 166.185 94.7678 168.163 94.7678C170.013 94.7678 171.401 94.3531 172.326 93.5238C173.283 92.6944 174.016 91.7374 174.527 90.6529L178.594 92.7582C178.147 93.6514 177.493 94.5924 176.632 95.5812C175.803 96.5701 174.702 97.3995 173.33 98.0694C171.959 98.7392 170.204 99.0742 168.067 99.0742ZM161.177 84.1933H174.24C174.112 82.407 173.474 81.0194 172.326 80.0305C171.177 79.0097 169.678 78.4994 167.828 78.4994C165.978 78.4994 164.463 79.0097 163.282 80.0305C162.134 81.0194 161.432 82.407 161.177 84.1933ZM194.862 99.0742C191.863 99.0742 189.375 98.4043 187.397 97.0645C185.419 95.7248 184.207 93.6992 183.761 90.9878L188.354 89.8873C188.609 91.1951 189.04 92.2319 189.646 92.9974C190.252 93.763 191.002 94.3053 191.895 94.6243C192.82 94.9433 193.809 95.1028 194.862 95.1028C196.425 95.1028 197.621 94.7997 198.45 94.1936C199.311 93.5876 199.742 92.806 199.742 91.8491C199.742 90.8921 199.343 90.1903 198.546 89.7437C197.748 89.2971 196.568 88.9303 195.005 88.6432L193.378 88.3561C191.783 88.069 190.332 87.6544 189.024 87.1121C187.716 86.5698 186.679 85.8202 185.914 84.8632C185.148 83.9062 184.765 82.6781 184.765 81.1789C184.765 78.9459 185.595 77.2234 187.254 76.0112C188.912 74.7672 191.113 74.1451 193.857 74.1451C196.504 74.1451 198.673 74.7512 200.364 75.9634C202.087 77.1436 203.203 78.7545 203.713 80.7961L199.12 82.088C198.833 80.6525 198.227 79.6477 197.302 79.0735C196.377 78.4675 195.228 78.1644 193.857 78.1644C192.517 78.1644 191.464 78.4196 190.699 78.93C189.933 79.4085 189.55 80.0943 189.55 80.9875C189.55 81.9444 189.917 82.6462 190.651 83.0928C191.416 83.5394 192.437 83.8743 193.713 84.0976L195.388 84.3847C197.078 84.6718 198.626 85.0705 200.029 85.5809C201.433 86.0913 202.533 86.825 203.331 87.7819C204.16 88.7389 204.575 90.0149 204.575 91.6098C204.575 93.9703 203.698 95.8045 201.943 97.1124C200.189 98.4202 197.828 99.0742 194.862 99.0742ZM220.001 99.0742C217.002 99.0742 214.514 98.4043 212.536 97.0645C210.559 95.7248 209.346 93.6992 208.9 90.9878L213.493 89.8873C213.748 91.1951 214.179 92.2319 214.785 92.9974C215.391 93.763 216.141 94.3053 217.034 94.6243C217.959 94.9433 218.948 95.1028 220.001 95.1028C221.564 95.1028 222.76 94.7997 223.589 94.1936C224.451 93.5876 224.881 92.806 224.881 91.8491C224.881 90.8921 224.482 90.1903 223.685 89.7437C222.887 89.2971 221.707 88.9303 220.144 88.6432L218.517 88.3561C216.922 88.069 215.471 87.6544 214.163 87.1121C212.855 86.5698 211.819 85.8202 211.053 84.8632C210.287 83.9062 209.905 82.6781 209.905 81.1789C209.905 78.9459 210.734 77.2234 212.393 76.0112C214.051 74.7672 216.252 74.1451 218.996 74.1451C221.643 74.1451 223.813 74.7512 225.503 75.9634C227.226 77.1436 228.342 78.7545 228.853 80.7961L224.259 82.088C223.972 80.6525 223.366 79.6477 222.441 79.0735C221.516 78.4675 220.367 78.1644 218.996 78.1644C217.656 78.1644 216.603 78.4196 215.838 78.93C215.072 79.4085 214.689 80.0943 214.689 80.9875C214.689 81.9444 215.056 82.6462 215.79 83.0928C216.556 83.5394 217.576 83.8743 218.852 84.0976L220.527 84.3847C222.218 84.6718 223.765 85.0705 225.168 85.5809C226.572 86.0913 227.672 86.825 228.47 87.7819C229.299 88.7389 229.714 90.0149 229.714 91.6098C229.714 93.9703 228.837 95.8045 227.082 97.1124C225.328 98.4202 222.967 99.0742 220.001 99.0742Z" fill="white" fill-opacity="0.9"/>
</svg>
