<svg width="19" height="18" viewBox="0 0 19 18" fill="none" xmlns="http://www.w3.org/2000/svg">
	<path d="M9.34962 0.178759C9.34962 0.0793283 9.43023 -0.00146427 9.52964 0.000524217C9.97533 0.00943923 10.4197 0.0514485 10.8592 0.126205C10.9572 0.14288 11.0213 0.237347 11.0026 0.335016L10.2267 4.40248C10.2081 4.50015 10.1139 4.56385 10.0155 4.54914C9.8545 4.52505 9.69229 4.50972 9.5296 4.50321C9.43025 4.49923 9.34962 4.419 9.34962 4.31957V0.178759Z" fill="white" fill-opacity="0.9"/>
	<path d="M11.6328 0.479352C11.6586 0.383309 11.7574 0.326137 11.8529 0.353787C13.0091 0.688516 14.0865 1.25175 15.0212 2.01015C15.0984 2.07279 15.1079 2.18654 15.0437 2.26249L12.371 5.42522C12.3068 5.50117 12.1934 5.5104 12.1149 5.44931C11.6879 5.11674 11.2043 4.86392 10.6875 4.70303C10.5925 4.67348 10.5354 4.57511 10.5611 4.47907L11.6328 0.479352Z" fill="white" fill-opacity="0.9"/>
	<path d="M15.5875 2.76258C15.6578 2.69227 15.772 2.69216 15.8409 2.76386C16.6748 3.63185 17.3262 4.65831 17.7565 5.78247C17.7921 5.87533 17.7434 5.97855 17.6498 6.01223L13.7538 7.41488C13.6603 7.44857 13.5575 7.39987 13.5201 7.30774C13.3165 6.80619 13.0241 6.34545 12.6569 5.9477C12.5895 5.87464 12.5892 5.76089 12.6595 5.69058L15.5875 2.76258Z" fill="white" fill-opacity="0.9"/>
	<path d="M18.1714 9.00049C18.2708 9.00049 18.3516 9.08111 18.3496 9.18052C18.3255 10.384 18.0603 11.5704 17.5697 12.6696C17.5292 12.7604 17.4217 12.7989 17.3318 12.7566L13.585 10.9935C13.4951 10.9512 13.4568 10.8441 13.4955 10.7525C13.7062 10.2539 13.8253 9.72134 13.8469 9.18048C13.8509 9.08113 13.9311 9.00049 14.0305 9.00049H18.1714Z" fill="white" fill-opacity="0.9"/>
	<path d="M13.7605 16.6403C13.8102 16.7264 13.7808 16.8367 13.6937 16.8847C12.6394 17.4656 11.4793 17.8291 10.2821 17.9538C10.1832 17.9641 10.0961 17.8904 10.0878 17.7913L9.7413 13.665C9.73298 13.5659 9.80663 13.4792 9.9053 13.4669C10.4424 13.4001 10.9632 13.2369 11.4424 12.9852C11.5304 12.939 11.6404 12.9682 11.6901 13.0543L13.7605 16.6403Z" fill="white" fill-opacity="0.9"/>
	<path d="M3.11171 15.2384C3.0414 15.3087 2.92726 15.3088 2.85837 15.2371C2.02442 14.3691 1.37301 13.3427 0.942701 12.2185C0.907156 12.1256 0.955861 12.0224 1.04941 11.9887L4.94543 10.5861C5.03898 10.5524 5.14178 10.6011 5.17918 10.6932C5.38275 11.1948 5.67514 11.6555 6.04228 12.0533C6.10972 12.1263 6.11001 12.2401 6.03971 12.3104L3.11171 15.2384Z" fill="white" fill-opacity="0.9"/>
	<path d="M3.11171 2.76258C3.0414 2.69228 3.04128 2.57814 3.11298 2.50925C3.98097 1.6753 5.00744 1.02388 6.1316 0.593579C6.22446 0.558034 6.32768 0.60674 6.36136 0.700292L7.76401 4.5963C7.79769 4.68985 7.749 4.79266 7.65687 4.83005C7.15532 5.03363 6.69458 5.32602 6.29683 5.69316C6.22376 5.7606 6.11001 5.76089 6.0397 5.69058L3.11171 2.76258Z" fill="white" fill-opacity="0.9"/>
	<path d="M7.06638 0.479352C7.04065 0.383309 7.0976 0.284405 7.19414 0.260597C7.62695 0.153855 8.0671 0.0794108 8.51093 0.0378784C8.60993 0.0286145 8.69625 0.103286 8.70353 0.20245L9.00679 4.33214C9.01408 4.43131 8.93953 4.51722 8.84074 4.52847C8.67897 4.54687 8.51832 4.57405 8.35949 4.60986C8.26249 4.63174 8.16384 4.57511 8.1381 4.47907L7.06638 0.479352Z" fill="white" fill-opacity="0.9"/>
	<path d="M0.52788 9.00049C0.428449 9.00049 0.347657 8.91986 0.349645 8.82045C0.373717 7.617 0.638919 6.43056 1.12954 5.33139C1.17007 5.24059 1.2775 5.20204 1.36747 5.24438L5.11419 7.00745C5.20416 7.04979 5.24242 7.15691 5.20371 7.2485C4.99301 7.7471 4.87398 8.27964 4.85233 8.8205C4.84835 8.91985 4.76813 9.00049 4.6687 9.00049H0.52788Z" fill="white" fill-opacity="0.9"/>
	<path d="M17.8708 6.71726C17.9668 6.69152 18.0657 6.74848 18.0895 6.84502C18.1963 7.27783 18.2707 7.71797 18.3122 8.16181C18.3215 8.26081 18.2468 8.34712 18.1477 8.3544L14.018 8.65767C13.9188 8.66495 13.8329 8.59041 13.8216 8.49161C13.8032 8.32984 13.7761 8.16919 13.7402 8.01036C13.7184 7.91337 13.775 7.81471 13.871 7.78898L17.8708 6.71726Z" fill="white" fill-opacity="0.9"/>
	<path d="M15.5875 15.2384C15.6578 15.3087 15.658 15.4228 15.5863 15.4917C15.2648 15.8006 14.9209 16.0851 14.5572 16.343C14.4761 16.4005 14.3641 16.379 14.3082 16.2968L11.9807 12.872C11.9248 12.7897 11.9464 12.6781 12.0263 12.6189C12.1572 12.5221 12.2828 12.4182 12.4024 12.3078C12.4755 12.2404 12.5892 12.2401 12.6595 12.3104L15.5875 15.2384Z" fill="white" fill-opacity="0.9"/>
	<path d="M4.93875 16.6403C4.88903 16.7264 4.77882 16.7561 4.69372 16.7047C4.3122 16.4741 3.94834 16.2155 3.60513 15.931C3.52857 15.8676 3.52034 15.7538 3.58531 15.6785L6.29101 12.5439C6.35598 12.4687 6.46944 12.4606 6.54725 12.5225C6.67465 12.6239 6.80746 12.7183 6.9451 12.8053C7.02915 12.8584 7.05887 12.9682 7.00916 13.0543L4.93875 16.6403Z" fill="white" fill-opacity="0.9"/>
	<path d="M1.70977 4.58962C1.62366 4.53991 1.594 4.4297 1.64542 4.3446C1.87599 3.96308 2.13458 3.59921 2.41905 3.256C2.4825 3.17945 2.59634 3.17122 2.67161 3.23619L5.80618 5.94188C5.88145 6.00685 5.88949 6.12031 5.82759 6.19812C5.72621 6.32553 5.63183 6.45834 5.54485 6.59597C5.49173 6.68003 5.38193 6.70974 5.29582 6.66003L1.70977 4.58962Z" fill="white" fill-opacity="0.9"/>
	<path d="M0.828474 11.2837C0.732431 11.3095 0.633527 11.2525 0.609718 11.156C0.502977 10.7232 0.428532 10.283 0.387 9.83917C0.377736 9.74017 0.452408 9.65386 0.551571 9.64658L4.68127 9.34331C4.78043 9.33603 4.86635 9.41057 4.87759 9.50937C4.896 9.67114 4.92317 9.83179 4.95899 9.99062C4.98086 10.0876 4.92424 10.1863 4.82819 10.212L0.828474 11.2837Z" fill="white" fill-opacity="0.9"/>
	<path d="M7.06638 17.5216C7.04065 17.6177 6.94187 17.6748 6.84636 17.6472C6.41817 17.5232 5.99977 17.3676 5.59463 17.1817C5.50426 17.1402 5.46685 17.0324 5.51012 16.9429L7.31233 13.2148C7.35561 13.1253 7.46312 13.0882 7.5543 13.1278C7.7036 13.1928 7.85632 13.2496 8.01178 13.2979C8.10671 13.3275 8.16384 13.4259 8.1381 13.5219L7.06638 17.5216Z" fill="white" fill-opacity="0.9"/>
	<path d="M9.34962 17.8222C9.34962 17.9216 9.269 18.0024 9.16959 18.0005C8.7239 17.9915 8.27949 17.9495 7.84002 17.8748C7.742 17.8581 7.67795 17.7636 7.69659 17.666L8.4725 13.5985C8.49113 13.5008 8.58537 13.4371 8.68371 13.4518C8.84473 13.4759 9.00694 13.4913 9.16963 13.4978C9.26898 13.5017 9.34962 13.582 9.34962 13.6814L9.34962 17.8222Z" fill="white" fill-opacity="0.9"/>
	<path d="M16.9895 13.4114C17.0756 13.4611 17.1052 13.5713 17.0538 13.6564C16.8232 14.0379 16.5647 14.4018 16.2802 14.745C16.2167 14.8215 16.1029 14.8298 16.0276 14.7648L12.893 12.0591C12.8178 11.9941 12.8097 11.8807 12.8716 11.8029C12.973 11.6754 13.0674 11.5426 13.1544 11.405C13.2075 11.321 13.3173 11.2912 13.4034 11.3409L16.9895 13.4114Z" fill="white" fill-opacity="0.9"/>
</svg>
