<svg width="500" height="501" viewBox="0 0 500 501" fill="none" xmlns="http://www.w3.org/2000/svg">
<path d="M250 5.5C250 2.73858 252.239 0.494774 255 0.549999C267.378 0.797589 279.72 1.96429 291.925 4.04046C294.647 4.50354 296.426 7.12712 295.908 9.83963L274.36 122.803C273.842 125.515 271.225 127.284 268.494 126.876C264.022 126.207 259.517 125.781 254.999 125.6C252.239 125.49 250 123.261 250 120.5L250 5.5Z" fill="#3E776D"/>
<path d="M313.411 13.8482C314.125 11.1808 316.869 9.59302 319.521 10.3609C351.632 19.6571 381.554 35.2996 407.513 56.3619C409.658 58.1018 409.92 61.2608 408.137 63.37L333.91 151.207C332.127 153.316 328.978 153.572 326.8 151.875C314.939 142.639 301.508 135.618 287.155 131.15C284.518 130.329 282.932 127.597 283.646 124.93L313.411 13.8482Z" fill="#3E776D"/>
<path d="M423.241 77.2588C425.194 75.3062 428.364 75.3029 430.277 77.2942C453.438 101.4 471.529 129.908 483.479 161.128C484.467 163.707 483.114 166.574 480.516 167.509L372.315 206.464C369.716 207.399 366.861 206.047 365.823 203.488C360.169 189.559 352.049 176.763 341.852 165.717C339.979 163.688 339.971 160.529 341.924 158.576L423.241 77.2588Z" fill="#3E776D"/>
<path d="M495 250.5C497.761 250.5 500.005 252.739 499.95 255.5C499.281 288.923 491.916 321.873 478.29 352.399C477.165 354.921 474.181 355.992 471.683 354.816L367.628 305.851C365.129 304.676 364.066 301.7 365.141 299.157C370.993 285.31 374.299 270.52 374.9 255.499C375.01 252.74 377.239 250.5 380 250.5L495 250.5Z" fill="#181F25"/>
<path d="M372.5 462.676C373.881 465.068 373.063 468.13 370.645 469.463C341.366 485.595 309.147 495.692 275.898 499.155C273.151 499.441 270.732 497.392 270.501 494.641L260.878 380.044C260.647 377.292 262.692 374.885 265.433 374.544C280.35 372.688 294.812 368.156 308.121 361.166C310.566 359.882 313.619 360.692 315 363.083L372.5 462.676Z" fill="#181F25"/>
<path d="M76.7588 423.741C74.8062 425.694 71.6363 425.697 69.7231 423.706C46.5624 399.6 28.4711 371.092 16.5205 339.872C15.5334 337.293 16.886 334.426 19.4842 333.491L127.685 294.536C130.284 293.601 133.139 294.953 134.177 297.512C139.831 311.441 147.951 324.237 158.148 335.283C160.021 337.312 160.029 340.471 158.076 342.424L76.7588 423.741Z" fill="#181F25"/>
<path d="M76.7588 77.2589C74.8062 75.3062 74.8029 72.1363 76.7942 70.2231C100.9 47.0624 129.408 28.9711 160.628 17.0205C163.207 16.0333 166.074 17.386 167.009 19.9842L205.964 128.185C206.9 130.784 205.547 133.639 202.988 134.677C189.059 140.331 176.263 148.451 165.217 158.648C163.188 160.521 160.029 160.529 158.076 158.576L76.7588 77.2589Z" fill="#181F25"/>
<path d="M186.589 13.8482C185.875 11.1808 187.456 8.43404 190.138 7.77282C202.158 4.80836 214.381 2.74086 226.708 1.58741C229.457 1.33013 231.854 3.40394 232.057 6.15795L240.479 120.849C240.681 123.603 238.611 125.989 235.867 126.302C231.375 126.813 226.913 127.567 222.502 128.562C219.808 129.17 217.068 127.597 216.354 124.93L186.589 13.8482Z" fill="#181F25"/>
<path d="M5 250.5C2.23858 250.5 -0.00522357 248.261 0.05 245.5C0.71853 212.077 8.08379 179.127 21.7096 148.601C22.8352 146.079 25.8188 145.008 28.3174 146.184L132.372 195.149C134.871 196.324 135.934 199.3 134.859 201.843C129.007 215.69 125.701 230.48 125.1 245.501C124.99 248.26 122.761 250.5 120 250.5L5 250.5Z" fill="#181F25"/>
<path d="M486.652 187.089C489.319 186.375 492.066 187.956 492.727 190.638C495.692 202.658 497.759 214.881 498.913 227.208C499.17 229.957 497.096 232.354 494.342 232.557L379.651 240.979C376.897 241.181 374.511 239.111 374.199 236.367C373.687 231.875 372.933 227.413 371.938 223.002C371.33 220.308 372.903 217.568 375.57 216.854L486.652 187.089Z" fill="#3E776D"/>
<path d="M423.241 423.741C425.194 425.694 425.197 428.863 423.206 430.777C414.279 439.354 404.726 447.256 394.628 454.419C392.375 456.016 389.263 455.419 387.71 453.135L323.071 358.02C321.519 355.737 322.118 352.635 324.339 350.993C327.974 348.304 331.46 345.419 334.783 342.352C336.812 340.479 339.971 340.471 341.924 342.424L423.241 423.741Z" fill="#181F25"/>
<path d="M127.5 462.676C126.119 465.068 123.058 465.891 120.695 464.463C110.099 458.06 99.994 450.878 90.4622 442.978C88.3362 441.216 88.1076 438.054 89.9119 435.964L165.055 348.909C166.86 346.819 170.011 346.596 172.172 348.315C175.71 351.13 179.399 353.752 183.221 356.167C185.555 357.642 186.381 360.692 185 363.083L127.5 462.676Z" fill="#181F25"/>
<path d="M37.8238 128C35.4323 126.619 34.6085 123.559 36.0368 121.195C42.4401 110.599 49.6217 100.494 57.5222 90.9623C59.2844 88.8362 62.4458 88.6076 64.5362 90.4119L151.591 165.555C153.681 167.36 153.904 170.511 152.185 172.672C149.37 176.21 146.748 179.899 144.333 183.721C142.858 186.055 139.808 186.881 137.417 185.5L37.8238 128Z" fill="#181F25"/>
<path d="M13.3482 313.911C10.6809 314.625 7.93405 313.044 7.27283 310.363C4.30836 298.342 2.24087 286.119 1.08741 273.792C0.830136 271.043 2.90395 268.646 5.65795 268.443L120.349 260.021C123.103 259.819 125.489 261.889 125.802 264.633C126.313 269.125 127.067 273.587 128.062 277.998C128.67 280.692 127.097 283.432 124.43 284.146L13.3482 313.911Z" fill="#181F25"/>
<path d="M186.589 487.152C185.875 489.819 183.131 491.407 180.479 490.639C168.587 487.196 156.967 482.875 145.715 477.711C143.206 476.559 142.166 473.564 143.368 471.078L193.42 367.541C194.622 365.055 197.608 364.024 200.14 365.125C204.286 366.929 208.528 368.506 212.845 369.85C215.482 370.671 217.068 373.403 216.354 376.07L186.589 487.152Z" fill="#181F25"/>
<path d="M250 495.5C250 498.261 247.761 500.505 245 500.45C232.622 500.202 220.28 499.036 208.075 496.96C205.353 496.496 203.574 493.873 204.092 491.16L225.64 378.197C226.158 375.485 228.775 373.716 231.506 374.124C235.978 374.793 240.483 375.219 245.001 375.4C247.761 375.51 250 377.739 250 380.5L250 495.5Z" fill="#181F25"/>
<path d="M462.176 373C464.568 374.381 465.391 377.441 463.963 379.805C457.56 390.401 450.378 400.506 442.478 410.038C440.716 412.164 437.554 412.392 435.464 410.588L348.409 335.445C346.319 333.64 346.096 330.489 347.815 328.328C350.63 324.79 353.252 321.101 355.667 317.279C357.142 314.945 360.192 314.119 362.583 315.5L462.176 373Z" fill="#181F25"/>
</svg>
