<svg width="24" height="32" viewBox="0 0 24 32" fill="none" xmlns="http://www.w3.org/2000/svg">
<path d="M3 14.4927V4C3 3.44772 3.44772 3 4 3H20C20.5523 3 21 3.44772 21 4V14.4927C21 14.8058 20.8303 15.0943 20.5566 15.2464C19.9653 15.5748 19.9653 16.4252 20.5566 16.7536C20.8303 16.9057 21 17.1942 21 17.5073V28C21 28.5523 20.5523 29 20 29H4C3.44772 29 3 28.5523 3 28V17.5073C3 17.1942 3.16975 16.9057 3.44345 16.7536C4.03471 16.4252 4.03471 15.5748 3.44345 15.2464C3.16975 15.0943 3 14.8058 3 14.4927Z" stroke="#181F25" stroke-width="2"/>
<path d="M10 7H6V8.5H10V7Z" fill="#181F25"/>
<path d="M10 10H6V11.5H10V10Z" fill="#181F25"/>
<path d="M16 6C14.344 6 13 7.344 13 9C13 10.656 14.344 12 16 12C17.656 12 19 10.656 19 9C19 7.344 17.656 6 16 6ZM13.6 9C13.6 8.817 13.624 8.637 13.663 8.466L15.097 9.9V10.2C15.097 10.53 15.367 10.8 15.697 10.8V11.379C14.518 11.229 13.6 10.221 13.6 9ZM17.767 10.62C17.689 10.377 17.467 10.2 17.197 10.2H16.897V9.3C16.897 9.135 16.762 9 16.597 9H14.797V8.4H15.397C15.562 8.4 15.697 8.265 15.697 8.1V7.5H16.297C16.627 7.5 16.897 7.23 16.897 6.9V6.777C17.776 7.131 18.4 7.995 18.4 9C18.4 9.624 18.157 10.194 17.767 10.62Z" fill="#181F25"/>
<path d="M9 23C9.82843 23 10.5 22.3284 10.5 21.5C10.5 20.6716 9.82843 20 9 20C8.17157 20 7.5 20.6716 7.5 21.5C7.5 22.3284 8.17157 23 9 23Z" fill="#181F25"/>
<path d="M11.08 24.18C10.44 23.9 9.74 23.75 9 23.75C8.26 23.75 7.56 23.9 6.92 24.18C6.36 24.42 6 24.96 6 25.57V26H12V25.57C12 24.96 11.64 24.42 11.08 24.18Z" fill="#181F25"/>
<path d="M18 20H14V21.5H18V20Z" fill="#181F25"/>
<path d="M18 23H14V24.5H18V23Z" fill="#181F25"/>
<path d="M9 15.5H6V16.5H9V15.5Z" fill="#181F25"/>
<path d="M14 15.5H10V16.5H14V15.5Z" fill="#181F25"/>
<path d="M18 15.5H15V16.5H18V15.5Z" fill="#181F25"/>
</svg>
