<svg width="20" height="20" viewBox="0 0 20 20" fill="none" xmlns="http://www.w3.org/2000/svg">
	<path d="M17.4322 10.98C17.4722 10.66 17.5022 10.34 17.5022 10C17.5022 9.66 17.4722 9.34 17.4322 9.02L19.5422 7.37C19.7322 7.22 19.7822 6.95 19.6622 6.73L17.6622 3.27C17.5722 3.11 17.4022 3.02 17.2222 3.02C17.1622 3.02 17.1022 3.03 17.0522 3.05L14.5622 4.05C14.0422 3.65 13.4822 3.32 12.8722 3.07L12.4922 0.42C12.4622 0.18 12.2522 0 12.0022 0H8.00216C7.75216 0 7.54216 0.18 7.51216 0.42L7.13216 3.07C6.52216 3.32 5.96216 3.66 5.44216 4.05L2.95216 3.05C2.89216 3.03 2.83216 3.02 2.77216 3.02C2.60216 3.02 2.43216 3.11 2.34216 3.27L0.342159 6.73C0.212159 6.95 0.272159 7.22 0.462159 7.37L2.57216 9.02C2.53216 9.34 2.50216 9.67 2.50216 10C2.50216 10.33 2.53216 10.66 2.57216 10.98L0.462159 12.63C0.272159 12.78 0.222159 13.05 0.342159 13.27L2.34216 16.73C2.43216 16.89 2.60216 16.98 2.78216 16.98C2.84216 16.98 2.90216 16.97 2.95216 16.95L5.44216 15.95C5.96216 16.35 6.52216 16.68 7.13216 16.93L7.51216 19.58C7.54216 19.82 7.75216 20 8.00216 20H12.0022C12.2522 20 12.4622 19.82 12.4922 19.58L12.8722 16.93C13.4822 16.68 14.0422 16.34 14.5622 15.95L17.0522 16.95C17.1122 16.97 17.1722 16.98 17.2322 16.98C17.4022 16.98 17.5722 16.89 17.6622 16.73L19.6622 13.27C19.7822 13.05 19.7322 12.78 19.5422 12.63L17.4322 10.98ZM15.4522 9.27C15.4922 9.58 15.5022 9.79 15.5022 10C15.5022 10.21 15.4822 10.43 15.4522 10.73L15.3122 11.86L16.2022 12.56L17.2822 13.4L16.5822 14.61L15.3122 14.1L14.2722 13.68L13.3722 14.36C12.9422 14.68 12.5322 14.92 12.1222 15.09L11.0622 15.52L10.9022 16.65L10.7022 18H9.30216L8.95216 15.52L7.89216 15.09C7.46216 14.91 7.06216 14.68 6.66216 14.38L5.75216 13.68L4.69216 14.11L3.42216 14.62L2.72216 13.41L3.80216 12.57L4.69216 11.87L4.55216 10.74C4.52216 10.43 4.50216 10.2 4.50216 10C4.50216 9.8 4.52216 9.57 4.55216 9.27L4.69216 8.14L3.80216 7.44L2.72216 6.6L3.42216 5.39L4.69216 5.9L5.73216 6.32L6.63216 5.64C7.06216 5.32 7.47216 5.08 7.88216 4.91L8.94216 4.48L9.10216 3.35L9.30216 2H10.6922L11.0422 4.48L12.1022 4.91C12.5322 5.09 12.9322 5.32 13.3322 5.62L14.2422 6.32L15.3022 5.89L16.5722 5.38L17.2722 6.59L16.2022 7.44L15.3122 8.14L15.4522 9.27ZM10.0022 6C7.79216 6 6.00216 7.79 6.00216 10C6.00216 12.21 7.79216 14 10.0022 14C12.2122 14 14.0022 12.21 14.0022 10C14.0022 7.79 12.2122 6 10.0022 6ZM10.0022 12C8.90216 12 8.00216 11.1 8.00216 10C8.00216 8.9 8.90216 8 10.0022 8C11.1022 8 12.0022 8.9 12.0022 10C12.0022 11.1 11.1022 12 10.0022 12Z" fill="#181F25"/>
</svg>
