<svg width="20" height="20" viewBox="0 0 20 20" fill="none" xmlns="http://www.w3.org/2000/svg">
	<path d="M17.4318 10.98C17.4718 10.66 17.5018 10.34 17.5018 10C17.5018 9.66 17.4718 9.34 17.4318 9.02L19.5418 7.37C19.7318 7.22 19.7818 6.95 19.6618 6.73L17.6618 3.27C17.5718 3.11 17.4018 3.02 17.2218 3.02C17.1618 3.02 17.1018 3.03 17.0518 3.05L14.5618 4.05C14.0418 3.65 13.4818 3.32 12.8718 3.07L12.4918 0.42C12.4618 0.18 12.2518 0 12.0018 0H8.00179C7.75179 0 7.54179 0.18 7.51179 0.42L7.13179 3.07C6.52179 3.32 5.96179 3.66 5.44179 4.05L2.95179 3.05C2.89179 3.03 2.83179 3.02 2.77179 3.02C2.60179 3.02 2.43179 3.11 2.34179 3.27L0.341793 6.73C0.211793 6.95 0.271793 7.22 0.461793 7.37L2.57179 9.02C2.53179 9.34 2.50179 9.67 2.50179 10C2.50179 10.33 2.53179 10.66 2.57179 10.98L0.461793 12.63C0.271793 12.78 0.221793 13.05 0.341793 13.27L2.34179 16.73C2.43179 16.89 2.60179 16.98 2.78179 16.98C2.84179 16.98 2.90179 16.97 2.95179 16.95L5.44179 15.95C5.96179 16.35 6.52179 16.68 7.13179 16.93L7.51179 19.58C7.54179 19.82 7.75179 20 8.00179 20H12.0018C12.2518 20 12.4618 19.82 12.4918 19.58L12.8718 16.93C13.4818 16.68 14.0418 16.34 14.5618 15.95L17.0518 16.95C17.1118 16.97 17.1718 16.98 17.2318 16.98C17.4018 16.98 17.5718 16.89 17.6618 16.73L19.6618 13.27C19.7818 13.05 19.7318 12.78 19.5418 12.63L17.4318 10.98ZM15.4518 9.27C15.4918 9.58 15.5018 9.79 15.5018 10C15.5018 10.21 15.4818 10.43 15.4518 10.73L15.3118 11.86L16.2018 12.56L17.2818 13.4L16.5818 14.61L15.3118 14.1L14.2718 13.68L13.3718 14.36C12.9418 14.68 12.5318 14.92 12.1218 15.09L11.0618 15.52L10.9018 16.65L10.7018 18H9.30179L8.95179 15.52L7.89179 15.09C7.46179 14.91 7.06179 14.68 6.66179 14.38L5.75179 13.68L4.69179 14.11L3.42179 14.62L2.72179 13.41L3.80179 12.57L4.69179 11.87L4.55179 10.74C4.52179 10.43 4.50179 10.2 4.50179 10C4.50179 9.8 4.52179 9.57 4.55179 9.27L4.69179 8.14L3.80179 7.44L2.72179 6.6L3.42179 5.39L4.69179 5.9L5.73179 6.32L6.63179 5.64C7.06179 5.32 7.47179 5.08 7.88179 4.91L8.94179 4.48L9.10179 3.35L9.30179 2H10.6918L11.0418 4.48L12.1018 4.91C12.5318 5.09 12.9318 5.32 13.3318 5.62L14.2418 6.32L15.3018 5.89L16.5718 5.38L17.2718 6.59L16.2018 7.44L15.3118 8.14L15.4518 9.27ZM10.0018 6C7.79179 6 6.00179 7.79 6.00179 10C6.00179 12.21 7.79179 14 10.0018 14C12.2118 14 14.0018 12.21 14.0018 10C14.0018 7.79 12.2118 6 10.0018 6ZM10.0018 12C8.90179 12 8.00179 11.1 8.00179 10C8.00179 8.9 8.90179 8 10.0018 8C11.1018 8 12.0018 8.9 12.0018 10C12.0018 11.1 11.1018 12 10.0018 12Z" fill="white" fill-opacity="0.9"/>
</svg>
