<svg width="22" height="18" viewBox="0 0 22 18" fill="none" xmlns="http://www.w3.org/2000/svg">
	<path d="M12.11 3.80902V2.07883H13.8402V0.348633H1.72874C0.777128 0.348633 -0.00146484 1.12722 -0.00146484 2.07883V15.9204C-0.00146484 16.872 0.777128 17.6506 1.72874 17.6506H13.8402V15.9204H10.3538C11.4179 15.1331 12.11 13.8788 12.11 12.46V8.13451H3.45895V12.46C3.45895 13.8788 4.15968 15.1331 5.21511 15.9204H1.72874V2.07883H3.45895V3.80902C3.45895 4.28483 3.84824 4.67412 4.32405 4.67412H11.2449C11.7207 4.67412 12.11 4.28483 12.11 3.80902Z" fill="white" fill-opacity="0.9"/>
	<path d="M7.78446 7.26941C8.26225 7.26941 8.64957 6.88209 8.64957 6.40431C8.64957 5.92653 8.26225 5.53922 7.78446 5.53922C7.30668 5.53922 6.91936 5.92653 6.91936 6.40431C6.91936 6.88209 7.30668 7.26941 7.78446 7.26941Z" fill="white" fill-opacity="0.9"/>
	<path d="M14.6027 5.84298C14.6027 6.18744 14.8594 6.47786 15.2004 6.50825C18.0743 6.78855 20.3639 9.07816 20.651 11.952C20.6847 12.2965 20.9752 12.5599 21.3196 12.5599C21.7181 12.5599 22.0356 12.2154 21.995 11.8169C21.6438 8.31158 18.8544 5.52216 15.3456 5.16758C14.9505 5.12367 14.6027 5.43774 14.6027 5.84298ZM14.6027 11.0841V12.077C14.6027 12.3404 14.8154 12.5531 15.0789 12.5531H16.0717C16.3892 12.5531 16.6289 12.2458 16.531 11.9385C16.3317 11.3138 15.8387 10.8207 15.2106 10.6181C14.9134 10.5303 14.6027 10.7667 14.6027 11.0841ZM14.6027 8.56486C14.6027 8.8958 14.8458 9.17272 15.1768 9.22675C16.585 9.46652 17.6927 10.5742 17.9325 11.9824C17.9899 12.31 18.2634 12.5565 18.5944 12.5565H18.6011C19.0064 12.5565 19.3373 12.1985 19.2698 11.8C18.9489 9.79747 17.3651 8.21365 15.3592 7.88945C14.9573 7.82529 14.6027 8.15286 14.6027 8.56486Z" fill="white" fill-opacity="0.9"/>
</svg>
