<svg width="24" height="24" viewBox="0 0 24 24" fill="none" xmlns="http://www.w3.org/2000/svg">
	<path d="M12.97 2.67785C12.37 2.33785 11.63 2.33785 11.03 2.67785L4.03 6.56785L9.1 9.37785C9.83 8.61785 10.86 8.13785 12 8.13785C13.14 8.13785 14.17 8.61785 14.9 9.37785L19.97 6.55785L12.97 2.67785ZM10 12.1379C10 11.0379 10.9 10.1379 12 10.1379C13.1 10.1379 14 11.0379 14 12.1379C14 13.2379 13.1 14.1379 12 14.1379C10.9 14.1379 10 13.2379 10 12.1379ZM3 8.27785L8.13 11.1279C8.04 11.4479 8 11.7879 8 12.1379C8 13.9979 9.27 15.5679 11 16.0079V21.5779L4.03 17.7079C3.39 17.3579 3 16.6879 3 15.9579V8.27785ZM13 21.5779V16.0079C14.73 15.5679 16 13.9979 16 12.1379C16 11.7879 15.96 11.4479 15.87 11.1279L21 8.27785V15.9579C21 16.6879 20.61 17.3579 19.97 17.7079L13 21.5779Z" fill="white" fill-opacity="0.9"/>
</svg>
