<svg width="66" height="65" viewBox="0 0 66 65" fill="none" xmlns="http://www.w3.org/2000/svg">
	<circle cx="33" cy="32.5003" r="32.5" fill="#FCFCFC"/>
	<path d="M33.4545 5.87012C18.5044 5.87012 6.37109 18.0035 6.37109 32.9535C6.37109 47.9035 18.5044 60.0368 33.4545 60.0368C48.4045 60.0368 60.5378 47.9035 60.5378 32.9535C60.5378 18.0035 48.4045 5.87012 33.4545 5.87012ZM33.4545 13.9951C37.9503 13.9951 41.5795 17.6243 41.5795 22.1201C41.5795 26.616 37.9503 30.2451 33.4545 30.2451C28.9586 30.2451 25.3294 26.616 25.3294 22.1201C25.3294 17.6243 28.9586 13.9951 33.4545 13.9951ZM33.4545 52.4535C26.6836 52.4535 20.6982 48.9868 17.2044 43.7327C17.2857 38.3431 28.0378 35.391 33.4545 35.391C38.844 35.391 49.6232 38.3431 49.7045 43.7327C46.2107 48.9868 40.2253 52.4535 33.4545 52.4535Z" fill="#0xFFFF00"/>
</svg>
