<svg xmlns="http://www.w3.org/2000/svg" width="25" height="28" viewBox="0 0 25 28" fill="none">
  <path d="M2.91667 12.7867V6.52008L10.9167 3.52008L18.9167 6.52008V11.4401C19.8633 11.5734 20.7567 11.8534 21.5833 12.2401V4.66675L10.9167 0.666748L0.25 4.66675V12.7867C0.25 19.5201 4.79667 25.8001 10.9167 27.3334C10.9567 27.3201 10.9833 27.3067 11.0233 27.3067C9.97 26.2667 9.15667 24.9601 8.69 23.5201C5.26333 21.3734 2.91667 17.2267 2.91667 12.7867Z" fill="#085E50"/>
  <path d="M17.5833 14.0001C13.9033 14.0001 10.9167 16.9867 10.9167 20.6667C10.9167 24.3467 13.9033 27.3334 17.5833 27.3334C21.2633 27.3334 24.25 24.3467 24.25 20.6667C24.25 16.9867 21.2633 14.0001 17.5833 14.0001ZM21.5833 21.3334H18.25V24.6667H16.9167V21.3334H13.5833V20.0001H16.9167V16.6667H18.25V20.0001H21.5833V21.3334Z" fill="#085E50"/>
</svg>