<svg xmlns="http://www.w3.org/2000/svg" width="33" height="32" viewBox="0 0 33 32" fill="none">
  <path d="M19.4167 8.66658V5.99992H14.0833V8.66658H19.4167ZM6.08334 11.3333V25.9999H27.4167V11.3333H6.08334ZM27.4167 8.66658C28.8967 8.66658 30.0833 9.85325 30.0833 11.3333V25.9999C30.0833 27.4799 28.8967 28.6666 27.4167 28.6666H6.08334C4.60334 28.6666 3.41667 27.4799 3.41667 25.9999L3.43001 11.3333C3.43001 9.85325 4.60334 8.66658 6.08334 8.66658H11.4167V5.99992C11.4167 4.51992 12.6033 3.33325 14.0833 3.33325H19.4167C20.8967 3.33325 22.0833 4.51992 22.0833 5.99992V8.66658H27.4167Z" fill="#181F25" fill-opacity="0.62"/>
</svg>