<svg width="25" height="25" viewBox="0 0 25 25" fill="none" xmlns="http://www.w3.org/2000/svg">
<path d="M20.5 5.5H17.33L15.5 3.5H9.5L7.67 5.5H4.5C3.4 5.5 2.5 6.4 2.5 7.5V19.5C2.5 20.6 3.4 21.5 4.5 21.5H20.5C21.6 21.5 22.5 20.6 22.5 19.5V7.5C22.5 6.4 21.6 5.5 20.5 5.5ZM20.5 19.5H4.5V7.5H8.55L10.38 5.5H14.62L16.45 7.5H20.5V19.5ZM12.5 8.5C9.74 8.5 7.5 10.74 7.5 13.5C7.5 16.26 9.74 18.5 12.5 18.5C15.26 18.5 17.5 16.26 17.5 13.5C17.5 10.74 15.26 8.5 12.5 8.5ZM12.5 16.5C10.85 16.5 9.5 15.15 9.5 13.5C9.5 11.85 10.85 10.5 12.5 10.5C14.15 10.5 15.5 11.85 15.5 13.5C15.5 15.15 14.15 16.5 12.5 16.5Z" fill="#085E50"/>
</svg>
