<svg xmlns="http://www.w3.org/2000/svg" width="33" height="32" viewBox="0 0 33 32" fill="none">
  <path d="M22.9766 17.5066C24.8033 18.7466 26.0833 20.4266 26.0833 22.6666V26.6666H31.4166V22.6666C31.4166 19.7599 26.6566 18.0399 22.9766 17.5066Z" fill="#085E50"/>
  <path d="M20.7499 15.9999C23.6966 15.9999 26.0833 13.6133 26.0833 10.6666C26.0833 7.71992 23.6966 5.33325 20.7499 5.33325C20.1233 5.33325 19.5366 5.46658 18.9766 5.65325C20.0833 7.02658 20.7499 8.77325 20.7499 10.6666C20.7499 12.5599 20.0833 14.3066 18.9766 15.6799C19.5366 15.8666 20.1233 15.9999 20.7499 15.9999Z" fill="#085E50"/>
  <path d="M12.7499 15.9999C15.6966 15.9999 18.0833 13.6133 18.0833 10.6666C18.0833 7.71992 15.6966 5.33325 12.7499 5.33325C9.80325 5.33325 7.41658 7.71992 7.41658 10.6666C7.41658 13.6133 9.80325 15.9999 12.7499 15.9999ZM12.7499 7.99992C14.2166 7.99992 15.4166 9.19992 15.4166 10.6666C15.4166 12.1333 14.2166 13.3333 12.7499 13.3333C11.2833 13.3333 10.0833 12.1333 10.0833 10.6666C10.0833 9.19992 11.2833 7.99992 12.7499 7.99992Z" fill="#085E50"/>
  <path d="M12.7499 17.3333C9.18992 17.3333 2.08325 19.1199 2.08325 22.6666V26.6666H23.4166V22.6666C23.4166 19.1199 16.3099 17.3333 12.7499 17.3333ZM20.7499 23.9999H4.74992V22.6799C5.01659 21.7199 9.14992 19.9999 12.7499 19.9999C16.3499 19.9999 20.4833 21.7199 20.7499 22.6666V23.9999Z" fill="#085E50"/>
</svg>