<svg xmlns="http://www.w3.org/2000/svg" width="12" height="20" viewBox="0 0 12 20" fill="none">
  <path d="M2 0C0.9 0 0 0.9 0 2V5.17C0 5.7 0.21 6.21 0.59 6.59L4 10L0.58 13.42C0.21 13.8 0 14.31 0 14.84V18C0 19.1 0.9 20 2 20H10C11.1 20 12 19.1 12 18V14.84C12 14.31 11.79 13.8 11.42 13.43L8 10L11.41 6.6C11.79 6.22 12 5.71 12 5.18V2C12 0.9 11.1 0 10 0H2ZM10 14.5V17C10 17.55 9.55 18 9 18H3C2.45 18 2 17.55 2 17V14.5L6 10.5L10 14.5ZM6 9.5L2 5.5V3C2 2.45 2.45 2 3 2H9C9.55 2 10 2.45 10 3V5.5L6 9.5Z" fill="#A84700"/>
</svg>