<svg xmlns="http://www.w3.org/2000/svg" width="24" height="24" viewBox="0 0 24 24" fill="none">
  <path d="M18 9H14V10.5H18V9Z" fill="#181F25"/>
  <path d="M18 12H14V13.5H18V12Z" fill="#181F25"/>
  <path d="M9 12C9.82843 12 10.5 11.3284 10.5 10.5C10.5 9.67157 9.82843 9 9 9C8.17157 9 7.5 9.67157 7.5 10.5C7.5 11.3284 8.17157 12 9 12Z" fill="#181F25"/>
  <path d="M11.08 13.18C10.44 12.9 9.74 12.75 9 12.75C8.26 12.75 7.56 12.9 6.92 13.18C6.36 13.42 6 13.96 6 14.57V15H12V14.57C12 13.96 11.64 13.42 11.08 13.18Z" fill="#181F25"/>
  <path fill-rule="evenodd" clip-rule="evenodd" d="M3.5 4C2.67157 4 2 4.67157 2 5.5V17.5C2 18.3284 2.67157 19 3.5 19H20.5C21.3284 19 22 18.3284 22 17.5V5.5C22 4.67157 21.3284 4 20.5 4H3.5ZM20 6H4V17H20V6Z" fill="#181F25"/>
</svg>