<svg xmlns="http://www.w3.org/2000/svg" width="33" height="32" viewBox="0 0 33 32" fill="none">
  <path d="M17.4367 14.7999C15.0633 14.0133 13.9167 13.5199 13.9167 12.2666C13.9167 10.9066 15.3967 10.4133 16.33 10.4133C18.0767 10.4133 18.7167 11.7333 18.8633 12.1999L20.97 11.3066C20.77 10.7066 19.8767 8.74658 17.5833 8.31992V6.66658H14.9167V8.34659C11.61 9.09325 11.5967 12.1599 11.5967 12.2933C11.5967 15.3199 14.5967 16.1733 16.0633 16.7066C18.17 17.4533 19.1033 18.1333 19.1033 19.4133C19.1033 20.9199 17.7033 21.5599 16.4633 21.5599C14.0367 21.5599 13.3433 19.0666 13.2633 18.7733L11.05 19.6666C11.89 22.5866 14.09 23.3732 14.9167 23.6132V25.3333H17.5833V23.6799C18.1167 23.5599 21.45 22.8933 21.45 19.3866C21.45 17.5333 20.6367 15.9066 17.4367 14.7999ZM4.25001 27.9999H1.58334V19.9999H9.58334V22.6666H6.27668C8.42334 25.8799 12.09 27.9999 16.25 27.9999C22.8767 27.9999 28.25 22.6266 28.25 15.9999H30.9167C30.9167 24.1066 24.3567 30.6666 16.25 30.6666C11.29 30.6666 6.90334 28.1999 4.25001 24.4399V27.9999ZM1.58334 15.9999C1.58334 7.89325 8.14334 1.33325 16.25 1.33325C21.21 1.33325 25.5967 3.79992 28.25 7.55992V3.99992H30.9167V11.9999H22.9167V9.33325H26.2233C24.0767 6.11992 20.41 3.99992 16.25 3.99992C9.62334 3.99992 4.25001 9.37325 4.25001 15.9999H1.58334Z" fill="#181F25" fill-opacity="0.62"/>
</svg>