<svg xmlns="http://www.w3.org/2000/svg" width="32" height="32" viewBox="0 0 32 32" fill="none">
  <path d="M12.6267 12.0381V9.36604H24.6507V12.0381H12.6267ZM12.6267 16.0461V13.3741H24.6507V16.0461H12.6267ZM16.6347 29.4063H8.61866C7.50532 29.4063 6.55898 29.0166 5.77964 28.2373C5.00031 27.458 4.61064 26.5116 4.61064 25.3983V21.3902H8.61866V2.68595H28.6587V14.7435C28.2134 14.699 27.7625 14.7157 27.306 14.7936C26.8495 14.8715 26.4098 15.0107 25.9867 15.2111V5.35799H11.2907V21.3902H19.3067L16.6347 24.0622H7.28265V25.3983C7.28265 25.7768 7.41069 26.0941 7.66675 26.3502C7.92282 26.6062 8.24012 26.7343 8.61866 26.7343H16.6347V29.4063ZM19.3067 29.4063V25.2981L26.6881 17.95C26.8885 17.7495 27.1112 17.6048 27.3561 17.5157C27.601 17.4267 27.846 17.3821 28.0909 17.3821C28.3581 17.3821 28.6142 17.4322 28.8591 17.5324C29.1041 17.6326 29.3267 17.783 29.5271 17.9834L30.7629 19.2192C30.9411 19.4196 31.0802 19.6422 31.1804 19.8872C31.2806 20.1321 31.3307 20.3771 31.3307 20.622C31.3307 20.8669 31.2862 21.1174 31.1971 21.3735C31.1081 21.6296 30.9633 21.8578 30.7629 22.0582L23.4149 29.4063H19.3067ZM21.3107 27.4023H22.5799L26.6213 23.3274L26.0201 22.6928L25.3855 22.0916L21.3107 26.1331V27.4023ZM26.0201 22.6928L25.3855 22.0916L26.6213 23.3274L26.0201 22.6928Z" fill="#085E50"/>
  <path d="M10.1562 12.8564V11.785H5.86084L5.86064 5.89443C5.86064 5.3473 5.53307 4.85721 5.02581 4.64632L4.35456 4.36711C4.35615 4.33721 4.36351 4.30909 4.36351 4.27879C4.36351 3.39268 3.63913 2.67188 2.74861 2.67188C1.8581 2.67188 1.13371 3.39268 1.13371 4.27879C1.13371 5.1649 1.8581 5.88571 2.74861 5.88571C3.22164 5.88571 3.64352 5.67878 3.93904 5.35541L4.6107 5.63462C4.71597 5.67838 4.78423 5.78036 4.78423 5.89442L4.78423 11.7849H3.79457C3.57169 11.1628 2.97986 10.7137 2.27896 10.7137C1.38845 10.7137 0.664062 11.4345 0.664062 12.3206C0.664062 13.2067 1.38845 13.9275 2.27896 13.9275C2.97966 13.9275 3.57169 13.4784 3.79457 12.8562H4.78423V18.7467C4.78423 18.8608 4.71637 18.9624 4.6113 19.0061L3.93944 19.2853C3.6437 18.962 3.22184 18.7548 2.7488 18.7548C1.85829 18.7548 1.1339 19.4756 1.1339 20.3618C1.1339 21.2479 1.85829 21.9687 2.74881 21.9687C3.63932 21.9687 4.36371 21.2479 4.36371 20.3618C4.36371 20.3318 4.35634 20.3037 4.35475 20.274L5.026 19.995C5.53288 19.7841 5.86083 19.2942 5.86083 18.7469V12.8564H10.1562Z" fill="#085E50"/>
</svg>