<svg xmlns="http://www.w3.org/2000/svg" width="33" height="32" viewBox="0 0 33 32" fill="none">
  <path d="M9.37134 11.7796H6.61353L6.61333 5.88906C6.61333 5.34193 6.28575 4.85184 5.7785 4.64095L5.10724 4.36174C5.10794 4.34859 5.10976 4.33578 5.11158 4.32298C5.11389 4.30668 5.1162 4.29039 5.1162 4.27342C5.1162 3.38731 4.39181 2.6665 3.5013 2.6665C2.61078 2.6665 1.8864 3.38731 1.8864 4.27342C1.8864 5.15953 2.61078 5.88034 3.5013 5.88034C3.97432 5.88034 4.39621 5.67341 4.69173 5.35004L5.36339 5.62925C5.46866 5.67301 5.53691 5.77499 5.53691 5.88905L5.53692 11.7796H4.54726C4.32438 11.1574 3.73255 10.7083 3.03165 10.7083C2.14113 10.7083 1.41675 11.4291 1.41675 12.3152C1.41675 13.2013 2.14113 13.9221 3.03165 13.9221C3.73235 13.9221 4.32438 13.473 4.54726 12.8508H5.53692V18.7414C5.53692 18.8554 5.46906 18.957 5.36398 19.0008L4.69212 19.28C4.39639 18.9566 3.97452 18.7495 3.50149 18.7495C2.61097 18.7495 1.88659 19.4703 1.88659 20.3564C1.88659 21.2425 2.61098 21.9633 3.50149 21.9633C4.39201 21.9633 5.11639 21.2425 5.11639 20.3564C5.11639 20.3396 5.11409 20.3235 5.11178 20.3073C5.10996 20.2945 5.10814 20.2817 5.10744 20.2687L5.77868 19.9896C6.28556 19.7788 6.61352 19.2889 6.61352 18.7415V12.851H9.37134V21.3848H5.36332V25.3929C5.36332 26.5062 5.75299 27.4526 6.53233 28.2319C7.31167 29.0113 8.25801 29.4009 9.37134 29.4009H17.3874V28.6185C16.5931 28.1055 15.8882 27.4662 15.3009 26.7289H9.37134C8.99281 26.7289 8.67551 26.6009 8.41944 26.3448C8.16337 26.0887 8.03534 25.7714 8.03534 25.3929V24.0569H13.8534C13.5752 23.2159 13.4223 22.3178 13.4169 21.3848H12.0434V5.35262H26.7394V14.0221C27.1204 14.2652 27.4811 14.5373 27.8184 14.8353C27.898 14.8177 27.9781 14.802 28.0587 14.7882C28.5152 14.7103 28.9661 14.6936 29.4114 14.7381V2.68058H9.37134V11.7796Z" fill="#085E50"/>
  <path d="M18.6604 13.3687H13.3794V16.0408H15.2198C16.115 14.8815 17.2974 13.9553 18.6604 13.3687Z" fill="#085E50"/>
  <path d="M13.3794 9.36067V12.0327H25.4034V9.36067H13.3794Z" fill="#085E50"/>
  <path d="M22.0834 14.6665C18.4034 14.6665 15.4167 17.6532 15.4167 21.3332C15.4167 25.0132 18.4034 27.9998 22.0834 27.9998C25.7634 27.9998 28.7501 25.0132 28.7501 21.3332C28.7501 17.6532 25.7634 14.6665 22.0834 14.6665ZM25.4167 21.9998H22.7501V24.6665H21.4167V21.9998H18.7501V20.6665H21.4167V17.9998H22.7501V20.6665H25.4167V21.9998Z" fill="#085E50"/>
</svg>