<svg xmlns="http://www.w3.org/2000/svg" width="32" height="32" viewBox="0 0 32 32" fill="none">
  <path fill-rule="evenodd" clip-rule="evenodd" d="M28 9.33317V17.785C27.3151 16.8118 26.4002 16.0128 25.3333 15.4673V12.3462L21.1602 14.6665C21.1645 14.6819 21.1664 14.6979 21.1706 14.7134C20.2577 14.8162 19.3958 15.0868 18.6159 15.4933C18.3774 14.2669 17.2935 13.3332 16 13.3332C14.5333 13.3332 13.3333 14.5332 13.3333 15.9998C13.3333 17.2933 14.2671 18.3772 15.4935 18.6157C14.9658 19.6283 14.6667 20.779 14.6667 21.9998C14.6667 24.6009 16.0219 26.8841 18.0638 28.186L16 29.3332L4 22.6665V9.33317L16 2.6665L28 9.33317ZM6.66667 21.1066L14.6667 25.5467V21.16C12.36 20.5733 10.6667 18.4798 10.6667 15.9998C10.6667 15.5332 10.7199 15.0798 10.8398 14.6665L6.66667 12.3462V21.1066ZM8.11979 10.0936L12.1328 12.3202C13.1061 11.3068 14.48 10.6665 16 10.6665C17.52 10.6665 18.8939 11.3068 19.8672 12.3202L23.8802 10.0936L16 5.71989L8.11979 10.0936Z" fill="#085E50"/>
  <path fill-rule="evenodd" clip-rule="evenodd" d="M22 16.6665C24.944 16.6665 27.3333 19.0558 27.3333 21.9998C27.3333 24.9438 24.944 27.3332 22 27.3332C19.056 27.3332 16.6667 24.9438 16.6667 21.9998C16.6667 19.0558 19.056 16.6665 22 16.6665ZM21.4661 19.3332V21.466H19.3333V22.5337H21.4661V24.6665H22.5339V22.5337H24.6667V21.466H22.5339V19.3332H21.4661Z" fill="#085E50"/>
</svg>