<svg xmlns="http://www.w3.org/2000/svg" width="32" height="32" viewBox="0 0 32 32" fill="none">
  <path d="M26.6667 2.66675H5.33332C3.86666 2.66675 2.66666 3.86675 2.66666 5.33341V26.6667C2.66666 28.1334 3.86666 29.3334 5.33332 29.3334H26.6667C28.1333 29.3334 29.3333 28.1334 29.3333 26.6667V5.33341C29.3333 3.86675 28.1333 2.66675 26.6667 2.66675ZM26.6667 26.6667H5.33332V5.33341H26.6667V26.6667ZM24 8.00008H17.3333C15.8667 8.00008 14.6667 9.20008 14.6667 10.6667V13.7067C13.8667 14.1734 13.3333 15.0134 13.3333 16.0001C13.3333 17.4667 14.5333 18.6667 16 18.6667C17.4667 18.6667 18.6667 17.4667 18.6667 16.0001C18.6667 15.0134 18.1333 14.1601 17.3333 13.7067V10.6667H21.3333V21.3334H10.6667V10.6667H13.3333V8.00008H7.99999V24.0001H24V8.00008Z" fill="#181F25" fill-opacity="0.62"/>
</svg>