<svg width="68" height="68" viewBox="0 0 68 68" fill="none" xmlns="http://www.w3.org/2000/svg">
<path d="M33.9993 8.99935C38.5827 8.99935 42.3327 12.7493 42.3327 17.3327C42.3327 21.916 38.5827 25.666 33.9993 25.666C29.416 25.666 25.666 21.916 25.666 17.3327C25.666 12.7493 29.416 8.99935 33.9993 8.99935ZM33.9993 50.666C45.2493 50.666 58.166 56.041 58.9993 58.9993H8.99935C9.95768 55.9993 22.791 50.666 33.9993 50.666ZM33.9993 0.666016C24.791 0.666016 17.3327 8.12435 17.3327 17.3327C17.3327 26.541 24.791 33.9993 33.9993 33.9993C43.2077 33.9993 50.666 26.541 50.666 17.3327C50.666 8.12435 43.2077 0.666016 33.9993 0.666016ZM33.9993 42.3327C22.8743 42.3327 0.666016 47.916 0.666016 58.9993V67.3327H67.3327V58.9993C67.3327 47.916 45.1243 42.3327 33.9993 42.3327Z" fill="#DFE1E3"/>
</svg>
