<svg xmlns="http://www.w3.org/2000/svg" width="15" height="15" viewBox="0 0 15 15" fill="none">
  <path d="M8.20768 3.95768H6.79102V6.79102H3.95768V8.20768H6.79102V11.041H8.20768V8.20768H11.041V6.79102H8.20768V3.95768ZM7.49935 0.416016C3.58935 0.416016 0.416016 3.58935 0.416016 7.49935C0.416016 11.4093 3.58935 14.5827 7.49935 14.5827C11.4093 14.5827 14.5827 11.4093 14.5827 7.49935C14.5827 3.58935 11.4093 0.416016 7.49935 0.416016ZM7.49935 13.166C4.3756 13.166 1.83268 10.6231 1.83268 7.49935C1.83268 4.3756 4.3756 1.83268 7.49935 1.83268C10.6231 1.83268 13.166 4.3756 13.166 7.49935C13.166 10.6231 10.6231 13.166 7.49935 13.166Z" fill="#000000"/>
</svg>