<svg xmlns="http://www.w3.org/2000/svg" width="24" height="25" viewBox="0 0 24 25" fill="none">
  <path d="M9.5 7V10H6.5V7H9.5ZM11 5.5H5V11.5H11V5.5ZM9.5 15V18H6.5V15H9.5ZM11 13.5H5V19.5H11V13.5ZM17.5 7V10H14.5V7H17.5ZM19 5.5H13V11.5H19V5.5ZM13 13.5H14.5V15H13V13.5ZM14.5 15H16V16.5H14.5V15ZM16 13.5H17.5V15H16V13.5ZM13 16.5H14.5V18H13V16.5ZM14.5 18H16V19.5H14.5V18ZM16 16.5H17.5V18H16V16.5ZM17.5 15H19V16.5H17.5V15ZM17.5 18H19V19.5H17.5V18ZM22 7.5H20V4.5H17V2.5H22V7.5ZM22 22.5V17.5H20V20.5H17V22.5H22ZM2 22.5H7V20.5H4V17.5H2V22.5ZM2 2.5V7.5H4V4.5H7V2.5H2Z" fill="#181F25"/>
</svg>