<svg xmlns="http://www.w3.org/2000/svg" width="12" height="20" viewBox="0 0 12 20" fill="none">
  <path d="M5.06906 10.35C5.83906 8.96 7.31906 8.14 8.17906 6.91C9.08906 5.62 8.57906 3.21 5.99906 3.21C4.30906 3.21 3.47906 4.49 3.12906 5.55L0.539062 4.46C1.24906 2.33 3.17906 0.5 5.98906 0.5C8.33906 0.5 9.94906 1.57 10.7691 2.91C11.4691 4.06 11.8791 6.21 10.7991 7.81C9.59906 9.58 8.44906 10.12 7.82906 11.26C7.57906 11.72 7.47906 12.02 7.47906 13.5H4.58906C4.57906 12.72 4.45906 11.45 5.06906 10.35ZM7.99906 17.5C7.99906 18.6 7.09906 19.5 5.99906 19.5C4.89906 19.5 3.99906 18.6 3.99906 17.5C3.99906 16.4 4.89906 15.5 5.99906 15.5C7.09906 15.5 7.99906 16.4 7.99906 17.5Z" fill="#181F25"/>
</svg>