<svg xmlns="http://www.w3.org/2000/svg" width="18" height="18" viewBox="0 0 18 18" fill="none">
  <path d="M12.7539 11.2549H11.9639L11.6839 10.9849C12.6639 9.84488 13.2539 8.36488 13.2539 6.75488C13.2539 3.16488 10.3439 0.254883 6.75391 0.254883C3.16391 0.254883 0.253906 3.16488 0.253906 6.75488C0.253906 10.3449 3.16391 13.2549 6.75391 13.2549C8.36391 13.2549 9.84391 12.6649 10.9839 11.6849L11.2539 11.9649V12.7549L16.2539 17.7449L17.7439 16.2549L12.7539 11.2549ZM6.75391 11.2549C4.26391 11.2549 2.25391 9.24488 2.25391 6.75488C2.25391 4.26488 4.26391 2.25488 6.75391 2.25488C9.24391 2.25488 11.2539 4.26488 11.2539 6.75488C11.2539 9.24488 9.24391 11.2549 6.75391 11.2549Z" fill="#181F25" fill-opacity="0.5"/>
</svg>