<svg xmlns="http://www.w3.org/2000/svg" width="33" height="32" viewBox="0 0 33 32" fill="none">
  <path d="M26.22 13.8533L27.6333 12.44C28.6733 11.4 28.6733 9.70667 27.6333 8.66667L25.7533 6.78667C24.7133 5.74667 23.02 5.74667 21.98 6.78667L20.5667 8.2L26.22 13.8533ZM20.5667 15.7467L10.9667 25.3333H9.08667V23.4533L18.6733 13.8667L20.5667 15.7467ZM18.6733 10.08L6.42 22.3467V28H12.0733L24.3267 15.7467L18.6733 10.08ZM26.42 23.3333C26.42 26.2533 23.0333 28 19.7533 28C19.02 28 18.42 27.4 18.42 26.6667C18.42 25.9333 19.02 25.3333 19.7533 25.3333C21.8067 25.3333 23.7533 24.36 23.7533 23.3333C23.7533 22.7067 23.1133 22.1733 22.1133 21.7333L24.0867 19.76C25.5133 20.6 26.42 21.72 26.42 23.3333ZM7.19334 17.8C5.9 17.0533 5.08667 16.08 5.08667 14.6667C5.08667 12.2667 7.60667 11.16 9.83334 10.1867C11.2067 9.57333 13.0867 8.74667 13.0867 8C13.0867 7.45333 12.0467 6.66667 10.42 6.66667C8.74 6.66667 8.02 7.48 7.98 7.52C7.51334 8.06667 6.67334 8.13333 6.11334 7.68C5.56667 7.22667 5.46 6.41333 5.91334 5.84C6.06 5.65333 7.43334 4 10.42 4C13.4067 4 15.7533 5.76 15.7533 8C15.7533 10.4933 13.18 11.6267 10.9 12.6267C9.64667 13.1733 7.75334 14 7.75334 14.6667C7.75334 15.08 8.32667 15.4667 9.18 15.8133L7.19334 17.8Z" fill="#181F25"/>
</svg>