<svg width="56" height="40" viewBox="0 0 56 40" fill="none" xmlns="http://www.w3.org/2000/svg">
<path d="M19.8188 24.7682C13.4375 24.7682 0.729248 27.9589 0.729248 34.313V39.0854H38.9084V34.313C38.9084 27.9589 26.2002 24.7682 19.8188 24.7682ZM7.11062 33.6312C9.40137 32.0495 14.9374 30.2224 19.8188 30.2224C24.7003 30.2224 30.2363 32.0495 32.527 33.6312H7.11062ZM19.8188 19.9958C25.0821 19.9958 29.3636 15.7143 29.3636 10.451C29.3636 5.18777 25.0821 0.90625 19.8188 0.90625C14.5556 0.90625 10.274 5.18777 10.274 10.451C10.274 15.7143 14.5556 19.9958 19.8188 19.9958ZM19.8188 6.36042C22.0823 6.36042 23.9095 8.18756 23.9095 10.451C23.9095 12.7145 22.0823 14.5417 19.8188 14.5417C17.5554 14.5417 15.7282 12.7145 15.7282 10.451C15.7282 8.18756 17.5554 6.36042 19.8188 6.36042ZM39.0175 24.9319C42.1809 27.2226 44.3626 30.2769 44.3626 34.313V39.0854H55.2709V34.313C55.2709 28.8043 45.7261 25.6682 39.0175 24.9319ZM36.1813 19.9958C41.4446 19.9958 45.7261 15.7143 45.7261 10.451C45.7261 5.18777 41.4446 0.90625 36.1813 0.90625C34.7087 0.90625 33.3452 1.26077 32.0907 1.86073C33.8088 4.28783 34.8178 7.26035 34.8178 10.451C34.8178 13.6417 33.8088 16.6142 32.0907 19.0414C33.3452 19.6413 34.7087 19.9958 36.1813 19.9958Z" fill="#085E50"/>
</svg>
