<svg xmlns="http://www.w3.org/2000/svg" width="88" height="35" viewBox="0 0 88 35" fill="none">
  <path d="M0.562655 19.3068C0.251909 19.3068 0 19.0549 0 18.7442V0.562656C0 0.25191 0.251909 0 0.562655 0H6.47401C6.73659 0 6.96426 0.181627 7.0226 0.437648L10.7077 16.6097C10.7363 16.7354 10.8481 16.8245 10.977 16.8245C11.1295 16.8245 11.2531 16.7009 11.2531 16.5484V0.562656C11.2531 0.25191 11.505 0 11.8158 0H14.276C14.5868 0 14.8387 0.251909 14.8387 0.562655V18.7442C14.8387 19.0549 14.5868 19.3068 14.276 19.3068H8.36467C8.10208 19.3068 7.87441 19.1252 7.81607 18.8692L4.13096 2.69711C4.10233 2.57145 3.99059 2.48231 3.86171 2.48231C3.70919 2.48231 3.58555 2.60595 3.58555 2.75846V18.7442C3.58555 19.0549 3.33364 19.3068 3.0229 19.3068H0.562655Z" fill="#B3B6B8"/>
  <path d="M24.8209 19.693C23.4602 19.693 22.2559 19.408 21.2078 18.8379C20.1781 18.2495 19.369 17.4313 18.7806 16.3832C18.2106 15.3167 17.9256 14.0664 17.9256 12.6322V12.3012C17.9256 10.867 18.2106 9.62583 18.7806 8.57775C19.3506 7.51127 20.1505 6.69303 21.1802 6.12302C22.2099 5.53462 23.4051 5.24042 24.7657 5.24042C26.108 5.24042 27.2756 5.54382 28.2686 6.1506C29.2615 6.739 30.0337 7.56644 30.5854 8.63291C31.137 9.68099 31.4128 10.9038 31.4128 12.3012V12.9245C31.4128 13.2353 31.1609 13.4872 30.8502 13.4872H22.0412C21.7218 13.4872 21.4609 13.7547 21.5231 14.0679C21.6575 14.7451 21.9845 15.3146 22.5041 15.7764C23.166 16.3648 23.9751 16.659 24.9312 16.659C25.9058 16.659 26.6229 16.4476 27.0826 16.0247C27.3839 15.7475 27.6378 15.4505 27.8443 15.1338C28.0198 14.8646 28.3689 14.743 28.6536 14.8922L30.4676 15.8432C30.745 15.9887 30.8511 16.3334 30.6783 16.5946C30.4529 16.9356 30.1737 17.2972 29.8407 17.6795C29.3626 18.2312 28.719 18.7092 27.91 19.1138C27.101 19.4999 26.0713 19.693 24.8209 19.693ZM21.6461 10.2541C21.5297 10.5808 21.7984 10.8946 22.1452 10.8946H27.265C27.5963 10.8946 27.862 10.6065 27.7686 10.2886C27.6171 9.77291 27.3333 9.34053 26.9171 8.99146C26.3655 8.51339 25.6391 8.27435 24.7382 8.27435C23.8004 8.27435 23.0557 8.51339 22.5041 8.99146C22.1104 9.3327 21.8243 9.75357 21.6461 10.2541Z" fill="#B3B6B8"/>
  <path d="M39.7188 19.5275C38.6524 19.5275 37.7146 19.2884 36.9056 18.8104C36.1149 18.3139 35.4989 17.6336 35.0576 16.7694C34.6163 15.9051 34.3957 14.9122 34.3957 13.7906V6.18922C34.3957 5.87847 34.6476 5.62656 34.9583 5.62656H37.3082C37.619 5.62656 37.8709 5.87847 37.8709 6.18922V13.5148C37.8709 14.5445 38.1191 15.3167 38.6156 15.8316C39.1304 16.3464 39.8567 16.6039 40.7945 16.6039C41.861 16.6039 42.6884 16.2545 43.2768 15.5558C43.8652 14.8387 44.1594 13.8458 44.1594 12.577V6.18922C44.1594 5.87847 44.4113 5.62656 44.7221 5.62656H47.072C47.3827 5.62656 47.6346 5.87847 47.6346 6.18922V18.7442C47.6346 19.0549 47.3827 19.3068 47.072 19.3068H44.7772C44.4665 19.3068 44.2146 19.0549 44.2146 18.7442V17.8188C44.2146 17.6505 44.0781 17.514 43.9099 17.514C43.7927 17.514 43.6872 17.5821 43.628 17.6832C43.3928 18.0844 43.0091 18.4785 42.477 18.8655C41.8702 19.3068 40.9508 19.5275 39.7188 19.5275Z" fill="#B3B6B8"/>
  <path d="M52.0645 19.3068C51.7537 19.3068 51.5018 19.0549 51.5018 18.7442V6.18922C51.5018 5.87847 51.7537 5.62656 52.0645 5.62656H54.3592C54.67 5.62656 54.9219 5.87847 54.9219 6.18922V6.8788C54.9219 7.04024 55.0528 7.17111 55.2142 7.17111C55.3368 7.17111 55.445 7.09384 55.4953 6.98201C55.7005 6.52608 56.0058 6.18459 56.4113 5.95753C56.8893 5.70011 57.441 5.5714 58.0661 5.5714H59.1584C59.4691 5.5714 59.721 5.82331 59.721 6.13405V8.09784C59.721 8.40858 59.4691 8.66049 59.1584 8.66049H58.011C57.1284 8.66049 56.4021 8.89953 55.8321 9.3776C55.2621 9.83729 54.977 10.5544 54.977 11.5289V18.7442C54.977 19.0549 54.7251 19.3068 54.4144 19.3068H52.0645Z" fill="#B3B6B8"/>
  <path d="M67.4575 6.18924C67.4575 5.87849 67.7098 5.62424 68.0196 5.64908C68.935 5.72246 69.8291 5.97459 70.6505 6.39315C71.472 6.81171 72.2015 7.38683 72.7989 8.08427C73.0011 8.32026 72.9437 8.67383 72.6923 8.85649L70.2456 10.6341C70.1199 10.7254 69.9449 10.6966 69.8428 10.5795C69.5774 10.2752 69.2556 10.0239 68.8944 9.83979C68.1605 9.46585 67.4575 8.8271 67.4575 8.00341V6.18924Z" fill="#B3B6B8"/>
  <path d="M73.1707 9.62204C73.445 9.47615 73.788 9.57957 73.9115 9.86472C74.0552 10.1965 74.1731 10.5389 74.2641 10.8889C74.3424 11.1896 74.1358 11.4822 73.8298 11.5362L70.8514 12.0613C70.6984 12.0883 70.5537 11.9857 70.5133 11.8357C70.4758 11.6967 70.4289 11.5604 70.3729 11.4279C70.3124 11.2847 70.3632 11.1148 70.5004 11.0419L73.1707 9.62204Z" fill="#B3B6B8"/>
  <path d="M65.0336 18.6591C64.9172 18.9473 64.588 19.0885 64.3101 18.9494C63.4889 18.5385 62.7544 17.9698 62.1495 17.274C61.5447 16.5781 61.0837 15.7716 60.7911 14.9012C60.692 14.6066 60.8777 14.3003 61.1792 14.2251L64.1136 13.4935C64.2644 13.4559 64.4159 13.5482 64.4667 13.695C64.5988 14.0766 64.8029 14.4301 65.0689 14.7362C65.3349 15.0422 65.6567 15.2935 66.0161 15.4774C66.1544 15.5482 66.2247 15.711 66.1665 15.8551L65.0336 18.6591Z" fill="#B3B6B8"/>
  <path d="M73.9241 12.434C74.2347 12.4231 74.4976 12.6664 74.4836 12.9768C74.4422 13.8942 74.2214 14.7966 73.8318 15.6321C73.4421 16.4677 72.8928 17.2168 72.2167 17.8382C71.9879 18.0485 71.6325 18.0035 71.4412 17.7586L70.3243 16.329C69.8172 15.68 69.9778 14.7439 70.3259 13.9973C70.4973 13.6299 70.5961 13.2337 70.6179 12.8305C70.6262 12.6754 70.7464 12.5449 70.9017 12.5395L73.9241 12.434Z" fill="#B3B6B8"/>
  <path d="M67.9089 19.1145C67.9306 19.4245 67.6966 19.6958 67.3859 19.6926C67.0243 19.6889 66.6636 19.6574 66.3068 19.5982C66.0003 19.5474 65.817 19.2396 65.8922 18.9381L66.6238 16.0037C66.6614 15.8529 66.814 15.7625 66.9675 15.7865C67.1097 15.8088 67.2532 15.8214 67.3972 15.8241C67.5525 15.8271 67.6871 15.9426 67.6979 16.0976L67.9089 19.1145Z" fill="#B3B6B8"/>
  <path d="M62.9627 8.00526C62.7469 7.78173 62.7517 7.42357 62.9918 7.22626C63.2711 6.99667 63.5678 6.78896 63.8791 6.60499C64.1466 6.44689 64.4848 6.5648 64.621 6.84409L65.9468 9.56229C66.0149 9.70194 65.9561 9.8693 65.8231 9.94954C65.6998 10.0239 65.5818 10.1065 65.4698 10.1969C65.3489 10.2945 65.1715 10.2925 65.0636 10.1807L62.9627 8.00526Z" fill="#B3B6B8"/>
  <path d="M65.458 6.50593C65.362 6.21039 65.5234 5.89062 65.8256 5.81852C65.8713 5.80764 65.917 5.79722 65.9628 5.78725C66.2664 5.72121 66.5505 5.93943 66.5921 6.24738L66.9665 9.02143C67.0039 9.29859 66.8076 9.54969 66.5399 9.63077C66.5065 9.64091 66.4707 9.62279 66.4599 9.58954L65.458 6.50593Z" fill="#B3B6B8"/>
  <path d="M61.3772 10.4467C61.0852 10.3404 60.9326 10.0164 61.0619 9.73381C61.2123 9.405 61.3879 9.08828 61.587 8.78646C61.7581 8.52709 62.1138 8.4848 62.3587 8.67611L64.7418 10.538C64.8643 10.6337 64.8848 10.8099 64.8004 10.9403C64.7222 11.0612 64.6523 11.1872 64.5913 11.3176C64.5254 11.4583 64.3651 11.5342 64.2191 11.4811L61.3772 10.4467Z" fill="#B3B6B8"/>
  <path d="M61.0224 13.3361C60.7134 13.3686 60.4342 13.1443 60.4265 12.8336C60.4175 12.4721 60.4365 12.1105 60.4832 11.7519C60.5233 11.4438 60.8244 11.2499 61.1284 11.3145L64.0866 11.9433C64.2385 11.9756 64.3342 12.1249 64.3156 12.2792C64.2982 12.4221 64.2907 12.566 64.293 12.7099C64.2954 12.8652 64.1847 13.0038 64.0301 13.02L61.0224 13.3361Z" fill="#B3B6B8"/>
  <path d="M70.6928 18.2634C70.8482 18.5325 70.7568 18.8789 70.4761 19.0122C70.1495 19.1674 69.8115 19.2972 69.4649 19.4004C69.1671 19.4891 68.8674 19.2929 68.8028 18.9889L68.1385 15.8636C68.1258 15.8039 68.1641 15.7454 68.2233 15.7307C68.697 15.6125 69.2378 15.7434 69.4819 16.1661L70.6928 18.2634Z" fill="#B3B6B8"/>
  <path d="M25.7035 34.744L29.3608 21.9436H32.8352L36.4741 34.744H34.4443L33.6032 31.7268H28.5927L27.7516 34.744H25.7035ZM29.0865 29.8981H33.1095L31.2442 23.1688H30.9517L29.0865 29.8981Z" fill="#B3B6B8"/>
  <path d="M42.4507 35C41.5852 35 40.7989 34.8171 40.0918 34.4514C39.3969 34.0857 38.8423 33.5554 38.4278 32.8605C38.0255 32.1656 37.8243 31.3305 37.8243 30.3553V30.1176C37.8243 29.1423 38.0255 28.3133 38.4278 27.6306C38.8423 26.9357 39.3969 26.4054 40.0918 26.0397C40.7989 25.6618 41.5852 25.4728 42.4507 25.4728C43.3163 25.4728 44.0538 25.6313 44.6634 25.9483C45.2729 26.2652 45.7606 26.6858 46.1263 27.21C46.5042 27.7342 46.748 28.3133 46.8577 28.9472L45.0291 29.3312C44.9682 28.9289 44.8402 28.5632 44.6451 28.2341C44.45 27.9049 44.1758 27.6428 43.8222 27.4478C43.4687 27.2527 43.0237 27.1552 42.4873 27.1552C41.9631 27.1552 41.4877 27.2771 41.061 27.5209C40.6465 27.7525 40.3173 28.0939 40.0735 28.5449C39.8297 28.9838 39.7078 29.5202 39.7078 30.1541V30.3187C39.7078 30.9526 39.8297 31.4951 40.0735 31.9462C40.3173 32.3972 40.6465 32.7386 41.061 32.9702C41.4877 33.2018 41.9631 33.3177 42.4873 33.3177C43.2797 33.3177 43.8832 33.1165 44.2977 32.7142C44.7122 32.2997 44.9743 31.7755 45.084 31.1416L46.9126 31.5622C46.7663 32.1839 46.5042 32.7569 46.1263 33.2811C45.7606 33.8053 45.2729 34.2259 44.6634 34.5428C44.0538 34.8476 43.3163 35 42.4507 35Z" fill="#B3B6B8"/>
  <path d="M53.2725 35C52.407 35 51.6207 34.8171 50.9136 34.4514C50.2187 34.0857 49.664 33.5554 49.2495 32.8605C48.8472 32.1656 48.6461 31.3305 48.6461 30.3553V30.1176C48.6461 29.1423 48.8472 28.3133 49.2495 27.6306C49.664 26.9357 50.2187 26.4054 50.9136 26.0397C51.6207 25.6618 52.407 25.4728 53.2725 25.4728C54.1381 25.4728 54.8756 25.6313 55.4852 25.9483C56.0947 26.2652 56.5823 26.6858 56.9481 27.21C57.326 27.7342 57.5698 28.3133 57.6795 28.9472L55.8509 29.3312C55.7899 28.9289 55.6619 28.5632 55.4669 28.2341C55.2718 27.9049 54.9975 27.6428 54.644 27.4478C54.2905 27.2527 53.8455 27.1552 53.3091 27.1552C52.7849 27.1552 52.3094 27.2771 51.8828 27.5209C51.4683 27.7525 51.1391 28.0939 50.8953 28.5449C50.6515 28.9838 50.5296 29.5202 50.5296 30.1541V30.3187C50.5296 30.9526 50.6515 31.4951 50.8953 31.9462C51.1391 32.3972 51.4683 32.7386 51.8828 32.9702C52.3094 33.2018 52.7849 33.3177 53.3091 33.3177C54.1015 33.3177 54.7049 33.1165 55.1194 32.7142C55.5339 32.2997 55.796 31.7755 55.9057 31.1416L57.7344 31.5622C57.5881 32.1839 57.326 32.7569 56.9481 33.2811C56.5823 33.8053 56.0947 34.2259 55.4852 34.5428C54.8756 34.8476 54.1381 35 53.2725 35Z" fill="#B3B6B8"/>
  <path d="M64.0394 35C63.1251 35 62.3266 34.811 61.6439 34.4331C60.9612 34.043 60.4248 33.5005 60.0347 32.8056C59.6568 32.0986 59.4679 31.2818 59.4679 30.3553V30.1358C59.4679 29.1971 59.6568 28.3804 60.0347 27.6855C60.4127 26.9784 60.9369 26.4359 61.6074 26.058C62.29 25.6679 63.0764 25.4728 63.9663 25.4728C64.8318 25.4728 65.5877 25.6679 66.2338 26.058C66.8921 26.4359 67.4041 26.9662 67.7698 27.6489C68.1356 28.3316 68.3184 29.1301 68.3184 30.0444V30.7576H61.3879C61.4123 31.55 61.6744 32.1839 62.1742 32.6594C62.6862 33.1226 63.3202 33.3542 64.076 33.3542C64.7831 33.3542 65.3134 33.1958 65.6669 32.8788C66.0326 32.5618 66.313 32.1961 66.5081 31.7816L68.0624 32.5862C67.8917 32.9276 67.6418 33.2872 67.3127 33.6651C66.9957 34.043 66.5751 34.36 66.0509 34.616C65.5267 34.872 64.8562 35 64.0394 35ZM61.4062 29.313H66.3984C66.3496 28.6303 66.1058 28.1 65.6669 27.7221C65.228 27.3319 64.6551 27.1369 63.948 27.1369C63.2409 27.1369 62.6619 27.3319 62.2108 27.7221C61.7719 28.1 61.5037 28.6303 61.4062 29.313Z" fill="#B3B6B8"/>
  <path d="M74.2795 35C73.1335 35 72.1826 34.744 71.4268 34.232C70.671 33.72 70.2077 32.9458 70.0371 31.9096L71.7925 31.489C71.8901 31.9889 72.0546 32.3851 72.2863 32.6776C72.5179 32.9702 72.8044 33.1775 73.1457 33.2994C73.4993 33.4213 73.8772 33.4822 74.2795 33.4822C74.8768 33.4822 75.334 33.3664 75.6509 33.1348C75.9801 32.9032 76.1447 32.6045 76.1447 32.2388C76.1447 31.873 75.9923 31.6048 75.6875 31.4342C75.3828 31.2635 74.9317 31.1233 74.3343 31.0136L73.7126 30.9039C73.1031 30.7941 72.5484 30.6357 72.0486 30.4284C71.5487 30.2212 71.1525 29.9347 70.8599 29.569C70.5674 29.2032 70.4211 28.7339 70.4211 28.1609C70.4211 27.3076 70.738 26.6493 71.372 26.186C72.0059 25.7106 72.847 25.4728 73.8955 25.4728C74.9073 25.4728 75.7363 25.7045 76.3824 26.1677C77.0407 26.6188 77.4674 27.2344 77.6624 28.0146L75.907 28.5084C75.7972 27.9598 75.5656 27.5758 75.2121 27.3563C74.8585 27.1247 74.4197 27.0089 73.8955 27.0089C73.3834 27.0089 72.9811 27.1064 72.6886 27.3015C72.396 27.4843 72.2497 27.7464 72.2497 28.0878C72.2497 28.4535 72.3899 28.7217 72.6703 28.8924C72.9629 29.063 73.353 29.191 73.8406 29.2764L74.4806 29.3861C75.1267 29.4958 75.718 29.6482 76.2544 29.8433C76.7908 30.0383 77.2114 30.3187 77.5162 30.6844C77.8331 31.0502 77.9916 31.5378 77.9916 32.1473C77.9916 33.0495 77.6563 33.7504 76.9858 34.2503C76.3153 34.7501 75.4132 35 74.2795 35Z" fill="#B3B6B8"/>
  <path d="M83.8869 35C82.741 35 81.7901 34.744 81.0343 34.232C80.2784 33.72 79.8152 32.9458 79.6445 31.9096L81.4 31.489C81.4975 31.9889 81.6621 32.3851 81.8937 32.6776C82.1253 32.9702 82.4118 33.1775 82.7532 33.2994C83.1067 33.4213 83.4846 33.4822 83.8869 33.4822C84.4843 33.4822 84.9414 33.3664 85.2584 33.1348C85.5875 32.9032 85.7521 32.6045 85.7521 32.2388C85.7521 31.873 85.5997 31.6048 85.295 31.4342C84.9902 31.2635 84.5391 31.1233 83.9418 31.0136L83.32 30.9039C82.7105 30.7941 82.1558 30.6357 81.656 30.4284C81.1562 30.2212 80.76 29.9347 80.4674 29.569C80.1748 29.2032 80.0285 28.7339 80.0285 28.1609C80.0285 27.3076 80.3455 26.6493 80.9794 26.186C81.6133 25.7106 82.4545 25.4728 83.5029 25.4728C84.5147 25.4728 85.3437 25.7045 85.9899 26.1677C86.6482 26.6188 87.0748 27.2344 87.2699 28.0146L85.5144 28.5084C85.4047 27.9598 85.1731 27.5758 84.8195 27.3563C84.466 27.1247 84.0271 27.0089 83.5029 27.0089C82.9909 27.0089 82.5886 27.1064 82.296 27.3015C82.0034 27.4843 81.8571 27.7464 81.8571 28.0878C81.8571 28.4535 81.9973 28.7217 82.2777 28.8924C82.5703 29.063 82.9604 29.191 83.4481 29.2764L84.0881 29.3861C84.7342 29.4958 85.3254 29.6482 85.8618 29.8433C86.3982 30.0383 86.8188 30.3187 87.1236 30.6844C87.4406 31.0502 87.599 31.5378 87.599 32.1473C87.599 33.0495 87.2638 33.7504 86.5933 34.2503C85.9228 34.7501 85.0207 35 83.8869 35Z" fill="#B3B6B8"/>
</svg>