<svg width="35" height="35" viewBox="0 0 35 35" fill="none" xmlns="http://www.w3.org/2000/svg">
<path d="M12.6664 2.62702C12.4343 1.91267 12.8243 1.13975 13.555 0.965475C13.6652 0.939176 13.7757 0.913981 13.8865 0.889893C14.6204 0.730265 15.307 1.25772 15.4074 2.00207L16.3124 8.70725C16.4028 9.37718 15.9284 9.98411 15.2814 10.1801C15.2006 10.2046 15.1142 10.1608 15.0881 10.0804L12.6664 2.62702Z" fill="#DFE1E3"/>
<path d="M6.63419 6.24972C6.11243 5.70942 6.12422 4.84371 6.70449 4.3668C7.37969 3.81186 8.09669 3.30981 8.8491 2.86512C9.49571 2.48296 10.3132 2.76797 10.6425 3.44306L13.847 10.0132C14.0116 10.3508 13.8695 10.7553 13.548 10.9493C13.25 11.1289 12.9647 11.3287 12.694 11.5472C12.4017 11.7831 11.973 11.7782 11.7121 11.5081L6.63419 6.24972Z" fill="#DFE1E3"/>
<path d="M2.80337 12.1522C2.09756 11.8953 1.72866 11.112 2.04114 10.429C2.40474 9.63425 2.82909 8.8687 3.31041 8.13919C3.72406 7.51224 4.58379 7.41003 5.17567 7.87245L10.936 12.3729C11.232 12.6041 11.2816 13.03 11.0776 13.3453C10.8886 13.6374 10.7197 13.942 10.5722 14.2571C10.4129 14.5972 10.0254 14.7808 9.67251 14.6524L2.80337 12.1522Z" fill="#DFE1E3"/>
<path d="M1.94568 19.1361C1.19868 19.2146 0.523758 18.6724 0.505194 17.9215C0.483591 17.0478 0.529401 16.1737 0.642214 15.307C0.739165 14.5621 1.46708 14.0934 2.20177 14.2496L9.75596 15.8552C9.90021 15.8859 9.99174 16.028 9.96614 16.1733C9.76132 17.3352 8.94069 18.4009 7.76732 18.5242L1.94568 19.1361Z" fill="#DFE1E3"/>
<path d="M11.6401 32C11.3587 32.6965 10.563 33.0378 9.89132 32.7017C7.90628 31.7083 6.13087 30.3337 4.66886 28.6519C3.20686 26.97 2.09273 25.0206 1.38533 22.9166C1.14596 22.2047 1.59471 21.4643 2.32351 21.2826L6.5783 20.2217C8.51011 19.7401 10.4192 21.0152 11.7254 22.5178C13.0316 24.0203 14.0286 26.0883 13.2827 27.9343L11.6401 32Z" fill="#DFE1E3"/>
<path d="M18.5904 33.101C18.6428 33.8503 18.0773 34.5059 17.3262 34.4982C16.4523 34.4893 15.5803 34.413 14.7181 34.27C13.9771 34.1471 13.534 33.4033 13.7157 32.6745L15.358 26.0878C15.5185 25.4439 16.1715 25.0622 16.8326 25.12C17.4938 25.1778 18.0705 25.6672 18.1168 26.3292L18.5904 33.101Z" fill="#DFE1E3"/>
<path d="M25.3193 31.0445C25.6949 31.695 25.474 32.5321 24.7956 32.8545C24.0062 33.2296 23.189 33.5433 22.3514 33.7928C21.6315 34.0071 20.9072 33.5328 20.7511 32.7981L19.534 27.0723C19.2887 25.9183 20.0487 24.8085 21.0904 24.2546C21.2207 24.1854 21.3841 24.2285 21.4578 24.3563L25.3193 31.0445Z" fill="#DFE1E3"/>
<path d="M33.1296 16.9518C33.8803 16.9255 34.5157 17.5136 34.4819 18.2639C34.3818 20.4814 33.8482 22.6624 32.9064 24.6821C31.9646 26.7018 30.6369 28.5125 29.0025 30.0145C28.4495 30.5227 27.5905 30.4139 27.1281 29.8221L22.6276 24.0617C22.3964 23.7658 22.4513 23.3405 22.7255 23.084C23.4382 22.4173 24.0182 21.6188 24.4324 20.7306C25.2738 18.9262 26.7575 17.1743 28.7473 17.1048L33.1296 16.9518Z" fill="#DFE1E3"/>
<path d="M31.3106 10.16C31.9738 9.80734 32.8027 10.0573 33.1012 10.7465C33.4485 11.5486 33.7335 12.3762 33.9536 13.222C34.1427 13.9489 33.6434 14.6562 32.9037 14.7866L27.1389 15.8031C25.977 16.008 24.8944 15.2097 24.3773 14.1493C24.3126 14.0167 24.3614 13.8549 24.4916 13.7857L31.3106 10.16Z" fill="#DFE1E3"/>
<path d="M17.5 1.86C17.5 1.10889 18.1099 0.494345 18.8586 0.55437C21.0712 0.731758 23.2322 1.34118 25.2178 2.35289C27.2034 3.36459 28.9667 4.75471 30.4107 6.44048C30.8994 7.01092 30.7607 7.86554 30.153 8.30702L24.2391 12.6037C23.9353 12.8245 23.5122 12.7548 23.2654 12.4718C22.6239 11.7363 21.8463 11.1287 20.973 10.6838C19.1991 9.77991 17.5 8.236 17.5 6.24504V1.86Z" fill="#DFE1E3"/>
</svg>
