<svg width="24" height="24" viewBox="0 0 24 24" fill="none" xmlns="http://www.w3.org/2000/svg">
<path d="M19.9739 10.502L15.8239 10.512C15.6639 10.502 15.5139 10.532 15.3739 10.592L14.7839 10.852L12.9539 6.75195C12.3939 5.49195 10.9139 4.92195 9.65391 5.48195C8.39391 6.04195 7.82391 7.52195 8.38391 8.78195L11.6839 16.232L9.81391 16.622C9.62391 16.672 8.82391 16.892 8.45391 17.832L7.75391 19.692L14.5339 22.362C15.0239 22.552 15.5839 22.542 16.0639 22.322L22.0539 19.672C22.9439 19.272 23.4239 18.292 23.1839 17.352L21.8239 12.012C21.6039 11.152 20.8539 10.542 19.9739 10.502ZM21.2439 17.842L15.2539 20.502L10.3339 18.542L14.5139 17.662L10.2139 7.96195C10.1039 7.71195 10.2139 7.41195 10.4639 7.30195C10.7139 7.19195 11.0139 7.30195 11.1239 7.55195L13.6239 13.202L15.2339 12.492L19.8839 12.502L21.2439 17.842ZM1.81391 6.06195L0.753906 5.00195L4.25391 1.50195L7.75391 5.00195L6.69391 6.06195L5.07391 4.44195C4.86391 5.26195 4.75391 6.12195 4.75391 7.00195C4.75391 9.42195 5.57391 11.652 6.95391 13.432L5.88391 14.502C4.24391 12.452 3.25391 9.84195 3.25391 7.00195C3.25391 6.08195 3.35391 5.18195 3.55391 4.32195L1.81391 6.06195Z" fill="#085E50"/>
</svg>
