<svg width="190" height="190" viewBox="0 0 190 190" fill="#eeeeee" xmlns="http://www.w3.org/2000/svg">
<path d="M 94.6665 5.2778 C 94.6665 4.2614 95.4905 3.4356 96.507 3.4558 C 101.0755 3.5465 105.631 3.975 110.136 4.7376 C 111.139 4.9075 111.795 5.8746 111.6035 6.8741 L 103.6545 48.3434 C 103.463 49.3404 102.5015 49.9905 101.4975 49.8409 C 99.8435 49.5944 98.1775 49.4376 96.5065 49.3712 C 95.491 49.3308 94.6665 48.5107 94.6665 47.4943 V 5.2778 Z" fill="#3E776D"/>
<path d="M 118.0625 8.3381 C 118.326 7.3583 119.334 6.7751 120.309 7.0559 C 132.157 10.4682 143.197 16.2109 152.7755 23.9438 C 153.569 24.5844 153.666 25.7518 153.006 26.5292 L 125.62 58.7795 C 124.9645 59.552 123.8105 59.6455 123.01 59.025 C 118.632 55.631 113.6745 53.051 108.3755 51.4095 C 107.403 51.108 106.818 50.1005 107.0825 49.1172 L 118.0625 8.3381 Z" fill="#3E776D"/>
<path d="M 158.591 31.6154 C 159.309 30.9009 160.471 30.8996 161.1745 31.6283 C 169.7205 40.4787 176.3965 50.945 180.8065 62.408 C 181.1725 63.3585 180.673 64.4165 179.7145 64.7605 L 139.7865 79.066 C 138.8315 79.408 137.7835 78.9115 137.401 77.9725 C 135.316 72.86 132.3215 68.163 128.562 64.108 C 127.8685 63.36 127.8655 62.1925 128.5885 61.473 L 158.591 31.6154 Z" fill="#3E776D"/>
<path d="M 185.065 95.232 C 186.081 95.232 186.907 96.056 186.8865 97.072 C 186.6395 109.344 183.9215 121.4425 178.8935 132.6505 C 178.479 133.5755 177.384 133.9685 176.466 133.5385 L 138.0695 115.5575 C 137.1465 115.125 136.754 114.0265 137.1525 113.0885 C 139.3085 108.008 140.5265 102.582 140.749 97.0715 C 140.7895 96.056 141.61 95.232 142.626 95.232 H 185.065 Z" fill="#181F25"/>
<path d="M 139.8585 173.1295 C 140.37 174.0115 140.068 175.1425 139.1745 175.6325 C 128.371 181.5555 116.4835 185.262 104.216 186.533 C 103.2055 186.6375 102.3155 185.884 102.2305 184.872 L 98.6805 142.8035 C 98.595 141.79 99.3485 140.903 100.3575 140.778 C 105.866 140.0965 111.2055 138.431 116.1195 135.861 C 117.0175 135.3915 118.1375 135.6885 118.646 136.565 L 139.8585 173.1295 Z" fill="#181F25"/>
<path d="M 30.7422 158.8485 C 30.0243 159.563 28.8623 159.564 28.1588 158.8355 C 19.6127 149.985 12.9368 139.5185 8.5266 128.0555 C 8.1608 127.105 8.66 126.047 9.6189 125.7035 L 49.5466 111.398 C 50.5015 111.0555 51.5495 111.552 51.9325 112.491 C 54.017 117.604 57.0115 122.3005 60.771 126.3555 C 61.4645 127.1035 61.4675 128.271 60.7445 128.9905 L 30.7422 158.8485 Z" fill="#181F25"/>
<path d="M 30.7548 31.6279 C 30.0319 30.9085 30.0307 29.7369 30.7679 29.0322 C 39.6628 20.5289 50.1815 13.8871 61.701 9.5002 C 62.6485 9.1393 63.701 9.6358 64.046 10.5896 L 78.416 50.312 C 78.763 51.27 78.2635 52.3235 77.3195 52.705 C 72.178 54.782 67.4555 57.7655 63.379 61.512 C 62.633 62.1975 61.475 62.2 60.757 61.4855 L 30.7548 31.6279 Z" fill="#181F25"/>
<path d="M 71.273 8.3467 C 71.0085 7.3636 71.592 6.3504 72.5805 6.1078 C 77.017 5.0189 81.529 4.2596 86.0785 3.8362 C 87.09 3.7421 87.972 4.5049 88.0465 5.518 L 91.1535 47.6213 C 91.228 48.6355 90.4655 49.5143 89.4555 49.6286 C 87.794 49.8166 86.144 50.0945 84.513 50.461 C 83.523 50.683 82.5165 50.1055 82.2525 49.1258 L 71.273 8.3467 Z" fill="#181F25"/>
<path d="M 4.2683 95.232 C 3.2519 95.232 2.426 94.4075 2.4465 93.3915 C 2.6938 81.1195 5.4117 69.0215 10.4394 57.813 C 10.8544 56.888 11.949 56.4955 12.867 56.9255 L 51.264 74.9065 C 52.1865 75.3385 52.579 76.437 52.181 77.375 C 50.025 82.4555 48.8065 87.8815 48.5844 93.392 C 48.5434 94.4075 47.7233 95.232 46.707 95.232 L 4.2683 95.232 Z" fill="#181F25"/>
<path d="M 181.9885 71.947 C 182.9685 71.6855 183.9775 72.2665 184.2215 73.251 C 185.315 77.663 186.0775 82.1495 186.5035 86.674 C 186.5985 87.6865 185.835 88.569 184.8205 88.643 L 142.496 91.7365 C 141.483 91.8105 140.6055 91.049 140.49 90.0395 C 140.3015 88.394 140.024 86.7595 139.658 85.1435 C 139.433 84.1505 140.013 83.14 140.997 82.8775 L 181.9885 71.947 Z" fill="#3E776D"/>
<path d="M 158.5785 158.836 C 159.301 159.555 159.3025 160.7265 158.5655 161.4315 C 155.271 164.5805 151.746 167.482 148.0195 170.112 C 147.192 170.696 146.0505 170.477 145.479 169.64 L 121.632 134.719 C 121.057 133.877 121.2785 132.731 122.0995 132.1265 C 123.4415 131.1385 124.728 130.0785 125.9545 128.952 C 126.7 128.2665 127.858 128.2635 128.576 128.978 L 158.5785 158.836 Z" fill="#181F25"/>
<path d="M 49.4669 173.143 C 48.9584 174.0195 47.8359 174.3215 46.9674 173.7995 C 43.0573 171.4485 39.3281 168.8115 35.8107 165.9105 C 35.0238 165.2615 34.9393 164.093 35.6075 163.323 L 63.331 131.3595 C 63.995 130.594 65.15 130.5125 65.944 131.1415 C 67.2505 132.176 68.612 133.1395 70.0235 134.0275 C 70.886 134.5705 71.191 135.6965 70.6795 136.5785 L 49.4669 173.143 Z" fill="#181F25"/>
<path d="M 16.388 50.2555 C 15.5041 49.7475 15.1998 48.6168 15.729 47.7456 C 18.0916 43.8558 20.7414 40.1461 23.6562 36.647 C 24.3045 35.8687 25.4633 35.785 26.2317 36.445 L 58.352 64.037 C 59.1255 64.7015 59.208 65.866 58.5715 66.6625 C 57.5335 67.961 56.5675 69.3145 55.677 70.717 C 55.134 71.5725 54.0155 71.875 53.137 71.37 L 16.388 50.2555 Z" fill="#181F25"/>
<path d="M 7.3449 118.517 C 6.3645 118.7785 5.3556 118.1975 5.1114 117.2125 C 4.0181 112.8005 3.2554 108.314 2.8297 103.79 C 2.7345 102.7775 3.4982 101.8945 4.5124 101.8205 L 46.837 98.7275 C 47.8501 98.653 48.7279 99.415 48.8434 100.424 C 49.0317 102.07 49.3093 103.7045 49.6752 105.3205 C 49.9 106.3135 49.32 107.324 48.3362 107.586 L 7.3449 118.517 Z" fill="#181F25"/>
<path d="M 71.271 182.1255 C 71.007 183.1055 69.9995 183.6885 69.0245 183.408 C 64.6355 182.1435 60.3465 180.557 56.194 178.66 C 55.267 178.237 54.8835 177.131 55.3285 176.2145 L 73.793 138.203 C 74.236 137.291 75.3315 136.913 76.2615 137.316 C 77.794 137.9795 79.3615 138.56 80.9575 139.0545 C 81.93 139.3555 82.515 140.3635 82.2505 141.3465 L 71.271 182.1255 Z" fill="#181F25"/>
<path d="M 94.6665 185.186 C 94.6665 186.202 93.8425 187.028 92.8265 187.008 C 88.2575 186.917 83.702 186.4885 79.1975 185.726 C 78.194 185.556 77.5385 184.589 77.73 183.5895 L 85.679 142.12 C 85.87 141.1235 86.832 140.473 87.836 140.623 C 89.4895 140.8695 91.156 141.026 92.8265 141.0925 C 93.8425 141.133 94.6665 141.953 94.6665 142.9695 V 185.186 Z" fill="#181F25"/>
<path d="M 172.945 140.2085 C 173.829 140.716 174.1335 141.847 173.604 142.718 C 171.2415 146.608 168.592 150.3175 165.677 153.8165 C 165.0285 154.595 163.87 154.6785 163.1015 154.0185 L 130.9815 126.427 C 130.2075 125.7625 130.125 124.5975 130.762 123.801 C 131.7995 122.5025 132.7655 121.1495 133.656 119.747 C 134.199 118.8915 135.3175 118.5885 136.196 119.0935 L 172.945 140.2085 Z" fill="#181F25"/>
</svg>
